<?xml version="1.0" encoding="utf-8"?>
<!-- Generator: Adobe Illustrator 19.2.1, SVG Export Plug-In . SVG Version: 6.00 Build 0)  -->
<svg version="1.1" id="Layer_1" xmlns="http://www.w3.org/2000/svg" xmlns:xlink="http://www.w3.org/1999/xlink" x="0px" y="0px"
	 viewBox="0 0 288 288" style="enable-background:new 0 0 288 288;" xml:space="preserve">
<metadata><?xpacket begin="﻿" id="W5M0MpCehiHzreSzNTczkc9d"?>
<x:xmpmeta xmlns:x="adobe:ns:meta/" x:xmptk="Adobe XMP Core 5.6-c111 79.158366, 2015/09/25-01:12:00        ">
   <rdf:RDF xmlns:rdf="http://www.w3.org/1999/02/22-rdf-syntax-ns#">
      <rdf:Description rdf:about=""/>
   </rdf:RDF>
</x:xmpmeta>
                                                                                                    
                                                                                                    
                                                                                                    
                                                                                                    
                                                                                                    
                                                                                                    
                                                                                                    
                                                                                                    
                                                                                                    
                                                                                                    
                                                                                                    
                                                                                                    
                                                                                                    
                                                                                                    
                                                                                                    
                                                                                                    
                                                                                                    
                                                                                                    
                                                                                                    
                                                                                                    
                           
<?xpacket end="w"?></metadata>
<style type="text/css">
	.st0{opacity:0.4;}
	.st1{opacity:0;fill:#001E2B;}
	.st2{opacity:1.960784e-02;fill:#001E2B;}
	.st3{opacity:3.921569e-02;fill:#001E2B;}
	.st4{opacity:5.882353e-02;fill:#001E2B;}
	.st5{opacity:7.843138e-02;fill:#001E2B;}
	.st6{opacity:9.803922e-02;fill:#001E2B;}
	.st7{opacity:0.1176;fill:#001E2B;}
	.st8{opacity:0.1373;fill:#001E2B;}
	.st9{opacity:0.1569;fill:#001E2B;}
	.st10{opacity:0.1765;fill:#001E2B;}
	.st11{opacity:0.1961;fill:#001E2B;}
	.st12{opacity:0.2157;fill:#001E2B;}
	.st13{opacity:0.2353;fill:#001E2B;}
	.st14{opacity:0.2549;fill:#001E2B;}
	.st15{opacity:0.2745;fill:#001E2B;}
	.st16{opacity:0.2941;fill:#001E2B;}
	.st17{opacity:0.3137;fill:#001E2B;}
	.st18{opacity:0.3333;fill:#001E2B;}
	.st19{opacity:0.3529;fill:#001E2B;}
	.st20{opacity:0.3725;fill:#001E2B;}
	.st21{opacity:0.3922;fill:#001E2B;}
	.st22{opacity:0.4118;fill:#001E2B;}
	.st23{opacity:0.4314;fill:#001E2B;}
	.st24{opacity:0.451;fill:#001E2B;}
	.st25{opacity:0.4706;fill:#001E2B;}
	.st26{opacity:0.4902;fill:#001E2B;}
	.st27{opacity:0.5098;fill:#001E2B;}
	.st28{opacity:0.5294;fill:#001E2B;}
	.st29{opacity:0.549;fill:#001E2B;}
	.st30{opacity:0.5686;fill:#001E2B;}
	.st31{opacity:0.5882;fill:#001E2B;}
	.st32{opacity:0.6078;fill:#001E2B;}
	.st33{opacity:0.6275;fill:#001E2B;}
	.st34{opacity:0.6471;fill:#001E2B;}
	.st35{opacity:0.6667;fill:#001E2B;}
	.st36{opacity:0.6863;fill:#001E2B;}
	.st37{opacity:0.7059;fill:#001E2B;}
	.st38{opacity:0.7255;fill:#001E2B;}
	.st39{opacity:0.7451;fill:#001E2B;}
	.st40{opacity:0.7647;fill:#001E2B;}
	.st41{opacity:0.7843;fill:#001E2B;}
	.st42{opacity:0.8039;fill:#001E2B;}
	.st43{opacity:0.8235;fill:#001E2B;}
	.st44{opacity:0.8431;fill:#001E2B;}
	.st45{opacity:0.8627;fill:#001E2B;}
	.st46{opacity:0.8824;fill:#001E2B;}
	.st47{opacity:0.902;fill:#001E2B;}
	.st48{opacity:0.9216;fill:#001E2B;}
	.st49{opacity:0.9412;fill:#001E2B;}
	.st50{opacity:0.9608;fill:#001E2B;}
	.st51{opacity:0.9804;fill:#001E2B;}
	.st52{fill:#001E2B;}
	.st53{opacity:5.000000e-02;fill:#FBAE3B;}
	.st54{opacity:0.1;fill:#FBAE3B;}
	.st55{fill:#7F83BF;}
	.st56{fill:#82996E;}
	.st57{fill:#F6F7F3;}
	.st58{fill:#4B652E;}
	.st59{opacity:0.7;}
</style>
<g>
	<g class="st0">
		<circle class="st1" cx="206.5" cy="209.2" r="56.5"/>
		<circle class="st2" cx="204.7" cy="207.3" r="56.5"/>
		<circle class="st3" cx="202.9" cy="205.4" r="56.5"/>
		<circle class="st4" cx="201.1" cy="203.4" r="56.5"/>
		<circle class="st5" cx="199.3" cy="201.5" r="56.5"/>
		<circle class="st6" cx="197.5" cy="199.6" r="56.5"/>
		<circle class="st7" cx="195.7" cy="197.7" r="56.5"/>
		<circle class="st8" cx="193.9" cy="195.8" r="56.5"/>
		<circle class="st9" cx="192.1" cy="193.8" r="56.5"/>
		<circle class="st10" cx="190.3" cy="191.9" r="56.5"/>
		<circle class="st11" cx="188.5" cy="190" r="56.5"/>
		<circle class="st12" cx="186.7" cy="188.1" r="56.5"/>
		<circle class="st13" cx="184.9" cy="186.1" r="56.5"/>
		<circle class="st14" cx="183.1" cy="184.2" r="56.5"/>
		<circle class="st15" cx="181.3" cy="182.3" r="56.5"/>
		<circle class="st16" cx="179.5" cy="180.4" r="56.5"/>
		<circle class="st17" cx="177.7" cy="178.5" r="56.5"/>
		<circle class="st18" cx="175.9" cy="176.5" r="56.5"/>
		<circle class="st19" cx="174.1" cy="174.6" r="56.5"/>
		<circle class="st20" cx="172.3" cy="172.7" r="56.5"/>
		<circle class="st21" cx="170.5" cy="170.8" r="56.5"/>
		<circle class="st22" cx="168.7" cy="168.8" r="56.5"/>
		<circle class="st23" cx="166.9" cy="166.9" r="56.5"/>
		<circle class="st24" cx="165.1" cy="165" r="56.5"/>
		<circle class="st25" cx="163.3" cy="163.1" r="56.5"/>
		<circle class="st26" cx="161.5" cy="161.2" r="56.5"/>
		<circle class="st27" cx="159.7" cy="159.2" r="56.5"/>
		<circle class="st28" cx="157.9" cy="157.3" r="56.5"/>
		<circle class="st29" cx="156.1" cy="155.4" r="56.5"/>
		<circle class="st30" cx="154.3" cy="153.5" r="56.5"/>
		<circle class="st31" cx="152.5" cy="151.5" r="56.5"/>
		<circle class="st32" cx="150.7" cy="149.6" r="56.5"/>
		<circle class="st33" cx="148.9" cy="147.7" r="56.5"/>
		<circle class="st34" cx="147.1" cy="145.8" r="56.5"/>
		<circle class="st35" cx="145.3" cy="143.9" r="56.5"/>
		<circle class="st36" cx="143.5" cy="141.9" r="56.5"/>
		<circle class="st37" cx="141.7" cy="140" r="56.5"/>
		<circle class="st38" cx="139.9" cy="138.1" r="56.5"/>
		<circle class="st39" cx="138.1" cy="136.2" r="56.5"/>
		<circle class="st40" cx="136.3" cy="134.2" r="56.5"/>
		<circle class="st41" cx="134.5" cy="132.3" r="56.5"/>
		<circle class="st42" cx="132.7" cy="130.4" r="56.5"/>
		<circle class="st43" cx="130.9" cy="128.5" r="56.5"/>
		<circle class="st44" cx="129.1" cy="126.5" r="56.5"/>
		<circle class="st45" cx="127.3" cy="124.6" r="56.5"/>
		<circle class="st46" cx="125.5" cy="122.7" r="56.5"/>
		<circle class="st47" cx="123.7" cy="120.8" r="56.5"/>
		<circle class="st48" cx="121.9" cy="118.9" r="56.5"/>
		<circle class="st49" cx="120.1" cy="116.9" r="56.5"/>
		<circle class="st50" cx="118.3" cy="115" r="56.5"/>
		<circle class="st51" cx="116.5" cy="113.1" r="56.5"/>
		<circle class="st52" cx="114.7" cy="111.2" r="56.5"/>
	</g>
	<circle class="st53" cx="114.5" cy="111.8" r="89.8"/>
	<circle class="st54" cx="114.5" cy="111.8" r="67.3"/>
	<g>
		<circle class="st55" cx="113.5" cy="111.4" r="56.7"/>
		<path class="st56" d="M170.3,111.3c0,4.9-1.9,8.7-6.8,10.7c-4.5,1.8-6.7,1.5-9.4,6.1c-1.9,3.3-2.3,5.9-6.4,7.2
			c-4.3,1.4-8.3-0.1-12.4-0.7c-4.4-0.7-8.6,0.2-12.7,2.8c-4.2,2.6-6.2,8.5-10.3,10.7c-8.4,4.3-16.2-7.9-23.4-9.4
			c-5.4-1.1-6.7,1.1-11,3.5c-15.9,9.1-20.5-20.5-20.5-30.9c0-31.2,25.3-56.4,56.4-56.4C145,54.9,170.3,80.2,170.3,111.3z"/>
		<path class="st57" d="M141.1,90.1c-4.1,2.8-4.3,8-4.5,12.5c-0.4,8.8,0.5,22.6-11.3,22.3c-4.1-0.1-7.1-2.9-11-2.1
			c-4,0.8-7.2,4.9-9,8.2c-1.4,2.5-2.6,8.6-5.3,10c-3.4,1.8-7.2-4.7-11.6-5.6c-5.1-1.1-6.4,1-10.5,3.3c-15.1,8.6-19.4-19.5-19.4-29.3
			c0-29.6,24-53.6,53.6-53.6c10.5,0,20.9,3.1,29.7,9c4,2.7,9,6.3,11.6,10.4C155.3,78.2,144.1,88.1,141.1,90.1z"/>
		<path class="st58" d="M107.3,98.9c0.7,2.8,0.7,5.5-0.9,7.9c-2,3.1-6.1,2-8.7,4.1c-3,2.5-3.6,7.9-4,11.5c-0.3,2.7-0.7,7.9-3.6,9.5
			c-2.4,1.3-5.1-0.2-7.5,0.4c-1.8,0.4-3.3,1.9-4.8,2.8c-13.6,7.8-17.5-17.5-17.5-26.4c0-17.7,10-34.2,25.5-42.6
			c4.1-2.2,20.8-9.4,24.4-4.8c4.2,5.3-7.2,13.9-8.2,18.7C100.9,85.9,105.8,92.7,107.3,98.9z"/>
		<path class="st55" d="M86.6,101c0.3,2.1,0.3,4.1-0.4,5.8c-1,2.3-3.1,1.5-4.4,3c-1.5,1.8-1.8,5.9-2,8.5c-0.2,2-0.4,5.9-1.8,7
			c-1.2,1-2.5-0.2-3.8,0.3c-0.9,0.3-1.6,1.4-2.4,2.1c-6.8,5.7-8.7-13-8.7-19.5c0-13.1,5-25.3,12.8-31.5c2.1-1.6,10.4-6.9,12.2-3.6
			c2.1,3.9-3.6,10.3-4.1,13.9C83.5,91.4,85.9,96.4,86.6,101z"/>
	</g>
	<g class="st59">
		
			<ellipse transform="matrix(0.9563 -0.2924 0.2924 0.9563 -27.5993 38.0605)" class="st55" cx="113.5" cy="111.4" rx="56.7" ry="56.7"/>
		<path class="st56" d="M130.2,165.6c-4.7,1.4-8.9,0.8-12.2-3.4c-3-3.7-3.4-6-8.6-7.2c-3.7-0.9-6.3-0.5-8.8-4
			c-2.6-3.7-2.4-8-2.9-12.1c-0.6-4.4-2.7-8.2-6.3-11.3c-3.7-3.2-10-3.4-13.2-6.7c-6.6-6.7,2.8-17.8,2.1-25.1c-0.5-5.5-3-6.1-6.6-9.5
			C60.3,73.7,87.3,60.7,97.2,57.7c29.8-9.1,61.3,7.7,70.5,37.5C176.7,124.9,160,156.5,130.2,165.6z"/>
		<path class="st57" d="M141.9,131.5c-3.9-3.1-8.9-1.7-13.3-0.6c-8.5,2.2-21.5,7-24.6-4.3c-1.1-4,0.8-7.6-1.2-11.1
			c-1.9-3.5-6.8-5.4-10.5-6.2c-2.8-0.6-9,0-11.1-2.1c-2.7-2.8,2.4-8.3,2-12.8c-0.5-5.2-2.8-5.8-6.2-9c-12.7-12,12.9-24.3,22.3-27.2
			c28.3-8.7,58.3,7.3,66.9,35.6c3.1,10.1,3.1,20.9,0.1,31c-1.4,4.6-3.4,10.4-6.6,14.1C157.5,141.6,144.8,133.7,141.9,131.5z"/>
		<path class="st58" d="M123.7,101.7c-2.5,1.5-5,2.3-7.8,1.5c-3.5-1.1-3.7-5.3-6.4-7.2c-3.2-2.2-8.6-1.1-12.2-0.5
			c-2.7,0.5-7.8,1.6-10.1-0.6c-1.9-1.9-1.3-4.9-2.6-7.1c-0.9-1.6-2.8-2.6-4.1-3.8c-11.4-10.8,11.6-21.8,20.1-24.4
			c16.9-5.2,35.7-0.5,48.2,12c3.3,3.3,15,17.2,11.7,22c-3.8,5.6-15.4-2.9-20.3-2.3C134.2,91.8,129.1,98.5,123.7,101.7z"/>
		<path class="st55" d="M115.6,82.6c-1.9,0.9-3.8,1.5-5.7,1.3c-2.5-0.3-2.3-2.5-4.2-3.3c-2.2-0.9-6.1,0-8.7,0.6
			c-1.9,0.4-5.7,1.4-7.2,0.3c-1.3-0.8-0.6-2.5-1.4-3.5c-0.6-0.7-1.8-1.2-2.7-1.7c-7.5-4.8,9.8-12.1,16.1-14.1
			c12.5-3.8,25.7-2.6,33.9,3c2.2,1.5,9.7,7.9,7,10.6c-3.1,3.2-10.9-0.5-14.5,0.2C123.9,76.8,119.7,80.5,115.6,82.6z"/>
	</g>
	<g class="st59">
		
			<ellipse transform="matrix(0.9713 -0.238 0.238 0.9713 -23.2431 30.2229)" class="st55" cx="113.5" cy="111.4" rx="56.7" ry="56.7"/>
		<path class="st56" d="M168.6,97.8c1.2,4.8,0.3,8.9-4.1,12c-3.9,2.8-6.2,3.1-7.7,8.1c-1.1,3.7-0.9,6.3-4.5,8.5
			c-3.8,2.4-8.1,1.9-12.2,2.2c-4.4,0.4-8.3,2.3-11.7,5.7c-3.4,3.6-3.9,9.8-7.5,12.8c-7.1,6.2-17.6-3.8-25-3.5
			c-5.5,0.2-6.3,2.6-9.9,6c-13.3,12.6-24.8-15-27.2-25.1c-7.4-30.3,11.1-60.8,41.4-68.2C130.6,49,161.2,67.6,168.6,97.8z"/>
		<path class="st57" d="M135.2,84.2c-3.3,3.7-2.2,8.8-1.3,13.2c1.7,8.7,5.8,21.8-5.7,24.3c-4,0.9-7.6-1.2-11.2,0.5
			c-3.6,1.7-5.8,6.5-6.8,10.1c-0.7,2.8-0.5,9-2.8,11c-2.9,2.5-8.1-2.9-12.6-2.7c-5.2,0.2-6,2.5-9.4,5.7
			c-12.7,12-23.5-14.3-25.9-23.8c-7-28.8,10.6-57.8,39.3-64.8c10.2-2.5,21.1-1.9,31,1.6c4.5,1.6,10.2,4,13.7,7.4
			C146.2,69.2,137.6,81.5,135.2,84.2z"/>
		<path class="st58" d="M104.5,100.7c1.3,2.6,2,5.2,1,7.8c-1.2,3.4-5.5,3.4-7.5,6c-2.4,3.1-1.6,8.5-1.1,12.1c0.3,2.7,1.2,7.9-1.2,10
			c-2,1.8-5,1-7.2,2.2c-1.6,0.8-2.7,2.6-4,3.9c-11.4,10.8-21.1-12.8-23.3-21.4c-4.2-17.1,1.5-35.6,14.7-47.4
			c3.5-3.1,18-14,22.6-10.5c5.3,4.1-3.7,15.2-3.5,20.1C95.2,89.6,101.5,95.1,104.5,100.7z"/>
		<path class="st55" d="M84.9,107.7c0.8,1.9,1.3,3.9,1,5.8c-0.5,2.4-2.6,2.2-3.5,4c-1,2.1-0.3,6.1,0.1,8.7c0.3,2,1,5.8-0.1,7.2
			c-0.9,1.2-2.5,0.4-3.6,1.2c-0.8,0.5-1.3,1.8-1.9,2.6c-5.2,7.2-11.6-10.5-13.1-16.9c-3.1-12.7-1.2-25.8,4.9-33.6
			c1.6-2.1,8.5-9.2,11-6.4c3,3.3-1.1,10.9-0.7,14.4C79.6,99.1,83.1,103.5,84.9,107.7z"/>
	</g>
</g>
</svg>
