<?xml version="1.0" encoding="utf-8"?>
<!-- Generator: Adobe Illustrator 19.2.1, SVG Export Plug-In . SVG Version: 6.00 Build 0)  -->
<svg version="1.1" id="Layer_1" xmlns="http://www.w3.org/2000/svg" xmlns:xlink="http://www.w3.org/1999/xlink" x="0px" y="0px"
	 viewBox="0 0 288 288" style="enable-background:new 0 0 288 288;" xml:space="preserve">
<metadata><?xpacket begin="﻿" id="W5M0MpCehiHzreSzNTczkc9d"?>
<x:xmpmeta xmlns:x="adobe:ns:meta/" x:xmptk="Adobe XMP Core 5.6-c111 79.158366, 2015/09/25-01:12:00        ">
   <rdf:RDF xmlns:rdf="http://www.w3.org/1999/02/22-rdf-syntax-ns#">
      <rdf:Description rdf:about=""/>
   </rdf:RDF>
</x:xmpmeta>
                                                                                                    
                                                                                                    
                                                                                                    
                                                                                                    
                                                                                                    
                                                                                                    
                                                                                                    
                                                                                                    
                                                                                                    
                                                                                                    
                                                                                                    
                                                                                                    
                                                                                                    
                                                                                                    
                                                                                                    
                                                                                                    
                                                                                                    
                                                                                                    
                                                                                                    
                                                                                                    
                           
<?xpacket end="w"?></metadata>
<style type="text/css">
	.st0{opacity:0.4;}
	.st1{opacity:0;fill:#001E2B;}
	.st2{opacity:1.960784e-02;fill:#001E2B;}
	.st3{opacity:3.921569e-02;fill:#001E2B;}
	.st4{opacity:5.882353e-02;fill:#001E2B;}
	.st5{opacity:7.843138e-02;fill:#001E2B;}
	.st6{opacity:9.803922e-02;fill:#001E2B;}
	.st7{opacity:0.1176;fill:#001E2B;}
	.st8{opacity:0.1373;fill:#001E2B;}
	.st9{opacity:0.1569;fill:#001E2B;}
	.st10{opacity:0.1765;fill:#001E2B;}
	.st11{opacity:0.1961;fill:#001E2B;}
	.st12{opacity:0.2157;fill:#001E2B;}
	.st13{opacity:0.2353;fill:#001E2B;}
	.st14{opacity:0.2549;fill:#001E2B;}
	.st15{opacity:0.2745;fill:#001E2B;}
	.st16{opacity:0.2941;fill:#001E2B;}
	.st17{opacity:0.3137;fill:#001E2B;}
	.st18{opacity:0.3333;fill:#001E2B;}
	.st19{opacity:0.3529;fill:#001E2B;}
	.st20{opacity:0.3725;fill:#001E2B;}
	.st21{opacity:0.3922;fill:#001E2B;}
	.st22{opacity:0.4118;fill:#001E2B;}
	.st23{opacity:0.4314;fill:#001E2B;}
	.st24{opacity:0.451;fill:#001E2B;}
	.st25{opacity:0.4706;fill:#001E2B;}
	.st26{opacity:0.4902;fill:#001E2B;}
	.st27{opacity:0.5098;fill:#001E2B;}
	.st28{opacity:0.5294;fill:#001E2B;}
	.st29{opacity:0.549;fill:#001E2B;}
	.st30{opacity:0.5686;fill:#001E2B;}
	.st31{opacity:0.5882;fill:#001E2B;}
	.st32{opacity:0.6078;fill:#001E2B;}
	.st33{opacity:0.6275;fill:#001E2B;}
	.st34{opacity:0.6471;fill:#001E2B;}
	.st35{opacity:0.6667;fill:#001E2B;}
	.st36{opacity:0.6863;fill:#001E2B;}
	.st37{opacity:0.7059;fill:#001E2B;}
	.st38{opacity:0.7255;fill:#001E2B;}
	.st39{opacity:0.7451;fill:#001E2B;}
	.st40{opacity:0.7647;fill:#001E2B;}
	.st41{opacity:0.7843;fill:#001E2B;}
	.st42{opacity:0.8039;fill:#001E2B;}
	.st43{opacity:0.8235;fill:#001E2B;}
	.st44{opacity:0.8431;fill:#001E2B;}
	.st45{opacity:0.8627;fill:#001E2B;}
	.st46{opacity:0.8824;fill:#001E2B;}
	.st47{opacity:0.902;fill:#001E2B;}
	.st48{opacity:0.9216;fill:#001E2B;}
	.st49{opacity:0.9412;fill:#001E2B;}
	.st50{opacity:0.9608;fill:#001E2B;}
	.st51{opacity:0.9804;fill:#001E2B;}
	.st52{fill:#001E2B;}
	.st53{opacity:5.000000e-02;fill:#FBAE3B;}
	.st54{opacity:0.1;fill:#FBAE3B;}
	.st55{fill:#978074;}
	.st56{fill:#F4C39F;}
	.st57{fill:#F9A67B;}
	.st58{fill:#F8FBEE;}
	.st59{fill:#C19E83;}
	.st60{opacity:0.5;}
	.st61{opacity:0.7;}
</style>
<g>
	<g class="st0">
		<circle class="st1" cx="218.8" cy="221.2" r="66.7"/>
		<circle class="st2" cx="216.6" cy="218.9" r="66.7"/>
		<circle class="st3" cx="214.5" cy="216.6" r="66.7"/>
		<circle class="st4" cx="212.4" cy="214.4" r="66.7"/>
		<circle class="st5" cx="210.2" cy="212.1" r="66.7"/>
		<circle class="st6" cx="208.1" cy="209.8" r="66.7"/>
		<circle class="st7" cx="206" cy="207.6" r="66.7"/>
		<circle class="st8" cx="203.9" cy="205.3" r="66.7"/>
		<circle class="st9" cx="201.7" cy="203" r="66.7"/>
		<circle class="st10" cx="199.6" cy="200.7" r="66.7"/>
		<circle class="st11" cx="197.5" cy="198.5" r="66.7"/>
		<circle class="st12" cx="195.4" cy="196.2" r="66.7"/>
		<circle class="st13" cx="193.2" cy="193.9" r="66.7"/>
		<circle class="st14" cx="191.1" cy="191.7" r="66.7"/>
		<circle class="st15" cx="189" cy="189.4" r="66.7"/>
		<circle class="st16" cx="186.9" cy="187.1" r="66.7"/>
		<circle class="st17" cx="184.7" cy="184.8" r="66.7"/>
		<circle class="st18" cx="182.6" cy="182.6" r="66.7"/>
		<circle class="st19" cx="180.5" cy="180.3" r="66.7"/>
		<circle class="st20" cx="178.4" cy="178" r="66.7"/>
		<circle class="st21" cx="176.2" cy="175.8" r="66.7"/>
		<circle class="st22" cx="174.1" cy="173.5" r="66.7"/>
		<circle class="st23" cx="172" cy="171.2" r="66.7"/>
		<circle class="st24" cx="169.8" cy="168.9" r="66.7"/>
		<circle class="st25" cx="167.7" cy="166.7" r="66.7"/>
		<circle class="st26" cx="165.6" cy="164.4" r="66.7"/>
		<circle class="st27" cx="163.5" cy="162.1" r="66.7"/>
		<circle class="st28" cx="161.3" cy="159.8" r="66.7"/>
		<circle class="st29" cx="159.2" cy="157.6" r="66.7"/>
		<circle class="st30" cx="157.1" cy="155.3" r="66.7"/>
		<circle class="st31" cx="155" cy="153" r="66.7"/>
		<circle class="st32" cx="152.8" cy="150.8" r="66.7"/>
		<circle class="st33" cx="150.7" cy="148.5" r="66.7"/>
		<circle class="st34" cx="148.6" cy="146.2" r="66.7"/>
		<circle class="st35" cx="146.5" cy="143.9" r="66.7"/>
		<circle class="st36" cx="144.3" cy="141.7" r="66.7"/>
		<circle class="st37" cx="142.2" cy="139.4" r="66.7"/>
		<circle class="st38" cx="140.1" cy="137.1" r="66.7"/>
		<circle class="st39" cx="138" cy="134.9" r="66.7"/>
		<circle class="st40" cx="135.8" cy="132.6" r="66.7"/>
		<circle class="st41" cx="133.7" cy="130.3" r="66.7"/>
		<circle class="st42" cx="131.6" cy="128" r="66.7"/>
		<circle class="st43" cx="129.4" cy="125.8" r="66.7"/>
		<circle class="st44" cx="127.3" cy="123.5" r="66.7"/>
		<circle class="st45" cx="125.2" cy="121.2" r="66.7"/>
		<circle class="st46" cx="123.1" cy="119" r="66.7"/>
		<circle class="st47" cx="120.9" cy="116.7" r="66.7"/>
		<circle class="st48" cx="118.8" cy="114.4" r="66.7"/>
		<circle class="st49" cx="116.7" cy="112.1" r="66.7"/>
		<circle class="st50" cx="114.6" cy="109.9" r="66.7"/>
		<circle class="st51" cx="112.4" cy="107.6" r="66.7"/>
		<circle class="st52" cx="110.3" cy="105.3" r="66.7"/>
	</g>
	<circle class="st53" cx="110.1" cy="106.1" r="106.1"/>
	<circle class="st54" cx="110.1" cy="106.1" r="79.6"/>
	<g>
		<g>
			
				<ellipse transform="matrix(0.7021 -0.7121 0.7121 0.7021 -42.5103 109.8012)" class="st55" cx="110" cy="105.7" rx="67" ry="67"/>
			<path class="st56" d="M157.7,152.7c-4.1,4.2-8.8,5.8-14.6,3.4c-5.2-2.2-6.9-4.3-12.9-2.7c-4.4,1.2-6.9,3-11.4,0.8
				c-4.8-2.4-6.9-7-9.8-10.9c-3.1-4.2-7.5-7-13-8.2c-5.7-1.3-12.3,2.1-17.5,0.4c-10.6-3.3-7.1-20-11.9-27.3
				c-3.6-5.4-6.5-4.7-12.2-6.2c-20.9-5.6-0.2-34.2,8.4-42.9c25.9-26.2,68.1-26.5,94.3-0.7C183.3,84.3,183.6,126.5,157.7,152.7z"/>
			<path class="st57" d="M150.8,110.7c-5.8-1-10.2,3.2-14.1,6.8c-7.6,7.1-18.3,19.4-28,9.4c-3.4-3.5-3.5-8.3-7.5-10.9
				c-4-2.6-10.1-1.8-14.4-0.6c-3.2,1-9.4,5.1-12.8,4c-4.4-1.4-2.1-10-5.1-14.4c-3.4-5.1-6.2-4.4-11.6-5.9c-19.9-5.3-0.2-32.5,8-40.8
				c24.6-24.9,64.7-25.2,89.6-0.6c8.9,8.7,15,20,17.5,32.2c1.2,5.6,2.3,12.7,1.1,18.4C172.7,112.4,155,111.4,150.8,110.7z"/>
			<path class="st58" d="M115.1,90c-1.7,2.9-4,5.2-7.3,5.9c-4.2,0.9-6.8-3.4-10.7-3.8c-4.6-0.5-9.6,3.7-12.9,6.4
				c-2.5,2-7.2,6-10.9,5c-3.1-0.9-4.1-4.4-6.7-5.9c-1.8-1.1-4.3-1.1-6.4-1.7c-17.9-4.8-0.2-29.2,7.2-36.7
				c14.6-14.9,36.8-20.5,56.8-14.6c5.3,1.6,25.3,9.4,24.5,16.2c-0.9,7.9-17.6,5.7-22.4,9C120.5,73.8,118.9,83.5,115.1,90z"/>
			<path class="st59" d="M95.9,74.7c-1.4,2-3.1,3.7-5.2,4.5c-2.7,1.1-3.8-1.3-6.2-1.1c-2.8,0.3-6.4,3.5-8.7,5.5
				c-1.8,1.5-5.2,4.6-7.3,4.4c-1.8-0.2-2-2.2-3.4-2.9c-1-0.5-2.5-0.2-3.8-0.3c-10.5-0.8,3.4-18.2,8.8-23.7C81,50.2,95.4,44,107,45.3
				c3.1,0.3,14.5,2.8,13.2,7.2c-1.5,5-11.6,5.7-14.9,8.3C101.2,63.9,99.1,70.2,95.9,74.7z"/>
		</g>
		<g class="st60">
			
				<ellipse transform="matrix(0.2558 -0.9667 0.9667 0.2558 -20.3442 184.9801)" class="st55" cx="110" cy="105.7" rx="67" ry="67"/>
			<path class="st56" d="M45.2,88.6c1.5-5.6,4.8-9.4,11-10.2c5.6-0.7,8.1,0.3,12.6-4.1c3.2-3.2,4.5-6,9.5-6.3
				c5.3-0.3,9.5,2.6,13.9,4.6c4.8,2.1,9.9,2.4,15.3,0.7c5.6-1.7,9.6-7.9,15-9.1c10.9-2.4,16.1,13.9,23.9,17.8
				c5.8,2.9,8,0.8,13.6-0.7c20.9-5.5,17.2,29.6,14.1,41.4c-9.4,35.6-45.9,56.8-81.5,47.4C57,160.7,35.8,124.2,45.2,88.6z"/>
			<path class="st57" d="M72.1,121.6c5.5-2,7.3-7.8,8.9-13c3.1-10,6.3-25.9,19.7-22.1c4.7,1.4,7.2,5.5,11.9,5.7
				c4.8,0.3,9.7-3.4,12.8-6.6c2.3-2.5,5.6-9.1,9.1-9.8c4.5-1,6.8,7.6,11.6,10c5.5,2.8,7.6,0.8,13-0.6c19.9-5.3,16.3,28.1,13.4,39.4
				c-8.9,33.8-43.6,54-77.4,45c-12-3.2-23-9.9-31.2-19.2c-3.8-4.3-8.3-9.9-10.1-15.4C52.2,131,68.1,123.1,72.1,121.6z"/>
			<path class="st58" d="M113.3,121.9c0.1-3.4,0.9-6.5,3.4-8.7c3.2-2.9,7.6-0.4,11.2-2c4.2-1.9,6.5-8,8-11.9c1.2-3,3.2-8.8,6.9-9.7
				c3.1-0.8,5.7,1.8,8.7,1.8c2.1,0,4.3-1.2,6.4-1.7c17.9-4.7,14.7,25.3,12,35.4c-5.3,20.2-21.7,36.1-42,40.9
				c-5.4,1.3-26.6,4.4-29.4-1.9c-3.2-7.3,12.5-13.7,15-18.9C116.7,138.6,113.2,129.4,113.3,121.9z"/>
			<path class="st59" d="M137.6,125.7c0.2-2.5,0.8-4.7,2.3-6.5c1.8-2.3,3.9-0.7,5.9-2.1c2.3-1.6,3.8-6.2,4.9-9.1
				c0.8-2.2,2.2-6.6,4.2-7.5c1.6-0.7,2.8,1,4.4,0.8c1.1-0.1,2.3-1.1,3.4-1.6c9.5-4.5,6.1,17.4,4.1,24.9
				c-3.9,14.9-13.4,27.5-24.1,32.1c-2.9,1.2-14,4.8-15,0.4c-1.2-5.1,7.2-10.7,8.9-14.6C138.3,137.6,137.1,131.1,137.6,125.7z"/>
		</g>
	</g>
	<g class="st61">
		<g>
			
				<ellipse transform="matrix(0.3197 -0.9475 0.9475 0.3197 -25.3419 176.1154)" class="st55" cx="110" cy="105.7" rx="67" ry="67"/>
			<path class="st56" d="M173.5,127.1c-1.9,5.5-5.4,9.1-11.7,9.4c-5.7,0.3-8.1-0.8-12.8,3.3c-3.4,3-4.9,5.7-9.9,5.7
				c-5.3,0-9.3-3.2-13.6-5.5c-4.6-2.4-9.8-3-15.2-1.7c-5.7,1.4-10.1,7.2-15.6,8.1c-11,1.7-15.1-14.9-22.7-19.3
				c-5.6-3.3-7.9-1.3-13.7-0.2C37.1,130.9,43.2,96,47.1,84.4c11.8-34.9,49.6-53.6,84.5-41.9C166.5,54.4,185.3,92.2,173.5,127.1z"/>
			<path class="st57" d="M148.8,92.3c-5.6,1.6-7.8,7.3-9.7,12.3c-3.8,9.7-8,25.5-21.1,20.7c-4.6-1.7-6.8-6-11.5-6.5
				c-4.7-0.6-9.9,2.8-13.2,5.8c-2.5,2.3-6.2,8.7-9.7,9.2c-4.5,0.7-6.3-8-10.9-10.7c-5.3-3.1-7.5-1.3-13-0.2
				c-20.2,3.9-14.4-29.1-10.7-40.2c11.2-33.2,47.1-51,80.3-39.8c11.8,4,22.2,11.4,29.8,21.2c3.5,4.5,7.7,10.4,9,16.1
				C169.3,84.3,152.9,91.1,148.8,92.3z"/>
			<path class="st58" d="M107.7,89.3c-0.3,3.4-1.3,6.4-4,8.5c-3.4,2.7-7.6-0.1-11.3,1.3c-4.3,1.6-7,7.5-8.8,11.4
				c-1.4,2.9-3.8,8.6-7.6,9.3c-3.1,0.6-5.6-2.2-8.6-2.4c-2.1-0.2-4.4,0.9-6.5,1.3c-18.2,3.5-13-26.2-9.6-36.1
				C58,62.7,75.4,47.8,96,44.4c5.5-0.9,26.8-2.6,29.2,3.9c2.7,7.5-13.4,12.8-16.2,17.9C105.5,72.4,108.3,81.9,107.7,89.3z"/>
			<path class="st59" d="M83.8,83.9c-0.4,2.5-1.1,4.7-2.7,6.3c-2,2.1-4,0.5-6,1.7c-2.4,1.5-4.2,5.9-5.4,8.8
				c-0.9,2.2-2.6,6.4-4.6,7.2c-1.7,0.6-2.8-1.1-4.3-1.1c-1.1,0-2.4,0.9-3.5,1.4c-9.8,3.9-4.9-17.8-2.4-25.2
				c4.9-14.6,15.2-26.5,26.2-30.5c2.9-1,14.3-3.8,15,0.6c0.9,5.2-7.9,10.2-9.8,14C83.8,72,84.6,78.5,83.8,83.9z"/>
		</g>
		<g class="st60">
			<ellipse transform="matrix(0.9812 -0.1931 0.1931 0.9812 -18.3402 23.2225)" class="st55" cx="110" cy="105.7" rx="67" ry="67"/>
			<path class="st56" d="M44.2,118.7c-1.1-5.7,0.2-10.6,5.5-14c4.8-3.1,7.4-3.3,9.5-9.2c1.5-4.3,1.4-7.4,5.7-9.8
				c4.6-2.6,9.7-1.8,14.5-2c5.2-0.2,10-2.2,14.1-6.1c4.2-4,5.2-11.3,9.5-14.7c8.7-6.9,20.6,5.4,29.3,5.5c6.5,0.1,7.5-2.8,12-6.6
				c16.4-14.2,28.4,19.1,30.8,31.1c7.1,36.1-16.4,71.2-52.5,78.3C86.4,178.4,51.3,154.8,44.2,118.7z"/>
			<path class="st57" d="M82.9,136.6c4.1-4.2,3.1-10.2,2.3-15.5c-1.6-10.3-5.7-26.1,8-28.4c4.8-0.8,8.9,1.8,13.2,0
				c4.4-1.9,7.2-7.3,8.6-11.6c1-3.2,1.1-10.6,3.9-12.8c3.6-2.9,9.5,3.9,14.8,3.9c6.2,0.1,7.2-2.6,11.4-6.3
				c15.6-13.4,27,18.1,29.2,29.5c6.8,34.3-15.6,67.6-49.9,74.4c-12.2,2.4-25,1.1-36.5-3.6C82.5,164,76,161,72,156.8
				C69.1,153.7,79.9,139.7,82.9,136.6z"/>
			<path class="st58" d="M120.1,118.8c-1.4-3.1-2.1-6.2-0.8-9.3c1.7-4,6.7-3.7,9.2-6.7c3-3.5,2.3-10,2-14.2c-0.2-3.2-0.9-9.3,2-11.8
				c2.4-2,5.9-0.9,8.7-2.2c1.9-0.9,3.4-2.9,5-4.3c14-12.1,24.3,16.3,26.3,26.6c4,20.5-3.7,42-19.9,55.2c-4.3,3.5-22,15.6-27.2,11.1
				c-6.1-5.2,5.2-17.8,5.2-23.6C130.4,132.4,123.2,125.6,120.1,118.8z"/>
			<path class="st59" d="M143.5,111.6c-0.9-2.3-1.3-4.6-0.8-6.8c0.7-2.9,3.2-2.4,4.4-4.5c1.3-2.5,0.7-7.2,0.4-10.3
				c-0.3-2.3-0.9-6.9,0.5-8.5c1.1-1.4,3-0.4,4.3-1.2c0.9-0.6,1.6-2,2.3-2.9c6.6-8.2,13.1,13,14.6,20.6c3,15.1,0,30.5-7.6,39.4
				c-2,2.4-10.5,10.4-13.4,6.9c-3.3-4.1,1.8-12.8,1.6-17C149.4,122,145.5,116.7,143.5,111.6z"/>
		</g>
	</g>
</g>
</svg>
