<?xml version="1.0" encoding="utf-8"?>
<!-- Generator: Adobe Illustrator 19.2.1, SVG Export Plug-In . SVG Version: 6.00 Build 0)  -->
<svg version="1.1" id="Layer_1" xmlns="http://www.w3.org/2000/svg" xmlns:xlink="http://www.w3.org/1999/xlink" x="0px" y="0px"
	 viewBox="0 0 288 288" style="enable-background:new 0 0 288 288;" xml:space="preserve">
<metadata><?xpacket begin="﻿" id="W5M0MpCehiHzreSzNTczkc9d"?>
<x:xmpmeta xmlns:x="adobe:ns:meta/" x:xmptk="XMP Core 5.4.0">
 <rdf:RDF xmlns:rdf="http://www.w3.org/1999/02/22-rdf-syntax-ns#">
  <rdf:Description rdf:about=""/>
 </rdf:RDF>
</x:xmpmeta>
                                                                                                    
                                                                                                    
                                                                                                    
                                                                                                    
                                                                                                    
                                                                                                    
                                                                                                    
                                                                                                    
                                                                                                    
                                                                                                    
                                                                                                    
                                                                                                    
                                                                                                    
                                                                                                    
                                                                                                    
                                                                                                    
                                                                                                    
                                                                                                    
                                                                                                    
                                                                                                    
                                                                                   
<?xpacket end="w"?></metadata>
<style type="text/css">
	.st0{opacity:0.4;}
	.st1{opacity:0;fill:#001E2B;}
	.st2{opacity:1.960784e-02;fill:#001E2B;}
	.st3{opacity:3.921569e-02;fill:#001E2B;}
	.st4{opacity:5.882353e-02;fill:#001E2B;}
	.st5{opacity:7.843138e-02;fill:#001E2B;}
	.st6{opacity:9.803922e-02;fill:#001E2B;}
	.st7{opacity:0.1176;fill:#001E2B;}
	.st8{opacity:0.1373;fill:#001E2B;}
	.st9{opacity:0.1569;fill:#001E2B;}
	.st10{opacity:0.1765;fill:#001E2B;}
	.st11{opacity:0.1961;fill:#001E2B;}
	.st12{opacity:0.2157;fill:#001E2B;}
	.st13{opacity:0.2353;fill:#001E2B;}
	.st14{opacity:0.2549;fill:#001E2B;}
	.st15{opacity:0.2745;fill:#001E2B;}
	.st16{opacity:0.2941;fill:#001E2B;}
	.st17{opacity:0.3137;fill:#001E2B;}
	.st18{opacity:0.3333;fill:#001E2B;}
	.st19{opacity:0.3529;fill:#001E2B;}
	.st20{opacity:0.3725;fill:#001E2B;}
	.st21{opacity:0.3922;fill:#001E2B;}
	.st22{opacity:0.4118;fill:#001E2B;}
	.st23{opacity:0.4314;fill:#001E2B;}
	.st24{opacity:0.451;fill:#001E2B;}
	.st25{opacity:0.4706;fill:#001E2B;}
	.st26{opacity:0.4902;fill:#001E2B;}
	.st27{opacity:0.5098;fill:#001E2B;}
	.st28{opacity:0.5294;fill:#001E2B;}
	.st29{opacity:0.549;fill:#001E2B;}
	.st30{opacity:0.5686;fill:#001E2B;}
	.st31{opacity:0.5882;fill:#001E2B;}
	.st32{opacity:0.6078;fill:#001E2B;}
	.st33{opacity:0.6275;fill:#001E2B;}
	.st34{opacity:0.6471;fill:#001E2B;}
	.st35{opacity:0.6667;fill:#001E2B;}
	.st36{opacity:0.6863;fill:#001E2B;}
	.st37{opacity:0.7059;fill:#001E2B;}
	.st38{opacity:0.7255;fill:#001E2B;}
	.st39{opacity:0.7451;fill:#001E2B;}
	.st40{opacity:0.7647;fill:#001E2B;}
	.st41{opacity:0.7843;fill:#001E2B;}
	.st42{opacity:0.8039;fill:#001E2B;}
	.st43{opacity:0.8235;fill:#001E2B;}
	.st44{opacity:0.8431;fill:#001E2B;}
	.st45{opacity:0.8627;fill:#001E2B;}
	.st46{opacity:0.8824;fill:#001E2B;}
	.st47{opacity:0.902;fill:#001E2B;}
	.st48{opacity:0.9216;fill:#001E2B;}
	.st49{opacity:0.9412;fill:#001E2B;}
	.st50{opacity:0.9608;fill:#001E2B;}
	.st51{opacity:0.9804;fill:#001E2B;}
	.st52{fill:#001E2B;}
	.st53{opacity:5.000000e-02;fill:#FBAE3B;}
	.st54{opacity:0.1;fill:#FBAE3B;}
	.st55{fill:#8E1F1C;}
	.st56{fill:#C24E27;}
	.st57{fill:#EA3024;}
	.st58{fill:#D54727;}
	.st59{fill:#F89B45;}
</style>
<g>
	<g class="st0">
		<circle class="st1" cx="184.1" cy="185.4" r="35.7"/>
		<circle class="st2" cx="182.9" cy="184.2" r="35.7"/>
		<circle class="st3" cx="181.8" cy="183" r="35.7"/>
		<circle class="st4" cx="180.7" cy="181.8" r="35.7"/>
		<circle class="st5" cx="179.5" cy="180.5" r="35.7"/>
		<circle class="st6" cx="178.4" cy="179.3" r="35.7"/>
		<circle class="st7" cx="177.2" cy="178.1" r="35.7"/>
		<circle class="st8" cx="176.1" cy="176.9" r="35.7"/>
		<circle class="st9" cx="175" cy="175.7" r="35.7"/>
		<circle class="st10" cx="173.8" cy="174.5" r="35.7"/>
		<circle class="st11" cx="172.7" cy="173.3" r="35.7"/>
		<circle class="st12" cx="171.6" cy="172" r="35.7"/>
		<circle class="st13" cx="170.4" cy="170.8" r="35.7"/>
		<circle class="st14" cx="169.3" cy="169.6" r="35.7"/>
		<circle class="st15" cx="168.2" cy="168.4" r="35.7"/>
		<circle class="st16" cx="167" cy="167.2" r="35.7"/>
		<circle class="st17" cx="165.9" cy="166" r="35.7"/>
		<circle class="st18" cx="164.7" cy="164.8" r="35.7"/>
		<circle class="st19" cx="163.6" cy="163.5" r="35.7"/>
		<circle class="st20" cx="162.5" cy="162.3" r="35.7"/>
		<circle class="st21" cx="161.3" cy="161.1" r="35.7"/>
		<circle class="st22" cx="160.2" cy="159.9" r="35.7"/>
		<circle class="st23" cx="159.1" cy="158.7" r="35.7"/>
		<circle class="st24" cx="157.9" cy="157.5" r="35.7"/>
		<circle class="st25" cx="156.8" cy="156.3" r="35.7"/>
		<circle class="st26" cx="155.7" cy="155" r="35.7"/>
		<circle class="st27" cx="154.5" cy="153.8" r="35.7"/>
		<circle class="st28" cx="153.4" cy="152.6" r="35.7"/>
		<circle class="st29" cx="152.2" cy="151.4" r="35.7"/>
		<circle class="st30" cx="151.1" cy="150.2" r="35.7"/>
		<circle class="st31" cx="150" cy="149" r="35.7"/>
		<circle class="st32" cx="148.8" cy="147.8" r="35.7"/>
		<circle class="st33" cx="147.7" cy="146.5" r="35.7"/>
		<circle class="st34" cx="146.6" cy="145.3" r="35.7"/>
		<circle class="st35" cx="145.4" cy="144.1" r="35.7"/>
		<circle class="st36" cx="144.3" cy="142.9" r="35.7"/>
		<circle class="st37" cx="143.1" cy="141.7" r="35.7"/>
		<circle class="st38" cx="142" cy="140.5" r="35.7"/>
		<circle class="st39" cx="140.9" cy="139.3" r="35.7"/>
		<circle class="st40" cx="139.7" cy="138" r="35.7"/>
		<circle class="st41" cx="138.6" cy="136.8" r="35.7"/>
		<circle class="st42" cx="137.5" cy="135.6" r="35.7"/>
		<circle class="st43" cx="136.3" cy="134.4" r="35.7"/>
		<circle class="st44" cx="135.2" cy="133.2" r="35.7"/>
		<circle class="st45" cx="134.1" cy="132" r="35.7"/>
		<circle class="st46" cx="132.9" cy="130.8" r="35.7"/>
		<circle class="st47" cx="131.8" cy="129.5" r="35.7"/>
		<circle class="st48" cx="130.6" cy="128.3" r="35.7"/>
		<circle class="st49" cx="129.5" cy="127.1" r="35.7"/>
		<circle class="st50" cx="128.4" cy="125.9" r="35.7"/>
		<circle class="st51" cx="127.2" cy="124.7" r="35.7"/>
		<circle class="st52" cx="126.1" cy="123.5" r="35.7"/>
	</g>
	<circle class="st53" cx="126" cy="123.9" r="56.7"/>
	<circle class="st54" cx="126" cy="123.9" r="42.5"/>
	<g>
		<g>
			<circle class="st55" cx="126.1" cy="123.8" r="35.8"/>
			<path class="st56" d="M161.9,123.8c0,3.1-1.2,5.5-4.3,6.8c-2.8,1.1-4.2,1-5.9,3.8c-1.2,2.1-1.5,3.7-4,4.6c-2.7,0.9-5.3,0-7.8-0.5
				c-2.8-0.4-5.5,0.1-8,1.7c-2.6,1.7-3.9,5.4-6.5,6.7c-5.3,2.7-10.2-5-14.8-5.9c-3.4-0.7-4.2,0.7-7,2.2
				c-10.1,5.7-12.9-12.9-12.9-19.5c0-19.7,16-35.6,35.6-35.6C146,88.2,161.9,104.1,161.9,123.8z"/>
			<path class="st57" d="M143.5,110.4c-2.6,1.8-2.7,5-2.8,7.9c-0.2,5.6,0.3,14.3-7.1,14.1c-2.6-0.1-4.5-1.9-6.9-1.3
				c-2.5,0.5-4.5,3.1-5.7,5.2c-0.9,1.6-1.7,5.5-3.3,6.3c-2.2,1.1-4.6-3-7.3-3.6c-3.2-0.7-4,0.6-6.6,2.1
				c-9.6,5.4-12.3-12.3-12.3-18.5c0-18.7,15.2-33.9,33.9-33.9c6.6,0,13.2,2,18.7,5.7c2.5,1.7,5.7,4,7.3,6.6
				C152.5,102.9,145.4,109.1,143.5,110.4z"/>
			<path class="st58" d="M122.1,115.9c0.4,1.8,0.4,3.5-0.6,5c-1.3,1.9-3.9,1.2-5.5,2.6c-1.9,1.6-2.3,5-2.5,7.3c-0.2,1.7-0.5,5-2.2,6
				c-1.5,0.8-3.2-0.1-4.8,0.2c-1.1,0.3-2.1,1.2-3.1,1.8c-8.6,4.9-11-11.1-11-16.7c0-11.1,6.3-21.6,16.1-26.9
				c2.6-1.4,13.1-5.9,15.4-3c2.7,3.3-4.6,8.8-5.2,11.8C118.1,107.7,121.2,112.1,122.1,115.9z"/>
			<path class="st59" d="M107.2,118.2c0.2,1.3,0.2,2.6-0.3,3.7c-0.6,1.4-1.9,0.9-2.8,1.9c-1,1.2-1.1,3.7-1.3,5.4
				c-0.1,1.3-0.2,3.7-1.1,4.4c-0.7,0.6-1.6-0.1-2.4,0.2c-0.6,0.2-1,0.9-1.5,1.3c-4.3,3.6-5.5-8.2-5.5-12.3c0-8.3,3.1-16,8.1-19.9
				c1.3-1,6.6-4.4,7.7-2.2c1.3,2.5-2.3,6.5-2.6,8.8C105.2,112.2,106.7,115.4,107.2,118.2z"/>
		</g>
		<g>
			<circle class="st55" cx="126.1" cy="123.8" r="35.8"/>
			<path class="st56" d="M126.1,88c3.1,0,5.5,1.2,6.8,4.3c1.1,2.8,1,4.2,3.8,5.9c2.1,1.2,3.7,1.5,4.6,4c0.9,2.7,0,5.3-0.5,7.8
				c-0.4,2.8,0.1,5.5,1.7,8c1.7,2.6,5.4,3.9,6.7,6.5c2.7,5.3-5,10.2-5.9,14.8c-0.7,3.4,0.7,4.2,2.2,7c5.7,10.1-12.9,12.9-19.5,12.9
				c-19.7,0-35.6-16-35.6-35.6C90.4,104,106.4,88,126.1,88z"/>
			<path class="st57" d="M112.7,106.5c1.8,2.6,5,2.7,7.9,2.8c5.6,0.2,14.3-0.3,14.1,7.1c-0.1,2.6-1.9,4.5-1.3,6.9
				c0.5,2.5,3.1,4.5,5.2,5.7c1.6,0.9,5.5,1.7,6.3,3.3c1.1,2.2-3,4.6-3.6,7.3c-0.7,3.2,0.6,4,2.1,6.6c5.4,9.6-12.3,12.3-18.5,12.3
				c-18.7,0-33.9-15.2-33.9-33.9c0-6.6,2-13.2,5.7-18.7c1.7-2.5,4-5.7,6.6-7.3C105.1,97.5,111.4,104.6,112.7,106.5z"/>
			<path class="st58" d="M118.2,127.8c1.8-0.4,3.5-0.4,5,0.6c1.9,1.3,1.2,3.9,2.6,5.5c1.6,1.9,5,2.3,7.3,2.5c1.7,0.2,5,0.5,6,2.2
				c0.8,1.5-0.1,3.2,0.2,4.8c0.3,1.1,1.2,2.1,1.8,3.1c4.9,8.6-11.1,11-16.6,11c-11.1,0-21.6-6.3-26.9-16.1c-1.4-2.6-5.9-13.2-3-15.4
				c3.3-2.7,8.8,4.6,11.8,5.2C110,131.8,114.3,128.8,118.2,127.8z"/>
			<path class="st59" d="M120.5,142.7c1.3-0.2,2.6-0.2,3.7,0.3c1.4,0.6,0.9,1.9,1.9,2.8c1.2,1,3.7,1.1,5.4,1.3
				c1.3,0.1,3.7,0.2,4.4,1.1c0.6,0.7-0.1,1.6,0.2,2.4c0.2,0.6,0.9,1,1.3,1.5c3.6,4.3-8.2,5.5-12.3,5.5c-8.3,0-16-3.1-19.9-8.1
				c-1-1.3-4.4-6.6-2.2-7.7c2.5-1.3,6.5,2.3,8.8,2.6C114.4,144.7,117.6,143.2,120.5,142.7z"/>
		</g>
	</g>
</g>
</svg>
