<?xml version="1.0" encoding="utf-8"?>
<!-- Generator: Adobe Illustrator 19.2.1, SVG Export Plug-In . SVG Version: 6.00 Build 0)  -->
<svg version="1.1" id="Layer_1" xmlns="http://www.w3.org/2000/svg" xmlns:xlink="http://www.w3.org/1999/xlink" x="0px" y="0px"
	 viewBox="0 0 288 288" style="enable-background:new 0 0 288 288;" xml:space="preserve">
<metadata><?xpacket begin="﻿" id="W5M0MpCehiHzreSzNTczkc9d"?>
<x:xmpmeta xmlns:x="adobe:ns:meta/" x:xmptk="Adobe XMP Core 5.6-c111 79.158366, 2015/09/25-01:12:00        ">
   <rdf:RDF xmlns:rdf="http://www.w3.org/1999/02/22-rdf-syntax-ns#">
      <rdf:Description rdf:about=""/>
   </rdf:RDF>
</x:xmpmeta>
                                                                                                    
                                                                                                    
                                                                                                    
                                                                                                    
                                                                                                    
                                                                                                    
                                                                                                    
                                                                                                    
                                                                                                    
                                                                                                    
                                                                                                    
                                                                                                    
                                                                                                    
                                                                                                    
                                                                                                    
                                                                                                    
                                                                                                    
                                                                                                    
                                                                                                    
                                                                                                    
                           
<?xpacket end="w"?></metadata>
<style type="text/css">
	.st0{opacity:0.4;}
	.st1{opacity:0;fill:#001E2B;}
	.st2{opacity:1.960784e-02;fill:#001E2B;}
	.st3{opacity:3.921569e-02;fill:#001E2B;}
	.st4{opacity:5.882353e-02;fill:#001E2B;}
	.st5{opacity:7.843138e-02;fill:#001E2B;}
	.st6{opacity:9.803922e-02;fill:#001E2B;}
	.st7{opacity:0.1176;fill:#001E2B;}
	.st8{opacity:0.1373;fill:#001E2B;}
	.st9{opacity:0.1569;fill:#001E2B;}
	.st10{opacity:0.1765;fill:#001E2B;}
	.st11{opacity:0.1961;fill:#001E2B;}
	.st12{opacity:0.2157;fill:#001E2B;}
	.st13{opacity:0.2353;fill:#001E2B;}
	.st14{opacity:0.2549;fill:#001E2B;}
	.st15{opacity:0.2745;fill:#001E2B;}
	.st16{opacity:0.2941;fill:#001E2B;}
	.st17{opacity:0.3137;fill:#001E2B;}
	.st18{opacity:0.3333;fill:#001E2B;}
	.st19{opacity:0.3529;fill:#001E2B;}
	.st20{opacity:0.3725;fill:#001E2B;}
	.st21{opacity:0.3922;fill:#001E2B;}
	.st22{opacity:0.4118;fill:#001E2B;}
	.st23{opacity:0.4314;fill:#001E2B;}
	.st24{opacity:0.451;fill:#001E2B;}
	.st25{opacity:0.4706;fill:#001E2B;}
	.st26{opacity:0.4902;fill:#001E2B;}
	.st27{opacity:0.5098;fill:#001E2B;}
	.st28{opacity:0.5294;fill:#001E2B;}
	.st29{opacity:0.549;fill:#001E2B;}
	.st30{opacity:0.5686;fill:#001E2B;}
	.st31{opacity:0.5882;fill:#001E2B;}
	.st32{opacity:0.6078;fill:#001E2B;}
	.st33{opacity:0.6275;fill:#001E2B;}
	.st34{opacity:0.6471;fill:#001E2B;}
	.st35{opacity:0.6667;fill:#001E2B;}
	.st36{opacity:0.6863;fill:#001E2B;}
	.st37{opacity:0.7059;fill:#001E2B;}
	.st38{opacity:0.7255;fill:#001E2B;}
	.st39{opacity:0.7451;fill:#001E2B;}
	.st40{opacity:0.7647;fill:#001E2B;}
	.st41{opacity:0.7843;fill:#001E2B;}
	.st42{opacity:0.8039;fill:#001E2B;}
	.st43{opacity:0.8235;fill:#001E2B;}
	.st44{opacity:0.8431;fill:#001E2B;}
	.st45{opacity:0.8627;fill:#001E2B;}
	.st46{opacity:0.8824;fill:#001E2B;}
	.st47{opacity:0.902;fill:#001E2B;}
	.st48{opacity:0.9216;fill:#001E2B;}
	.st49{opacity:0.9412;fill:#001E2B;}
	.st50{opacity:0.9608;fill:#001E2B;}
	.st51{opacity:0.9804;fill:#001E2B;}
	.st52{fill:#001E2B;}
	.st53{opacity:0.1;fill:#FBAE3B;}
	.st54{fill:#69B595;}
	.st55{fill:#658997;}
	.st56{fill:#964065;}
	.st57{fill:#E57B63;}
	.st58{fill:#F5EF78;}
	.st59{opacity:0.43;}
</style>
<g>
	<g class="st0">
		<circle class="st1" cx="168.8" cy="170.8" r="25.4"/>
		<circle class="st2" cx="168" cy="169.9" r="25.4"/>
		<circle class="st3" cx="167.2" cy="169.1" r="25.4"/>
		<circle class="st4" cx="166.4" cy="168.2" r="25.4"/>
		<circle class="st5" cx="165.6" cy="167.3" r="25.4"/>
		<circle class="st6" cx="164.8" cy="166.5" r="25.4"/>
		<circle class="st7" cx="164" cy="165.6" r="25.4"/>
		<circle class="st8" cx="163.2" cy="164.7" r="25.4"/>
		<circle class="st9" cx="162.4" cy="163.9" r="25.4"/>
		<circle class="st10" cx="161.6" cy="163" r="25.4"/>
		<circle class="st11" cx="160.8" cy="162.1" r="25.4"/>
		<circle class="st12" cx="159.9" cy="161.3" r="25.4"/>
		<circle class="st13" cx="159.1" cy="160.4" r="25.4"/>
		<circle class="st14" cx="158.3" cy="159.6" r="25.4"/>
		<circle class="st15" cx="157.5" cy="158.7" r="25.4"/>
		<circle class="st16" cx="156.7" cy="157.8" r="25.4"/>
		<circle class="st17" cx="155.9" cy="157" r="25.4"/>
		<circle class="st18" cx="155.1" cy="156.1" r="25.4"/>
		<circle class="st19" cx="154.3" cy="155.2" r="25.4"/>
		<circle class="st20" cx="153.5" cy="154.4" r="25.4"/>
		<circle class="st21" cx="152.7" cy="153.5" r="25.4"/>
		<circle class="st22" cx="151.9" cy="152.7" r="25.4"/>
		<circle class="st23" cx="151.1" cy="151.8" r="25.4"/>
		<circle class="st24" cx="150.3" cy="150.9" r="25.4"/>
		<circle class="st25" cx="149.4" cy="150.1" r="25.4"/>
		<circle class="st26" cx="148.6" cy="149.2" r="25.4"/>
		<circle class="st27" cx="147.8" cy="148.3" r="25.4"/>
		<circle class="st28" cx="147" cy="147.5" r="25.4"/>
		<circle class="st29" cx="146.2" cy="146.6" r="25.4"/>
		<circle class="st30" cx="145.4" cy="145.7" r="25.4"/>
		<circle class="st31" cx="144.6" cy="144.9" r="25.4"/>
		<circle class="st32" cx="143.8" cy="144" r="25.4"/>
		<circle class="st33" cx="143" cy="143.2" r="25.4"/>
		<circle class="st34" cx="142.2" cy="142.3" r="25.4"/>
		<circle class="st35" cx="141.4" cy="141.4" r="25.4"/>
		<circle class="st36" cx="140.6" cy="140.6" r="25.4"/>
		<circle class="st37" cx="139.7" cy="139.7" r="25.4"/>
		<circle class="st38" cx="138.9" cy="138.8" r="25.4"/>
		<circle class="st39" cx="138.1" cy="138" r="25.4"/>
		<circle class="st40" cx="137.3" cy="137.1" r="25.4"/>
		<circle class="st41" cx="136.5" cy="136.2" r="25.4"/>
		<circle class="st42" cx="135.7" cy="135.4" r="25.4"/>
		<circle class="st43" cx="134.9" cy="134.5" r="25.4"/>
		<circle class="st44" cx="134.1" cy="133.7" r="25.4"/>
		<circle class="st45" cx="133.3" cy="132.8" r="25.4"/>
		<circle class="st46" cx="132.5" cy="131.9" r="25.4"/>
		<circle class="st47" cx="131.7" cy="131.1" r="25.4"/>
		<circle class="st48" cx="130.9" cy="130.2" r="25.4"/>
		<circle class="st49" cx="130" cy="129.3" r="25.4"/>
		<circle class="st50" cx="129.2" cy="128.5" r="25.4"/>
		<circle class="st51" cx="128.4" cy="127.6" r="25.4"/>
		<circle class="st52" cx="127.6" cy="126.8" r="25.4"/>
	</g>
	<circle class="st53" cx="127.6" cy="127" r="33.6"/>
	<circle class="st53" cx="127.6" cy="127" r="30.2"/>
	<g>
		<g>
			<circle class="st54" cx="127.5" cy="127.2" r="25.5"/>
			<path class="st55" d="M153,127.2c0,2.2-0.8,3.9-3.1,4.8c-2,0.8-3,0.7-4.2,2.7c-0.9,1.5-1.1,2.6-2.9,3.2c-1.9,0.6-3.7,0-5.6-0.3
				c-2-0.3-3.9,0.1-5.7,1.2c-1.9,1.2-2.8,3.8-4.6,4.8c-3.8,1.9-7.3-3.5-10.5-4.2c-2.4-0.5-3,0.5-4.9,1.6c-7.2,4.1-9.2-9.2-9.2-13.9
				c0-14,11.3-25.3,25.3-25.3C141.6,101.9,153,113.2,153,127.2z"/>
			<path class="st56" d="M139.9,117.7c-1.8,1.3-1.9,3.6-2,5.6c-0.2,4,0.2,10.1-5.1,10c-1.8,0-3.2-1.3-4.9-1c-1.8,0.4-3.2,2.2-4,3.7
				c-0.6,1.1-1.2,3.9-2.4,4.5c-1.5,0.8-3.2-2.1-5.2-2.5c-2.3-0.5-2.9,0.5-4.7,1.5c-6.8,3.9-8.7-8.7-8.7-13.2
				c0-13.3,10.8-24.1,24.1-24.1c4.7,0,9.4,1.4,13.3,4c1.8,1.2,4,2.8,5.2,4.7C146.3,112.3,141.2,116.8,139.9,117.7z"/>
			<path class="st57" d="M124.7,121.6c0.3,1.3,0.3,2.5-0.4,3.5c-0.9,1.4-2.8,0.9-3.9,1.8c-1.4,1.1-1.6,3.6-1.8,5.2
				c-0.1,1.2-0.3,3.6-1.6,4.3c-1.1,0.6-2.3-0.1-3.4,0.2c-0.8,0.2-1.5,0.9-2.2,1.3c-6.1,3.5-7.9-7.9-7.9-11.8
				c0-7.9,4.5-15.4,11.5-19.1c1.9-1,9.3-4.2,11-2.2c1.9,2.4-3.2,6.2-3.7,8.4C121.8,115.8,124,118.9,124.7,121.6z"/>
			<path class="st58" d="M115.4,122.6c0.2,0.9,0.2,1.8-0.2,2.6c-0.5,1-1.4,0.7-2,1.4c-0.7,0.8-0.8,2.6-0.9,3.8
				c-0.1,0.9-0.2,2.6-0.8,3.1c-0.5,0.4-1.1-0.1-1.7,0.1c-0.4,0.1-0.7,0.6-1.1,0.9c-3.1,2.6-3.9-5.8-3.9-8.8c0-5.9,2.2-11.4,5.7-14.1
				c0.9-0.7,4.7-3.1,5.5-1.6c0.9,1.8-1.6,4.6-1.8,6.2C114,118.3,115.1,120.5,115.4,122.6z"/>
		</g>
		<g class="st59">
			<circle class="st54" cx="127.5" cy="127.2" r="25.5"/>
			<path class="st55" d="M127.5,101.8c2.2,0,3.9,0.8,4.8,3.1c0.8,2,0.7,3,2.7,4.2c1.5,0.9,2.6,1.1,3.2,2.9c0.6,1.9,0,3.7-0.3,5.6
				c-0.3,2,0.1,3.9,1.2,5.7c1.2,1.9,3.8,2.8,4.8,4.6c1.9,3.8-3.5,7.3-4.2,10.5c-0.5,2.4,0.5,3,1.6,4.9c4.1,7.2-9.2,9.2-13.9,9.2
				c-14,0-25.3-11.3-25.3-25.3C102.1,113.1,113.5,101.8,127.5,101.8z"/>
			<path class="st56" d="M118,114.9c1.3,1.8,3.6,1.9,5.6,2c4,0.2,10.1-0.2,10,5.1c0,1.8-1.3,3.2-1,4.9c0.4,1.8,2.2,3.2,3.7,4
				c1.1,0.6,3.9,1.2,4.5,2.4c0.8,1.5-2.1,3.2-2.5,5.2c-0.5,2.3,0.5,2.9,1.5,4.7c3.9,6.8-8.7,8.7-13.2,8.7
				c-13.3,0-24.1-10.8-24.1-24.1c0-4.7,1.4-9.4,4-13.3c1.2-1.8,2.8-4,4.7-5.2C112.6,108.5,117,113.5,118,114.9z"/>
			<path class="st57" d="M121.9,130c1.3-0.3,2.5-0.3,3.5,0.4c1.4,0.9,0.9,2.8,1.8,3.9c1.1,1.4,3.6,1.6,5.2,1.8
				c1.2,0.1,3.6,0.3,4.3,1.6c0.6,1.1-0.1,2.3,0.2,3.4c0.2,0.8,0.9,1.5,1.3,2.2c3.5,6.1-7.9,7.9-11.8,7.9c-7.9,0-15.4-4.5-19.1-11.5
				c-1-1.9-4.2-9.3-2.2-11c2.4-1.9,6.2,3.2,8.4,3.7C116,132.9,119.1,130.7,121.9,130z"/>
			<path class="st58" d="M122.8,139.3c0.9-0.2,1.8-0.2,2.6,0.2c1,0.5,0.7,1.4,1.4,2c0.8,0.7,2.6,0.8,3.8,0.9
				c0.9,0.1,2.6,0.2,3.1,0.8c0.4,0.5-0.1,1.1,0.1,1.7c0.1,0.4,0.6,0.7,0.9,1.1c2.6,3.1-5.8,3.9-8.8,3.9c-5.9,0-11.4-2.2-14.1-5.7
				c-0.7-0.9-3.1-4.7-1.6-5.5c1.8-0.9,4.6,1.6,6.2,1.8C118.5,140.8,120.8,139.7,122.8,139.3z"/>
		</g>
	</g>
</g>
</svg>
