<?xml version="1.0" encoding="utf-8"?>
<!-- Generator: Adobe Illustrator 19.2.1, SVG Export Plug-In . SVG Version: 6.00 Build 0)  -->
<svg version="1.1" id="Layer_1" xmlns="http://www.w3.org/2000/svg" xmlns:xlink="http://www.w3.org/1999/xlink" x="0px" y="0px"
	 viewBox="0 0 288 288" style="enable-background:new 0 0 288 288;" xml:space="preserve">
<metadata><?xpacket begin="﻿" id="W5M0MpCehiHzreSzNTczkc9d"?>
<x:xmpmeta xmlns:x="adobe:ns:meta/" x:xmptk="Adobe XMP Core 5.6-c111 79.158366, 2015/09/25-01:12:00        ">
   <rdf:RDF xmlns:rdf="http://www.w3.org/1999/02/22-rdf-syntax-ns#">
      <rdf:Description rdf:about=""/>
   </rdf:RDF>
</x:xmpmeta>
                                                                                                    
                                                                                                    
                                                                                                    
                                                                                                    
                                                                                                    
                                                                                                    
                                                                                                    
                                                                                                    
                                                                                                    
                                                                                                    
                                                                                                    
                                                                                                    
                                                                                                    
                                                                                                    
                                                                                                    
                                                                                                    
                                                                                                    
                                                                                                    
                                                                                                    
                                                                                                    
                           
<?xpacket end="w"?></metadata>
<style type="text/css">
	.st0{opacity:0.4;}
	.st1{opacity:0;fill:#001E2B;}
	.st2{opacity:1.960784e-02;fill:#001E2B;}
	.st3{opacity:3.921569e-02;fill:#001E2B;}
	.st4{opacity:5.882353e-02;fill:#001E2B;}
	.st5{opacity:7.843138e-02;fill:#001E2B;}
	.st6{opacity:9.803922e-02;fill:#001E2B;}
	.st7{opacity:0.1176;fill:#001E2B;}
	.st8{opacity:0.1373;fill:#001E2B;}
	.st9{opacity:0.1569;fill:#001E2B;}
	.st10{opacity:0.1765;fill:#001E2B;}
	.st11{opacity:0.1961;fill:#001E2B;}
	.st12{opacity:0.2157;fill:#001E2B;}
	.st13{opacity:0.2353;fill:#001E2B;}
	.st14{opacity:0.2549;fill:#001E2B;}
	.st15{opacity:0.2745;fill:#001E2B;}
	.st16{opacity:0.2941;fill:#001E2B;}
	.st17{opacity:0.3137;fill:#001E2B;}
	.st18{opacity:0.3333;fill:#001E2B;}
	.st19{opacity:0.3529;fill:#001E2B;}
	.st20{opacity:0.3725;fill:#001E2B;}
	.st21{opacity:0.3922;fill:#001E2B;}
	.st22{opacity:0.4118;fill:#001E2B;}
	.st23{opacity:0.4314;fill:#001E2B;}
	.st24{opacity:0.451;fill:#001E2B;}
	.st25{opacity:0.4706;fill:#001E2B;}
	.st26{opacity:0.4902;fill:#001E2B;}
	.st27{opacity:0.5098;fill:#001E2B;}
	.st28{opacity:0.5294;fill:#001E2B;}
	.st29{opacity:0.549;fill:#001E2B;}
	.st30{opacity:0.5686;fill:#001E2B;}
	.st31{opacity:0.5882;fill:#001E2B;}
	.st32{opacity:0.6078;fill:#001E2B;}
	.st33{opacity:0.6275;fill:#001E2B;}
	.st34{opacity:0.6471;fill:#001E2B;}
	.st35{opacity:0.6667;fill:#001E2B;}
	.st36{opacity:0.6863;fill:#001E2B;}
	.st37{opacity:0.7059;fill:#001E2B;}
	.st38{opacity:0.7255;fill:#001E2B;}
	.st39{opacity:0.7451;fill:#001E2B;}
	.st40{opacity:0.7647;fill:#001E2B;}
	.st41{opacity:0.7843;fill:#001E2B;}
	.st42{opacity:0.8039;fill:#001E2B;}
	.st43{opacity:0.8235;fill:#001E2B;}
	.st44{opacity:0.8431;fill:#001E2B;}
	.st45{opacity:0.8627;fill:#001E2B;}
	.st46{opacity:0.8824;fill:#001E2B;}
	.st47{opacity:0.902;fill:#001E2B;}
	.st48{opacity:0.9216;fill:#001E2B;}
	.st49{opacity:0.9412;fill:#001E2B;}
	.st50{opacity:0.9608;fill:#001E2B;}
	.st51{opacity:0.9804;fill:#001E2B;}
	.st52{fill:#001E2B;}
	.st53{opacity:0.1;fill:#FBAE3B;}
	.st54{fill:#00478C;}
	.st55{fill:#0054A6;}
	.st56{fill:#0076BE;}
	.st57{fill:#5EAEE0;}
	.st58{fill:#8CC6EC;}
</style>
<g>
	<g class="st0">
		<circle class="st1" cx="205" cy="208.5" r="62.7"/>
		<circle class="st2" cx="203" cy="206.4" r="62.7"/>
		<circle class="st3" cx="201" cy="204.3" r="62.7"/>
		<circle class="st4" cx="199" cy="202.1" r="62.7"/>
		<circle class="st5" cx="197" cy="200" r="62.7"/>
		<circle class="st6" cx="195" cy="197.9" r="62.7"/>
		<circle class="st7" cx="193" cy="195.7" r="62.7"/>
		<circle class="st8" cx="191" cy="193.6" r="62.7"/>
		<circle class="st9" cx="189" cy="191.5" r="62.7"/>
		<circle class="st10" cx="187" cy="189.3" r="62.7"/>
		<circle class="st11" cx="185" cy="187.2" r="62.7"/>
		<circle class="st12" cx="183" cy="185.1" r="62.7"/>
		<circle class="st13" cx="181" cy="182.9" r="62.7"/>
		<circle class="st14" cx="179" cy="180.8" r="62.7"/>
		<circle class="st15" cx="177" cy="178.7" r="62.7"/>
		<circle class="st16" cx="175" cy="176.5" r="62.7"/>
		<circle class="st17" cx="173.1" cy="174.4" r="62.7"/>
		<circle class="st18" cx="171.1" cy="172.3" r="62.7"/>
		<circle class="st19" cx="169.1" cy="170.1" r="62.7"/>
		<circle class="st20" cx="167.1" cy="168" r="62.7"/>
		<circle class="st21" cx="165.1" cy="165.9" r="62.7"/>
		<circle class="st22" cx="163.1" cy="163.7" r="62.7"/>
		<circle class="st23" cx="161.1" cy="161.6" r="62.7"/>
		<circle class="st24" cx="159.1" cy="159.4" r="62.7"/>
		<circle class="st25" cx="157.1" cy="157.3" r="62.7"/>
		<circle class="st26" cx="155.1" cy="155.2" r="62.7"/>
		<circle class="st27" cx="153.1" cy="153" r="62.7"/>
		<circle class="st28" cx="151.1" cy="150.9" r="62.7"/>
		<circle class="st29" cx="149.1" cy="148.8" r="62.7"/>
		<circle class="st30" cx="147.1" cy="146.6" r="62.7"/>
		<circle class="st31" cx="145.1" cy="144.5" r="62.7"/>
		<circle class="st32" cx="143.1" cy="142.4" r="62.7"/>
		<circle class="st33" cx="141.1" cy="140.2" r="62.7"/>
		<circle class="st34" cx="139.1" cy="138.1" r="62.7"/>
		<circle class="st35" cx="137.1" cy="136" r="62.7"/>
		<circle class="st36" cx="135.1" cy="133.8" r="62.7"/>
		<circle class="st37" cx="133.1" cy="131.7" r="62.7"/>
		<circle class="st38" cx="131.1" cy="129.6" r="62.7"/>
		<circle class="st39" cx="129.1" cy="127.4" r="62.7"/>
		<circle class="st40" cx="127.1" cy="125.3" r="62.7"/>
		<circle class="st41" cx="125.1" cy="123.2" r="62.7"/>
		<circle class="st42" cx="123.1" cy="121" r="62.7"/>
		<circle class="st43" cx="121.1" cy="118.9" r="62.7"/>
		<circle class="st44" cx="119.1" cy="116.8" r="62.7"/>
		<circle class="st45" cx="117.1" cy="114.6" r="62.7"/>
		<circle class="st46" cx="115.1" cy="112.5" r="62.7"/>
		<circle class="st47" cx="113.1" cy="110.4" r="62.7"/>
		<circle class="st48" cx="111.1" cy="108.2" r="62.7"/>
		<circle class="st49" cx="109.1" cy="106.1" r="62.7"/>
		<circle class="st50" cx="107.1" cy="103.9" r="62.7"/>
		<circle class="st51" cx="105.1" cy="101.8" r="62.7"/>
		<circle class="st52" cx="103.1" cy="99.7" r="62.7"/>
	</g>
	<circle class="st53" cx="102.9" cy="100.4" r="83.1"/>
	<circle class="st53" cx="102.9" cy="100.4" r="74.8"/>
	<g>
		<g>
			<circle class="st54" cx="102.3" cy="101.4" r="63"/>
			<path class="st55" d="M165.3,101.3c0,5.5-2.1,9.7-7.6,11.9c-4.9,2-7.5,1.7-10.4,6.7c-2.2,3.7-2.6,6.5-7.1,8
				c-4.7,1.6-9.2-0.1-13.7-0.8c-4.8-0.8-9.6,0.2-14.1,3.1c-4.6,2.9-6.8,9.5-11.5,11.9c-9.3,4.8-18-8.8-26-10.4
				c-6-1.2-7.5,1.2-12.2,3.9C45,145.6,40,112.8,40,101.3c0-34.6,28-62.7,62.7-62.7C137.2,38.7,165.3,66.7,165.3,101.3z"/>
			<path class="st56" d="M132.9,77.8c-4.5,3.2-4.7,8.9-4.9,13.9c-0.4,9.8,0.5,25.1-12.6,24.8c-4.6-0.1-7.8-3.3-12.2-2.4
				c-4.4,0.9-8,5.4-10,9.1c-1.5,2.8-2.9,9.6-5.9,11.1c-3.8,2-8-5.3-12.9-6.3c-5.7-1.2-7.1,1.1-11.6,3.7
				c-16.8,9.6-21.6-21.6-21.6-32.5c0-32.9,26.7-59.5,59.5-59.5c11.7,0,23.2,3.5,33,9.9c4.5,3,10,7,12.9,11.6
				C148.7,64.5,136.2,75.5,132.9,77.8z"/>
			<path class="st57" d="M95.4,87.5c0.8,3.1,0.8,6.1-1,8.7c-2.3,3.4-6.8,2.2-9.7,4.5c-3.4,2.7-4,8.8-4.4,12.8c-0.4,3-0.8,8.8-4,10.5
				c-2.6,1.5-5.6-0.2-8.4,0.4c-2,0.5-3.6,2.1-5.4,3.1c-15.1,8.6-19.4-19.4-19.4-29.3c0-19.6,11.1-38,28.3-47.3
				c4.6-2.4,23.1-10.4,27.1-5.3c4.7,5.9-8,15.4-9.1,20.8C88.3,73.1,93.7,80.6,95.4,87.5z"/>
			<path class="st58" d="M72.4,89.9c0.4,2.3,0.4,4.5-0.5,6.5c-1.1,2.5-3.4,1.6-4.9,3.3c-1.7,2-2,6.5-2.2,9.4c-0.2,2.2-0.4,6.5-2,7.8
				c-1.3,1.1-2.8-0.2-4.2,0.3c-1,0.4-1.8,1.6-2.7,2.3c-7.6,6.4-9.7-14.4-9.7-21.7c0-14.5,5.5-28.1,14.2-35
				c2.3-1.8,11.6-7.7,13.6-3.9c2.3,4.4-4,11.4-4.5,15.4C68.9,79.2,71.6,84.8,72.4,89.9z"/>
		</g>
		<g>
			<circle class="st54" cx="102.3" cy="101.4" r="63"/>
			<path class="st55" d="M102.3,38.4c5.5,0,9.7,2.1,11.9,7.6c2,4.9,1.7,7.5,6.7,10.4c3.7,2.2,6.5,2.6,8,7.1
				c1.6,4.7-0.1,9.2-0.8,13.7c-0.8,4.8,0.2,9.6,3.1,14.1c2.9,4.6,9.5,6.8,11.9,11.5c4.8,9.3-8.8,18-10.4,26c-1.2,6,1.2,7.5,3.9,12.2
				c10.1,17.7-22.8,22.7-34.3,22.7c-34.6,0-62.7-28-62.7-62.7C39.6,66.5,67.7,38.4,102.3,38.4z"/>
			<path class="st56" d="M78.7,70.8c3.2,4.5,8.9,4.7,13.9,4.9c9.8,0.4,25.1-0.5,24.8,12.6c-0.1,4.6-3.3,7.8-2.4,12.2
				c0.9,4.4,5.4,8,9.1,10c2.8,1.5,9.6,2.9,11.1,5.9c2,3.8-5.3,8-6.3,12.9c-1.2,5.7,1.1,7.1,3.7,11.6c9.6,16.8-21.6,21.6-32.5,21.6
				c-32.9,0-59.5-26.7-59.5-59.5c0-11.7,3.5-23.2,9.9-33c3-4.5,7-10,11.6-12.9C65.5,55,76.4,67.5,78.7,70.8z"/>
			<path class="st57" d="M88.4,108.3c3.1-0.8,6.1-0.8,8.7,1c3.4,2.3,2.2,6.8,4.5,9.7c2.7,3.4,8.8,4,12.8,4.4c3,0.4,8.8,0.8,10.5,4
				c1.5,2.6-0.2,5.6,0.4,8.4c0.5,2,2.1,3.6,3.1,5.4c8.6,15.1-19.4,19.4-29.3,19.4c-19.6,0-38-11.1-47.3-28.3
				c-2.4-4.6-10.4-23.1-5.3-27.1c5.9-4.7,15.4,8,20.8,9.1C74,115.4,81.6,110,88.4,108.3z"/>
			<path class="st58" d="M90.8,131.2c2.3-0.4,4.5-0.4,6.5,0.5c2.5,1.1,1.6,3.4,3.3,4.9c2,1.7,6.5,2,9.4,2.2c2.2,0.2,6.5,0.4,7.8,2
				c1.1,1.3-0.2,2.8,0.3,4.2c0.4,1,1.6,1.8,2.3,2.7c6.4,7.6-14.4,9.7-21.7,9.7c-14.5,0-28.1-5.5-35-14.2c-1.8-2.3-7.7-11.6-3.9-13.6
				c4.4-2.3,11.4,4,15.4,4.5C80.1,134.8,85.8,132.1,90.8,131.2z"/>
		</g>
	</g>
</g>
</svg>
