<?xml version="1.0" encoding="utf-8"?>
<!-- Generator: Adobe Illustrator 19.2.1, SVG Export Plug-In . SVG Version: 6.00 Build 0)  -->
<svg version="1.1" id="Layer_1" xmlns="http://www.w3.org/2000/svg" xmlns:xlink="http://www.w3.org/1999/xlink" x="0px" y="0px"
	 viewBox="0 0 355 297" style="enable-background:new 0 0 355 297;" xml:space="preserve">
<metadata><?xpacket begin="﻿" id="W5M0MpCehiHzreSzNTczkc9d"?>
<x:xmpmeta xmlns:x="adobe:ns:meta/" x:xmptk="Adobe XMP Core 5.6-c111 79.158366, 2015/09/25-01:12:00        ">
   <rdf:RDF xmlns:rdf="http://www.w3.org/1999/02/22-rdf-syntax-ns#">
      <rdf:Description rdf:about=""/>
   </rdf:RDF>
</x:xmpmeta>
                                                                                                    
                                                                                                    
                                                                                                    
                                                                                                    
                                                                                                    
                                                                                                    
                                                                                                    
                                                                                                    
                                                                                                    
                                                                                                    
                                                                                                    
                                                                                                    
                                                                                                    
                                                                                                    
                                                                                                    
                                                                                                    
                                                                                                    
                                                                                                    
                                                                                                    
                                                                                                    
                           
<?xpacket end="w"?></metadata>
<style type="text/css">
	.st0{opacity:0.4;}
	.st1{opacity:0;fill:#001E2B;}
	.st2{opacity:1.960784e-02;fill:#001E2B;}
	.st3{opacity:3.921569e-02;fill:#001E2B;}
	.st4{opacity:5.882353e-02;fill:#001E2B;}
	.st5{opacity:7.843138e-02;fill:#001E2B;}
	.st6{opacity:9.803922e-02;fill:#001E2B;}
	.st7{opacity:0.1176;fill:#001E2B;}
	.st8{opacity:0.1373;fill:#001E2B;}
	.st9{opacity:0.1569;fill:#001E2B;}
	.st10{opacity:0.1765;fill:#001E2B;}
	.st11{opacity:0.1961;fill:#001E2B;}
	.st12{opacity:0.2157;fill:#001E2B;}
	.st13{opacity:0.2353;fill:#001E2B;}
	.st14{opacity:0.2549;fill:#001E2B;}
	.st15{opacity:0.2745;fill:#001E2B;}
	.st16{opacity:0.2941;fill:#001E2B;}
	.st17{opacity:0.3137;fill:#001E2B;}
	.st18{opacity:0.3333;fill:#001E2B;}
	.st19{opacity:0.3529;fill:#001E2B;}
	.st20{opacity:0.3725;fill:#001E2B;}
	.st21{opacity:0.3922;fill:#001E2B;}
	.st22{opacity:0.4118;fill:#001E2B;}
	.st23{opacity:0.4314;fill:#001E2B;}
	.st24{opacity:0.451;fill:#001E2B;}
	.st25{opacity:0.4706;fill:#001E2B;}
	.st26{opacity:0.4902;fill:#001E2B;}
	.st27{opacity:0.5098;fill:#001E2B;}
	.st28{opacity:0.5294;fill:#001E2B;}
	.st29{opacity:0.549;fill:#001E2B;}
	.st30{opacity:0.5686;fill:#001E2B;}
	.st31{opacity:0.5882;fill:#001E2B;}
	.st32{opacity:0.6078;fill:#001E2B;}
	.st33{opacity:0.6275;fill:#001E2B;}
	.st34{opacity:0.6471;fill:#001E2B;}
	.st35{opacity:0.6667;fill:#001E2B;}
	.st36{opacity:0.6863;fill:#001E2B;}
	.st37{opacity:0.7059;fill:#001E2B;}
	.st38{opacity:0.7255;fill:#001E2B;}
	.st39{opacity:0.7451;fill:#001E2B;}
	.st40{opacity:0.7647;fill:#001E2B;}
	.st41{opacity:0.7843;fill:#001E2B;}
	.st42{opacity:0.8039;fill:#001E2B;}
	.st43{opacity:0.8235;fill:#001E2B;}
	.st44{opacity:0.8431;fill:#001E2B;}
	.st45{opacity:0.8627;fill:#001E2B;}
	.st46{opacity:0.8824;fill:#001E2B;}
	.st47{opacity:0.902;fill:#001E2B;}
	.st48{opacity:0.9216;fill:#001E2B;}
	.st49{opacity:0.9412;fill:#001E2B;}
	.st50{opacity:0.9608;fill:#001E2B;}
	.st51{opacity:0.9804;fill:#001E2B;}
	.st52{fill:#001E2B;}
	.st53{opacity:5.000000e-02;fill:#FBAE3B;}
	.st54{opacity:0.1;fill:#FBAE3B;}
	.st55{fill:#978074;}
	.st56{fill:#F4C39F;}
	.st57{fill:#F9A67B;}
	.st58{fill:#F8FBEE;}
	.st59{fill:#C19E83;}
	.st60{opacity:0.5;}
	.st61{opacity:0.7;}
	.st62{fill:#00B2BF;}
</style>
<g>
	<g class="st0">
		<circle class="st1" cx="285.8" cy="230.2" r="66.7"/>
		<circle class="st2" cx="283.6" cy="227.9" r="66.7"/>
		<circle class="st3" cx="281.5" cy="225.6" r="66.7"/>
		<circle class="st4" cx="279.4" cy="223.4" r="66.7"/>
		<circle class="st5" cx="277.2" cy="221.1" r="66.7"/>
		<circle class="st6" cx="275.1" cy="218.8" r="66.7"/>
		<circle class="st7" cx="273" cy="216.6" r="66.7"/>
		<circle class="st8" cx="270.9" cy="214.3" r="66.7"/>
		<circle class="st9" cx="268.7" cy="212" r="66.7"/>
		<circle class="st10" cx="266.6" cy="209.7" r="66.7"/>
		<circle class="st11" cx="264.5" cy="207.5" r="66.7"/>
		<circle class="st12" cx="262.4" cy="205.2" r="66.7"/>
		<circle class="st13" cx="260.2" cy="202.9" r="66.7"/>
		<circle class="st14" cx="258.1" cy="200.7" r="66.7"/>
		<circle class="st15" cx="256" cy="198.4" r="66.7"/>
		<circle class="st16" cx="253.9" cy="196.1" r="66.7"/>
		<circle class="st17" cx="251.7" cy="193.8" r="66.7"/>
		<circle class="st18" cx="249.6" cy="191.6" r="66.7"/>
		<circle class="st19" cx="247.5" cy="189.3" r="66.7"/>
		<circle class="st20" cx="245.4" cy="187" r="66.7"/>
		<circle class="st21" cx="243.2" cy="184.8" r="66.7"/>
		<circle class="st22" cx="241.1" cy="182.5" r="66.7"/>
		<circle class="st23" cx="239" cy="180.2" r="66.7"/>
		<circle class="st24" cx="236.8" cy="177.9" r="66.7"/>
		<circle class="st25" cx="234.7" cy="175.7" r="66.7"/>
		<circle class="st26" cx="232.6" cy="173.4" r="66.7"/>
		<circle class="st27" cx="230.5" cy="171.1" r="66.7"/>
		<circle class="st28" cx="228.3" cy="168.8" r="66.7"/>
		<circle class="st29" cx="226.2" cy="166.6" r="66.7"/>
		<circle class="st30" cx="224.1" cy="164.3" r="66.7"/>
		<circle class="st31" cx="222" cy="162" r="66.7"/>
		<circle class="st32" cx="219.8" cy="159.8" r="66.7"/>
		<circle class="st33" cx="217.7" cy="157.5" r="66.7"/>
		<circle class="st34" cx="215.6" cy="155.2" r="66.7"/>
		<circle class="st35" cx="213.5" cy="152.9" r="66.7"/>
		<circle class="st36" cx="211.3" cy="150.7" r="66.7"/>
		<circle class="st37" cx="209.2" cy="148.4" r="66.7"/>
		<circle class="st38" cx="207.1" cy="146.1" r="66.7"/>
		<circle class="st39" cx="205" cy="143.9" r="66.7"/>
		<circle class="st40" cx="202.8" cy="141.6" r="66.7"/>
		<circle class="st41" cx="200.7" cy="139.3" r="66.7"/>
		<circle class="st42" cx="198.6" cy="137" r="66.7"/>
		<circle class="st43" cx="196.4" cy="134.8" r="66.7"/>
		<circle class="st44" cx="194.3" cy="132.5" r="66.7"/>
		<circle class="st45" cx="192.2" cy="130.2" r="66.7"/>
		<circle class="st46" cx="190.1" cy="128" r="66.7"/>
		<circle class="st47" cx="187.9" cy="125.7" r="66.7"/>
		<circle class="st48" cx="185.8" cy="123.4" r="66.7"/>
		<circle class="st49" cx="183.7" cy="121.1" r="66.7"/>
		<circle class="st50" cx="181.6" cy="118.9" r="66.7"/>
		<circle class="st51" cx="179.4" cy="116.6" r="66.7"/>
		<circle class="st52" cx="177.3" cy="114.3" r="66.7"/>
	</g>
	<circle class="st53" cx="177.1" cy="115.1" r="106.1"/>
	<circle class="st54" cx="177.1" cy="115.1" r="79.6"/>
	<g>
		<g>
			
				<ellipse transform="matrix(0.7021 -0.7121 0.7121 0.7021 -28.9583 160.1934)" class="st55" cx="177" cy="114.7" rx="67" ry="67"/>
			<path class="st56" d="M224.7,161.7c-4.1,4.2-8.8,5.8-14.6,3.4c-5.2-2.2-6.9-4.3-12.9-2.7c-4.4,1.2-6.9,3-11.4,0.8
				c-4.8-2.4-6.9-7-9.8-10.9c-3.1-4.2-7.5-7-13-8.2c-5.7-1.3-12.3,2.1-17.5,0.4c-10.6-3.3-7.1-20-11.9-27.3
				c-3.6-5.4-6.5-4.7-12.2-6.2c-20.9-5.6-0.2-34.2,8.4-42.9c25.9-26.2,68.1-26.5,94.3-0.7C250.3,93.3,250.6,135.5,224.7,161.7z"/>
			<path class="st57" d="M217.8,119.7c-5.8-1-10.2,3.2-14.1,6.8c-7.6,7.1-18.3,19.4-28,9.4c-3.4-3.5-3.5-8.3-7.5-10.9
				c-4-2.6-10.1-1.8-14.4-0.6c-3.2,1-9.4,5.1-12.8,4c-4.4-1.4-2.1-10-5.1-14.4c-3.4-5.1-6.2-4.4-11.6-5.9c-19.9-5.3-0.2-32.5,8-40.8
				c24.6-24.9,64.7-25.2,89.6-0.6c8.9,8.7,15,20,17.5,32.2c1.2,5.6,2.3,12.7,1.1,18.4C239.7,121.4,222,120.4,217.8,119.7z"/>
			<path class="st58" d="M182.1,99c-1.7,2.9-4,5.2-7.3,5.9c-4.2,0.9-6.8-3.4-10.7-3.8c-4.6-0.5-9.6,3.7-12.9,6.4
				c-2.5,2-7.2,6-10.9,5c-3.1-0.9-4.1-4.4-6.7-5.9c-1.8-1.1-4.3-1.1-6.4-1.7c-17.9-4.8-0.2-29.2,7.2-36.7
				c14.6-14.9,36.8-20.5,56.8-14.6c5.3,1.6,25.3,9.4,24.5,16.2c-0.9,7.9-17.6,5.7-22.4,9C187.5,82.8,185.9,92.5,182.1,99z"/>
			<path class="st59" d="M162.9,83.7c-1.4,2-3.1,3.7-5.2,4.5c-2.7,1.1-3.8-1.3-6.2-1.1c-2.8,0.3-6.4,3.5-8.7,5.5
				c-1.8,1.5-5.2,4.6-7.3,4.4c-1.8-0.2-2-2.2-3.4-2.9c-1-0.5-2.5-0.2-3.8-0.3c-10.5-0.8,3.4-18.2,8.8-23.7
				C148,59.2,162.4,53,174,54.3c3.1,0.3,14.5,2.8,13.2,7.2c-1.5,5-11.6,5.7-14.9,8.3C168.2,72.9,166.1,79.2,162.9,83.7z"/>
		</g>
		<g class="st60">
			<ellipse transform="matrix(0.2558 -0.9667 0.9667 0.2558 20.8189 256.4498)" class="st55" cx="177" cy="114.7" rx="67" ry="67"/>
			<path class="st56" d="M112.2,97.6c1.5-5.6,4.8-9.4,11-10.2c5.6-0.7,8.1,0.3,12.6-4.1c3.2-3.2,4.5-6,9.5-6.3
				c5.3-0.3,9.5,2.6,13.9,4.6c4.8,2.1,9.9,2.4,15.3,0.7c5.6-1.7,9.6-7.9,15-9.1c10.9-2.4,16.1,13.9,23.9,17.8
				c5.8,2.9,8,0.8,13.6-0.7c20.9-5.5,17.2,29.6,14.1,41.4c-9.4,35.6-45.9,56.8-81.5,47.4C124,169.7,102.8,133.2,112.2,97.6z"/>
			<path class="st57" d="M139.1,130.6c5.5-2,7.3-7.8,8.9-13c3.1-10,6.3-25.9,19.7-22.1c4.7,1.4,7.2,5.5,11.9,5.7
				c4.8,0.3,9.7-3.4,12.8-6.6c2.3-2.5,5.6-9.1,9.1-9.8c4.5-1,6.8,7.6,11.6,10c5.5,2.8,7.6,0.8,13-0.6c19.9-5.3,16.3,28.1,13.4,39.4
				c-8.9,33.8-43.6,54-77.4,45c-12-3.2-23-9.9-31.2-19.2c-3.8-4.3-8.3-9.9-10.1-15.4C119.2,140,135.1,132.1,139.1,130.6z"/>
			<path class="st58" d="M180.3,130.9c0.1-3.4,0.9-6.5,3.4-8.7c3.2-2.9,7.6-0.4,11.2-2c4.2-1.9,6.5-8,8-11.9c1.2-3,3.2-8.8,6.9-9.7
				c3.1-0.8,5.7,1.8,8.7,1.8c2.1,0,4.3-1.2,6.4-1.7c17.9-4.7,14.7,25.3,12,35.4c-5.3,20.2-21.7,36.1-42,40.9
				c-5.4,1.3-26.6,4.4-29.4-1.9c-3.2-7.3,12.5-13.7,15-18.9C183.7,147.6,180.2,138.4,180.3,130.9z"/>
			<path class="st59" d="M204.6,134.7c0.2-2.5,0.8-4.7,2.3-6.5c1.8-2.3,3.9-0.7,5.9-2.1c2.3-1.6,3.8-6.2,4.9-9.1
				c0.8-2.2,2.2-6.6,4.2-7.5c1.6-0.7,2.8,1,4.4,0.8c1.1-0.1,2.3-1.1,3.4-1.6c9.5-4.5,6.1,17.4,4.1,24.9
				c-3.9,14.9-13.4,27.5-24.1,32.1c-2.9,1.2-14,4.8-15,0.4c-1.2-5.1,7.2-10.7,8.9-14.6C205.3,146.6,204.1,140.1,204.6,134.7z"/>
		</g>
	</g>
	<g class="st61">
		<g>
			<ellipse transform="matrix(0.3197 -0.9475 0.9475 0.3197 11.7135 245.7234)" class="st55" cx="177" cy="114.7" rx="67" ry="67"/>
			<path class="st56" d="M240.5,136.1c-1.9,5.5-5.4,9.1-11.7,9.4c-5.7,0.3-8.1-0.8-12.8,3.3c-3.4,3-4.9,5.7-9.9,5.7
				c-5.3,0-9.3-3.2-13.6-5.5c-4.6-2.4-9.8-3-15.2-1.7c-5.7,1.4-10.1,7.2-15.6,8.1c-11,1.7-15.1-14.9-22.7-19.3
				c-5.6-3.3-7.9-1.3-13.7-0.2c-21.3,4.1-15.2-30.7-11.3-42.3c11.8-34.9,49.6-53.6,84.5-41.9C233.5,63.4,252.3,101.2,240.5,136.1z"
				/>
			<path class="st57" d="M215.8,101.3c-5.6,1.6-7.8,7.3-9.7,12.3c-3.8,9.7-8,25.5-21.1,20.7c-4.6-1.7-6.8-6-11.5-6.5
				c-4.7-0.6-9.9,2.8-13.2,5.8c-2.5,2.3-6.2,8.7-9.7,9.2c-4.5,0.7-6.3-8-10.9-10.7c-5.3-3.1-7.5-1.3-13-0.2
				c-20.2,3.9-14.4-29.1-10.7-40.2c11.2-33.2,47.1-51,80.3-39.8c11.8,4,22.2,11.4,29.8,21.2c3.5,4.5,7.7,10.4,9,16.1
				C236.3,93.3,219.9,100.1,215.8,101.3z"/>
			<path class="st58" d="M174.7,98.3c-0.3,3.4-1.3,6.4-4,8.5c-3.4,2.7-7.6-0.1-11.3,1.3c-4.3,1.6-7,7.5-8.8,11.4
				c-1.4,2.9-3.8,8.6-7.6,9.3c-3.1,0.6-5.6-2.2-8.6-2.4c-2.1-0.2-4.4,0.9-6.5,1.3c-18.2,3.5-13-26.2-9.6-36.1
				c6.7-19.8,24.1-34.6,44.7-38c5.5-0.9,26.8-2.6,29.2,3.9c2.7,7.5-13.4,12.8-16.2,17.9C172.5,81.4,175.3,90.9,174.7,98.3z"/>
			<path class="st59" d="M150.8,92.9c-0.4,2.5-1.1,4.7-2.7,6.3c-2,2.1-4,0.5-6,1.7c-2.4,1.5-4.2,5.9-5.4,8.8
				c-0.9,2.2-2.6,6.4-4.6,7.2c-1.7,0.6-2.8-1.1-4.3-1.1c-1.1,0-2.4,0.9-3.5,1.4c-9.8,3.9-4.9-17.8-2.4-25.2
				c4.9-14.6,15.2-26.5,26.2-30.5c2.9-1,14.3-3.8,15,0.6c0.9,5.2-7.9,10.2-9.8,14C150.8,81,151.6,87.5,150.8,92.9z"/>
		</g>
		<g class="st60">
			<ellipse transform="matrix(0.9812 -0.1931 0.1931 0.9812 -18.8171 36.3285)" class="st55" cx="177" cy="114.7" rx="67" ry="67"/>
			<path class="st56" d="M111.2,127.7c-1.1-5.7,0.2-10.6,5.5-14c4.8-3.1,7.4-3.3,9.5-9.2c1.5-4.3,1.4-7.4,5.7-9.8
				c4.6-2.6,9.7-1.8,14.5-2c5.2-0.2,10-2.2,14.1-6.1c4.2-4,5.2-11.3,9.5-14.7c8.7-6.9,20.6,5.4,29.3,5.5c6.5,0.1,7.5-2.8,12-6.6
				c16.4-14.2,28.4,19.1,30.8,31.1c7.1,36.1-16.4,71.2-52.5,78.3C153.4,187.4,118.3,163.8,111.2,127.7z"/>
			<path class="st57" d="M149.9,145.6c4.1-4.2,3.1-10.2,2.3-15.5c-1.6-10.3-5.7-26.1,8-28.4c4.8-0.8,8.9,1.8,13.2,0
				c4.4-1.9,7.2-7.3,8.6-11.6c1-3.2,1.1-10.6,3.9-12.8c3.6-2.9,9.5,3.9,14.8,3.9c6.2,0.1,7.2-2.6,11.4-6.3
				c15.6-13.4,27,18.1,29.2,29.5c6.8,34.3-15.6,67.6-49.9,74.4c-12.2,2.4-25,1.1-36.5-3.6c-5.3-2.2-11.8-5.2-15.8-9.4
				C136.1,162.7,146.9,148.7,149.9,145.6z"/>
			<path class="st58" d="M187.1,127.8c-1.4-3.1-2.1-6.2-0.8-9.3c1.7-4,6.7-3.7,9.2-6.7c3-3.5,2.3-10,2-14.2c-0.2-3.2-0.9-9.3,2-11.8
				c2.4-2,5.9-0.9,8.7-2.2c1.9-0.9,3.4-2.9,5-4.3c14-12.1,24.3,16.3,26.3,26.6c4,20.5-3.7,42-19.9,55.2c-4.3,3.5-22,15.6-27.2,11.1
				c-6.1-5.2,5.2-17.8,5.2-23.6C197.4,141.4,190.2,134.6,187.1,127.8z"/>
			<path class="st59" d="M210.5,120.6c-0.9-2.3-1.3-4.6-0.8-6.8c0.7-2.9,3.2-2.4,4.4-4.5c1.3-2.5,0.7-7.2,0.4-10.3
				c-0.3-2.3-0.9-6.9,0.5-8.5c1.1-1.4,3-0.4,4.3-1.2c0.9-0.6,1.6-2,2.3-2.9c6.6-8.2,13.1,13,14.6,20.6c3,15.1,0,30.5-7.6,39.4
				c-2,2.4-10.5,10.4-13.4,6.9c-3.3-4.1,1.8-12.8,1.6-17C216.4,131,212.5,125.7,210.5,120.6z"/>
		</g>
	</g>
</g>
<path class="st62" d="M343.8,157.2c3.4-12.6-15.3-24.5-23.6-30.2c-21.9-15-46.8-25.8-71.4-35.4c0.4,1.8,0.8,3.6,1,5.4c0,0,0,0,0,0
	c0.1,0.1,0.1,0.1,0.2,0.1c0.1,0,0.1,0.1,0.1,0.1c0.1,0.6,0.3,1.3,0.5,1.9c0,0,0,0,0,0c0,0,0,0,0,0c0,0,0,0.1,0,0.1c0,0,0,0,0,0
	c0,0,0,0,0,0c0.2,0.9,0.5,1.7,0.7,2.6c0,0,0,0,0,0c0,0.1,0,0.1,0,0.2c0,0,0,0,0,0c0.1,0.5,0.3,1,0.4,1.5c0.1,0.2,0.1,0.5,0.2,0.7
	c0.1,0.4,0.2,0.7,0.3,1.1c0.1,0.3,0.2,0.7,0.3,1c0.1,0.3,0.1,0.6,0.2,0.9c0.1,0.3,0.1,0.5,0.2,0.8c0.1,0.3,0.1,0.7,0.2,1
	c0,0.3,0.1,0.5,0.1,0.8c0,0.2,0.1,0.5,0.1,0.8c0,0.3,0.1,0.5,0.1,0.8c0,0.3,0,0.5,0.1,0.8c0,0.2,0,0.5,0,0.7c0,0.8,0,1.6-0.1,2.3
	c-0.1,0.6-0.1,1.2-0.2,1.8c0,0,0,0-0.1-0.1c0,0.5,0.1,1,0.1,1.5c0,0,0,0.1,0,0.1c0,0.4,0,0.8,0,1.2c0,0.8-0.1,1.6-0.1,2.3
	c5.7,3.2,11.2,6.6,16.3,10.5c3.4,2.6,9,6.9,11.1,11.8c-1.5,2.6-4.4,4-7.2,5c-0.2,0-0.4,0.1-0.6,0.1c-1.5,0.2-3.1,0.3-4.6,0.4
	c-3.9,0.3-7.8,0.2-11.7,0.1c-20.7-0.7-41.3-4.7-61.4-9.6c-23.2-5.6-46-13-68-22c-1-0.4-2.1-0.9-3.1-1.3c-0.4,0.5-0.9,1-1.3,1.5
	c0,0,0,0,0,0c-0.1,0.1-0.2,0.3-0.3,0.4c0-0.2,0-0.4,0-0.5c0,0,0,0,0,0c0-0.7-0.1-1.4-0.1-2.1c-14.3-6.1-28.6-13-40.9-22.4
	c-3.2-2.4-8.9-6.9-11.1-11.8c0.2-0.3,0.4-0.7,0.6-1c1-1.4,2.6-2.3,4.1-3c0.8-0.4,1.7-0.7,2.5-1c0.4-0.1,0.8-0.1,1.3-0.2
	c7.5-0.9,15.2-0.6,22.8,0c2.4,0.2,4.8,0.4,7.1,0.6c0.5-0.8,1-1.5,1.5-2.3c-4.9-0.4-9.8-0.6-14.7-0.5c-6.2,0.1-12.3,0.9-18.3,2.2
	c-2.5,0.5-5.2,1-7.6,1.9c-0.1-1.6,0.3-3.1,1.5-4.6c0.2-0.2,0.4-0.4,0.6-0.7c7.8-0.8,15.7-0.5,23.5,0c5.1,0.4,10.2,0.9,15.3,1.6
	c0.6-0.9,1.3-1.7,2-2.6c-7.9-0.9-15.8-1.4-23.7-1.3c-5.6,0-10.9,0.7-16.3,1.7c0.9-0.7,1.9-1.3,2.9-1.8c0.8-0.4,1.7-0.7,2.5-1
	c0.4-0.1,0.8-0.1,1.3-0.2c7.5-0.9,15.2-0.6,22.8,0c3.9,0.3,7.9,0.7,11.8,1.2c0.6-0.8,1.3-1.5,2-2.2c0.5-0.6,1.1-1.1,1.6-1.7
	c0.8-0.8,1.5-1.6,2.3-2.4c0.9-0.9,1.7-1.7,2.6-2.6c-20-3.6-40.2-6-60.4-5.8c-8.3,0.1-16.3,1.1-24.4,2.7c0.9-0.6,1.8-1.1,2.8-1.6
	c1.1-0.5,2.3-1,3.5-1.3c0.6-0.1,1.2-0.2,1.8-0.2c10.4-1.2,21-0.8,31.4,0c15.2,1.1,30.4,3.3,45.5,6.2c0.6-0.6,1.2-1.2,1.8-1.8
	c0,0,0,0,0,0c1.2-1.3,2.5-2.5,3.7-3.8c-21.8-4.2-43.9-7.1-66-6.9c-9.1,0.1-17.9,1.3-26.8,3.2C28,54.3,21,55.4,15.8,59.7
	c-3.9,3.2-4.4,7.1-3.1,11C9.4,79,20.4,89.4,26.1,94.1c18.4,15.5,41.5,26.1,63.4,35.6c31.6,13.7,64.6,24.3,97.9,33
	c34.9,9,71.5,16.6,107.7,16.3c11.1-0.1,21.7-1.9,32.5-4.5c6.1-1.4,14-3.8,16.2-10.4c0.6-2.2,0.5-4.4-0.1-6.6
	C343.7,157.4,343.8,157.3,343.8,157.2z M312.8,172.5c-2.1,0.3-4.3,0.4-6.4,0.6c-5.4,0.4-10.8,0.3-16.2,0.1
	c-18.8-0.6-37.5-3.2-56-6.9c20.1,3.6,40.5,5.9,60.8,5.7c8.5-0.1,16.8-1.2,25-2.8c-2,1.4-4.3,2.4-6.5,3.1
	C313.3,172.4,313.1,172.5,312.8,172.5z M44.8,63c10.4-1.2,21-0.8,31.4,0c5.6,0.4,11.2,1,16.8,1.7c-1.6,0-3.2,0-4.9,0
	c-6.7,0.1-13.1,0.9-19.6,2.3c-4.7,1-9.8,1.8-13.6,5c-3.2,2.6-3.3,5.9-1.9,9.1c-3.3,5.8,4.1,13.3,8.6,17.2c-4.6-2.9-9.1-5.9-13.4-9.2
	c-4.7-3.6-13.4-10.5-15.8-17.7c0.3-0.9,0.8-1.7,1.4-2.5c1.4-1.9,3.6-3.1,5.7-4.2c1.1-0.5,2.3-1,3.5-1.3C43.6,63.1,44.2,63,44.8,63z
	 M280.3,151.3c-1.5,2.6-4.4,4-7.2,4.9c-0.2,0-0.4,0.1-0.6,0.1c-1.5,0.2-3.1,0.3-4.6,0.4c-3.9,0.3-7.8,0.2-11.7,0.1
	c-20.7-0.7-41.3-4.7-61.4-9.6c-22.2-5.4-44.1-12.4-65.3-21c16.7,6.2,33.7,11.4,50.9,15.9c25.5,6.6,52.2,12.1,78.7,11.9
	C266.4,153.9,273.3,152.8,280.3,151.3z M320.8,168.8c-0.1,0-0.2,0-0.3,0c-2.2,0.3-4.5,0.5-6.8,0.6c-5.7,0.4-11.4,0.3-17.1,0.1
	c-4.7-0.2-9.5-0.4-14.2-0.8c2.1,0,4.3,0,6.4,0c10.5-0.1,20.5-1.8,30.7-4.2c1.6-0.4,3.2-0.8,4.9-1.4c0,0.2-0.1,0.4-0.1,0.6
	C323.6,165.9,322.3,167.5,320.8,168.8z M277.4,155.5c3.1-0.7,6.8-1.8,9.2-4.1c0,0.1,0,0.2-0.1,0.3c-1.2,3.7-4.9,5.5-8.3,6.6
	c-0.2,0-0.4,0.1-0.6,0.1c-1.6,0.2-3.3,0.3-5,0.4c-4.2,0.3-8.3,0.2-12.5,0.1c-2.8-0.1-5.7-0.2-8.5-0.5c1.2,0,2.3,0,3.5,0
	C262.8,158.5,270.1,157.2,277.4,155.5z M122.4,125.3c-0.1,0.1-0.2,0.3-0.3,0.4c0-0.2,0-0.4,0-0.5c0,0,0,0,0,0c0-0.6-0.1-1.2-0.1-1.8
	c0.5,0.2,1.1,0.4,1.6,0.6C123.2,124.4,122.8,124.9,122.4,125.3C122.5,125.3,122.5,125.3,122.4,125.3z M308.3,139.8
	c5.1,3.9,13.6,10.4,15.8,17.7c-1.7,4.4-6.3,6.6-10.5,8c-0.3,0-0.5,0.1-0.8,0.1c-2.1,0.3-4.3,0.4-6.4,0.6c-5.4,0.4-10.8,0.3-16.2,0.1
	c-18.9-0.6-37.8-3.3-56.4-7c8.4,0.9,16.9,1.4,25.3,1.4c8.1-0.1,15.9-1.4,23.8-3.3c4.4-1,10.2-2.8,11.8-7.6c0.5-2,0.3-3.9-0.4-5.8
	c0.2-0.3,0.3-0.7,0.4-1c2.5-9.2-11.2-17.9-17.3-22.1c-0.4-0.3-0.8-0.5-1.2-0.8C287.5,125.9,298.3,132.3,308.3,139.8z M61.6,80.1
	c-0.1-0.2-0.2-0.5-0.3-0.7c0.1-0.3,0.3-0.5,0.5-0.8C61.6,79.1,61.5,79.6,61.6,80.1z M277.4,148.6c1.2-0.3,2.4-0.6,3.7-1
	c0,0.8,0,1.6-0.2,2.4c-0.1,0.2-0.2,0.4-0.2,0.5c-0.8,0.4-1.6,0.7-2.4,0.9c-0.2,0-0.4,0.1-0.6,0.1c-1.6,0.2-3.3,0.3-5,0.4
	c-4.2,0.3-8.3,0.2-12.5,0.1c-2.8-0.1-5.7-0.2-8.5-0.5c1.2,0,2.3,0,3.5,0C262.8,151.6,270.1,150.4,277.4,148.6z M95.2,68
	c-6.2,0.1-12.3,0.9-18.3,2.2c-4.3,0.9-9,1.7-12.5,4.5c-1.3,0.3-2.6,0.7-3.9,1.1c0-1.5,0.5-3,1.6-4.5c1.1-1.5,2.8-2.4,4.4-3.2
	c0.9-0.4,1.8-0.7,2.7-1c0.5-0.1,0.9-0.1,1.4-0.2c8-0.9,16.3-0.6,24.3,0c5.7,0.4,11.4,1,17.1,1.8C106.3,68.2,100.7,67.9,95.2,68z
	 M70.2,59.7c1.5,0.1,2.9,0.2,4.4,0.4c-2.3,0-4.5-0.1-6.8,0c-8.6,0.1-16.9,1.2-25.3,3c-3.4,0.7-7,1.4-10.3,2.6
	c0.3-1.3,0.9-2.5,1.8-3.7c0.6-0.8,1.3-1.4,2.1-2c0.3,0,0.6-0.1,0.9-0.1C47.9,58.4,59.1,58.9,70.2,59.7z M31.4,54.5
	c1.2-0.6,2.4-1,3.7-1.4c0.6-0.1,1.2-0.2,1.9-0.2c11-1.3,22.2-0.8,33.3-0.1c1.4,0.1,2.9,0.2,4.3,0.4c-2.2,0-4.5-0.1-6.7,0
	c-8.6,0.1-16.9,1.2-25.3,3c-5.5,1.2-11.6,2.2-16.3,5.5c-0.9,0.2-1.7,0.5-2.6,0.8c0.3-1.2,0.9-2.3,1.8-3.5
	C26.9,56.9,29.2,55.6,31.4,54.5z M321.3,175.5c-0.3,0-0.5,0.1-0.8,0.1c-2.2,0.3-4.5,0.5-6.8,0.6c-5.7,0.4-11.4,0.3-17.1,0.1
	c-4.7-0.2-9.5-0.4-14.2-0.8c2.1,0,4.2,0,6.4,0c10.5-0.1,20.5-1.8,30.7-4.2c3.8-0.9,8.2-2.1,11.5-4.6c0.6-0.2,1.1-0.3,1.7-0.5
	c0,0.1,0,0.2-0.1,0.2C331,171.5,326,174,321.3,175.5z"/>
</svg>
