<?xml version="1.0" encoding="utf-8"?>
<!-- Generator: Adobe Illustrator 19.2.1, SVG Export Plug-In . SVG Version: 6.00 Build 0)  -->
<svg version="1.1" id="Layer_1" xmlns="http://www.w3.org/2000/svg" xmlns:xlink="http://www.w3.org/1999/xlink" x="0px" y="0px"
	 viewBox="0 0 2083.2 1001.6" style="enable-background:new 0 0 2083.2 1001.6;" xml:space="preserve">
<metadata><?xpacket begin="﻿" id="W5M0MpCehiHzreSzNTczkc9d"?>
<x:xmpmeta xmlns:x="adobe:ns:meta/" x:xmptk="Adobe XMP Core 5.6-c111 79.158366, 2015/09/25-01:12:00        ">
   <rdf:RDF xmlns:rdf="http://www.w3.org/1999/02/22-rdf-syntax-ns#">
      <rdf:Description rdf:about=""/>
   </rdf:RDF>
</x:xmpmeta>
                                                                                                    
                                                                                                    
                                                                                                    
                                                                                                    
                                                                                                    
                                                                                                    
                                                                                                    
                                                                                                    
                                                                                                    
                                                                                                    
                                                                                                    
                                                                                                    
                                                                                                    
                                                                                                    
                                                                                                    
                                                                                                    
                                                                                                    
                                                                                                    
                                                                                                    
                                                                                                    
                           
<?xpacket end="w"?></metadata>
<style type="text/css">
	.st0{fill:url(#SVGID_1_);}
	.st1{opacity:0.5;}
	.st2{fill:#FFFFFF;}
	.st3{fill:#5A79A7;}
	.st4{fill:#9F78A4;}
	.st5{fill:#E1A1BC;}
	.st6{opacity:0.9804;fill:#DE9FBC;}
	.st7{opacity:0.9608;fill:#DA9EBB;}
	.st8{opacity:0.9412;fill:#D79CBA;}
	.st9{opacity:0.9216;fill:#D49BB9;}
	.st10{opacity:0.902;fill:#D099B9;}
	.st11{opacity:0.8824;fill:#CD98B8;}
	.st12{opacity:0.8627;fill:#CA96B7;}
	.st13{opacity:0.8431;fill:#C795B7;}
	.st14{opacity:0.8235;fill:#C394B6;}
	.st15{opacity:0.8039;fill:#C092B5;}
	.st16{opacity:0.7843;fill:#BD91B5;}
	.st17{opacity:0.7647;fill:#BA90B4;}
	.st18{opacity:0.7451;fill:#B78FB3;}
	.st19{opacity:0.7255;fill:#B38DB3;}
	.st20{opacity:0.7059;fill:#B08CB2;}
	.st21{opacity:0.6863;fill:#AD8BB1;}
	.st22{opacity:0.6667;fill:#AA8AB1;}
	.st23{opacity:0.6471;fill:#A788B0;}
	.st24{opacity:0.6275;fill:#A387AF;}
	.st25{opacity:0.6078;fill:#A086AF;}
	.st26{opacity:0.5882;fill:#9D85AE;}
	.st27{opacity:0.5686;fill:#9A84AE;}
	.st28{opacity:0.549;fill:#9782AD;}
	.st29{opacity:0.5294;fill:#9481AC;}
	.st30{opacity:0.5098;fill:#9180AC;}
	.st31{opacity:0.4902;fill:#8E7FAB;}
	.st32{opacity:0.4706;fill:#8B7EAB;}
	.st33{opacity:0.451;fill:#877DAA;}
	.st34{opacity:0.4314;fill:#847CAA;}
	.st35{opacity:0.4118;fill:#817BA9;}
	.st36{opacity:0.3922;fill:#7E7AA8;}
	.st37{opacity:0.3725;fill:#7B79A8;}
	.st38{opacity:0.3529;fill:#7878A7;}
	.st39{opacity:0.3333;fill:#7577A7;}
	.st40{opacity:0.3137;fill:#7176A6;}
	.st41{opacity:0.2941;fill:#6E75A6;}
	.st42{opacity:0.2745;fill:#6B74A5;}
	.st43{opacity:0.2549;fill:#6873A5;}
	.st44{opacity:0.2353;fill:#6473A4;}
	.st45{opacity:0.2157;fill:#6172A4;}
	.st46{opacity:0.1961;fill:#5D71A3;}
	.st47{opacity:0.1765;fill:#5970A3;}
	.st48{opacity:0.1569;fill:#566FA2;}
	.st49{opacity:0.1373;fill:#526EA2;}
	.st50{opacity:0.1176;fill:#4E6DA1;}
	.st51{opacity:9.803900e-02;fill:#496DA1;}
	.st52{opacity:7.843100e-02;fill:#456CA0;}
	.st53{opacity:5.882400e-02;fill:#416BA0;}
	.st54{opacity:3.921600e-02;fill:#3C6A9F;}
	.st55{opacity:1.960800e-02;fill:#37699F;}
	.st56{opacity:0;fill:#31699F;}
	.st57{fill:#31699F;}
	.st58{opacity:0.9804;fill:#31699F;}
	.st59{opacity:0.9608;fill:#31699F;}
	.st60{opacity:0.9412;fill:#31699F;}
	.st61{opacity:0.9216;fill:#31699F;}
	.st62{opacity:0.902;fill:#31699F;}
	.st63{opacity:0.8824;fill:#31699F;}
	.st64{opacity:0.8627;fill:#31699F;}
	.st65{opacity:0.8431;fill:#31699F;}
	.st66{opacity:0.8235;fill:#31699F;}
	.st67{opacity:0.8039;fill:#31699F;}
	.st68{opacity:0.7843;fill:#31699F;}
	.st69{opacity:0.7647;fill:#31699F;}
	.st70{opacity:0.7451;fill:#31699F;}
	.st71{opacity:0.7255;fill:#31699F;}
	.st72{opacity:0.7059;fill:#31699F;}
	.st73{opacity:0.6863;fill:#31699F;}
	.st74{opacity:0.6667;fill:#31699F;}
	.st75{opacity:0.6471;fill:#31699F;}
	.st76{opacity:0.6275;fill:#31699F;}
	.st77{opacity:0.6078;fill:#31699F;}
	.st78{opacity:0.5882;fill:#31699F;}
	.st79{opacity:0.5686;fill:#31699F;}
	.st80{opacity:0.549;fill:#31699F;}
	.st81{opacity:0.5294;fill:#31699F;}
	.st82{opacity:0.5098;fill:#31699F;}
	.st83{opacity:0.4902;fill:#31699F;}
	.st84{opacity:0.4706;fill:#31699F;}
	.st85{opacity:0.451;fill:#31699F;}
	.st86{opacity:0.4314;fill:#31699F;}
	.st87{opacity:0.4118;fill:#31699F;}
	.st88{opacity:0.3922;fill:#31699F;}
	.st89{opacity:0.3725;fill:#31699F;}
	.st90{opacity:0.3529;fill:#31699F;}
	.st91{opacity:0.3333;fill:#31699F;}
	.st92{opacity:0.3137;fill:#31699F;}
	.st93{opacity:0.2941;fill:#31699F;}
	.st94{opacity:0.2745;fill:#31699F;}
	.st95{opacity:0.2549;fill:#31699F;}
	.st96{opacity:0.2353;fill:#31699F;}
	.st97{opacity:0.2157;fill:#31699F;}
	.st98{opacity:0.1961;fill:#31699F;}
	.st99{opacity:0.1765;fill:#31699F;}
	.st100{opacity:0.1569;fill:#31699F;}
	.st101{opacity:0.1373;fill:#31699F;}
	.st102{opacity:0.1176;fill:#31699F;}
	.st103{opacity:9.803900e-02;fill:#31699F;}
	.st104{opacity:7.843100e-02;fill:#31699F;}
	.st105{opacity:5.882400e-02;fill:#31699F;}
	.st106{opacity:3.921600e-02;fill:#31699F;}
	.st107{opacity:1.960800e-02;fill:#31699F;}
</style>
<linearGradient id="SVGID_1_" gradientUnits="userSpaceOnUse" x1="1041.7603" y1="1001.5859" x2="1041.7603" y2="1.5864">
	<stop  offset="0" style="stop-color:#001E2B"/>
	<stop  offset="0.2504" style="stop-color:#002330"/>
	<stop  offset="0.5802" style="stop-color:#002F3E"/>
	<stop  offset="0.9528" style="stop-color:#004153"/>
	<stop  offset="1" style="stop-color:#004357"/>
</linearGradient>
<rect x="0.3" y="1.6" class="st0" width="2082.8" height="1000"/>
<g>
	<g>
		<g class="st1">
			<circle class="st2" cx="673.4" cy="334.1" r="1.4"/>
			<circle class="st2" cx="732.9" cy="352.7" r="1.4"/>
			<circle class="st2" cx="660" cy="387.9" r="1.4"/>
			<circle class="st2" cx="801.2" cy="321.7" r="1.4"/>
			<circle class="st2" cx="738.2" cy="389" r="1.4"/>
		</g>
		<g class="st1">
			<circle class="st2" cx="412.2" cy="436" r="1.4"/>
			<circle class="st2" cx="471.7" cy="454.7" r="1.4"/>
			<circle class="st2" cx="398.9" cy="489.9" r="1.4"/>
			<circle class="st2" cx="540" cy="423.7" r="1.4"/>
			<circle class="st2" cx="477" cy="491" r="1.4"/>
		</g>
		<g>
			<g>
				<circle class="st3" cx="323.2" cy="638.8" r="2.2"/>
				<circle class="st3" cx="414.4" cy="667.4" r="2.2"/>
				<circle class="st3" cx="302.7" cy="721.3" r="2.2"/>
				<circle class="st3" cx="519.1" cy="619.9" r="2.2"/>
				<circle class="st3" cx="422.5" cy="723" r="2.2"/>
			</g>
		</g>
		<g>
			<circle class="st2" cx="955.2" cy="259.4" r="1.4"/>
			<ellipse class="st2" cx="823.5" cy="426.5" rx="1.4" ry="1.4"/>
			<circle class="st2" cx="521.3" cy="435.6" r="1.4"/>
			<circle class="st2" cx="1012.3" cy="458.2" r="1.4"/>
			<circle class="st2" cx="949.3" cy="525.4" r="1.4"/>
		</g>
		<g>
			<g>
				<circle class="st4" cx="749.4" cy="285.8" r="1.4"/>
				<circle class="st4" cx="617.8" cy="452.9" r="1.4"/>
				<circle class="st4" cx="315.6" cy="462" r="1.4"/>
				<circle class="st4" cx="806.6" cy="484.6" r="1.4"/>
				<circle class="st4" cx="743.5" cy="551.8" r="1.4"/>
			</g>
		</g>
	</g>
	<g>
		<g class="st1">
			<circle class="st2" cx="345.4" cy="922.5" r="1.4"/>
			<circle class="st2" cx="285.9" cy="903.9" r="1.4"/>
			<circle class="st2" cx="358.7" cy="868.7" r="1.4"/>
			<circle class="st2" cx="217.6" cy="934.8" r="1.4"/>
			<path class="st2" d="M279.2,867.6c0-0.8,0.6-1.4,1.4-1.4c0.8,0,1.4,0.6,1.4,1.4c0,0.8-0.6,1.4-1.4,1.4
				C279.8,869,279.2,868.4,279.2,867.6z"/>
		</g>
		<g class="st1">
			<path class="st2" d="M605.1,820.5c0-0.8,0.6-1.4,1.4-1.4c0.8,0,1.4,0.6,1.4,1.4c0,0.8-0.6,1.4-1.4,1.4
				C605.7,822,605.1,821.3,605.1,820.5z"/>
			<circle class="st2" cx="547" cy="801.9" r="1.4"/>
			<circle class="st2" cx="619.9" cy="766.7" r="1.4"/>
			<circle class="st2" cx="478.7" cy="832.9" r="1.4"/>
			<circle class="st2" cx="541.7" cy="765.6" r="1.4"/>
		</g>
		<g>
			<g>
				<circle class="st3" cx="695.5" cy="617.8" r="2.2"/>
				<circle class="st3" cx="604.3" cy="589.2" r="2.2"/>
				<circle class="st3" cx="716" cy="535.2" r="2.2"/>
				<circle class="st3" cx="499.7" cy="636.7" r="2.2"/>
				<circle class="st3" cx="596.2" cy="533.6" r="2.2"/>
			</g>
		</g>
		<g>
			<circle class="st2" cx="63.6" cy="997.2" r="1.4"/>
			<circle class="st2" cx="195.2" cy="830.1" r="1.4"/>
			<circle class="st2" cx="497.4" cy="821" r="1.4"/>
			<circle class="st2" cx="6.5" cy="798.4" r="1.4"/>
			<circle class="st2" cx="69.5" cy="731.2" r="1.4"/>
		</g>
		<g>
			<g>
				<circle class="st4" cx="269.3" cy="970.8" r="1.4"/>
				<circle class="st4" cx="400.9" cy="803.7" r="1.4"/>
				<circle class="st4" cx="703.1" cy="794.6" r="1.4"/>
				<circle class="st4" cx="212.2" cy="772" r="1.4"/>
				<circle class="st4" cx="275.2" cy="704.8" r="1.4"/>
			</g>
		</g>
	</g>
	<g>
		<g class="st1">
			<ellipse class="st2" cx="1070.5" cy="842.7" rx="1.4" ry="1.4"/>
			<circle class="st2" cx="1011" cy="824" r="1.4"/>
			<circle class="st2" cx="1083.9" cy="788.8" r="1.4"/>
			<ellipse class="st2" cx="942.7" cy="855" rx="1.4" ry="1.4"/>
			<circle class="st2" cx="1005.8" cy="787.7" r="1.4"/>
		</g>
		<g class="st1">
			<circle class="st2" cx="1331.7" cy="740.7" r="1.4"/>
			<circle class="st2" cx="1272.2" cy="722" r="1.4"/>
			<circle class="st2" cx="1345.1" cy="686.8" r="1.4"/>
			<circle class="st2" cx="1203.9" cy="753" r="1.4"/>
			<circle class="st2" cx="1266.9" cy="685.8" r="1.4"/>
		</g>
		<g>
			<g>
				<circle class="st3" cx="1420.7" cy="537.9" r="2.2"/>
				<circle class="st3" cx="1329.5" cy="509.3" r="2.2"/>
				<circle class="st3" cx="1441.2" cy="455.4" r="2.2"/>
				<circle class="st3" cx="1224.9" cy="556.8" r="2.2"/>
				<circle class="st3" cx="1321.4" cy="453.8" r="2.2"/>
			</g>
		</g>
		<g>
			<circle class="st2" cx="788.7" cy="917.3" r="1.4"/>
			<circle class="st2" cx="920.4" cy="750.2" r="1.4"/>
			<circle class="st2" cx="1222.6" cy="741.2" r="1.4"/>
			<ellipse class="st2" cx="731.6" cy="718.6" rx="1.4" ry="1.4"/>
			<circle class="st2" cx="794.7" cy="651.3" r="1.4"/>
		</g>
		<g>
			<g>
				<circle class="st4" cx="994.5" cy="890.9" r="1.4"/>
				<circle class="st4" cx="1126.1" cy="723.8" r="1.4"/>
				<circle class="st4" cx="1428.3" cy="714.8" r="1.4"/>
				<ellipse class="st4" cx="937.4" cy="692.2" rx="1.4" ry="1.4"/>
				<circle class="st4" cx="1000.4" cy="624.9" r="1.4"/>
			</g>
		</g>
	</g>
	<g>
		<g class="st1">
			<circle class="st2" cx="398.1" cy="395.5" r="1.4"/>
			<circle class="st2" cx="457.6" cy="376.8" r="1.4"/>
			<circle class="st2" cx="384.7" cy="341.6" r="1.4"/>
			<circle class="st2" cx="525.9" cy="407.8" r="1.4"/>
			<circle class="st2" cx="462.9" cy="340.6" r="1.4"/>
		</g>
		<g class="st1">
			<circle class="st2" cx="137" cy="293.5" r="1.4"/>
			<circle class="st2" cx="196.5" cy="274.9" r="1.4"/>
			<circle class="st2" cx="123.6" cy="239.7" r="1.4"/>
			<ellipse class="st2" cx="264.8" cy="305.9" rx="1.4" ry="1.4"/>
			<circle class="st2" cx="201.8" cy="238.6" r="1.4"/>
		</g>
		<g>
			<g>
				<circle class="st3" cx="48" cy="90.8" r="2.2"/>
				<circle class="st3" cx="139.1" cy="62.2" r="2.2"/>
				<circle class="st3" cx="27.5" cy="8.2" r="2.2"/>
				<circle class="st3" cx="243.8" cy="109.7" r="2.2"/>
				<circle class="st3" cx="147.2" cy="6.6" r="2.2"/>
			</g>
		</g>
		<g>
			<circle class="st2" cx="679.9" cy="470.2" r="1.4"/>
			<circle class="st2" cx="548.3" cy="303.1" r="1.4"/>
			<circle class="st2" cx="246.1" cy="294" r="1.4"/>
			<ellipse class="st2" cx="737" cy="271.4" rx="1.4" ry="1.4"/>
			<circle class="st2" cx="674" cy="204.1" r="1.4"/>
		</g>
		<g>
			<g>
				<circle class="st4" cx="474.2" cy="443.8" r="1.4"/>
				<circle class="st4" cx="342.5" cy="276.7" r="1.4"/>
				<circle class="st4" cx="40.3" cy="267.6" r="1.4"/>
				<circle class="st4" cx="531.3" cy="245" r="1.4"/>
				<circle class="st4" cx="468.3" cy="177.8" r="1.4"/>
			</g>
		</g>
	</g>
</g>
<g>
	<g>
		<g class="st1">
			<circle class="st2" cx="1344.4" cy="331.6" r="1.4"/>
			<circle class="st2" cx="1284.9" cy="350.3" r="1.4"/>
			<circle class="st2" cx="1357.8" cy="385.5" r="1.4"/>
			<circle class="st2" cx="1216.6" cy="319.3" r="1.4"/>
			<circle class="st2" cx="1279.7" cy="386.5" r="1.4"/>
		</g>
		<g class="st1">
			<circle class="st2" cx="1605.6" cy="433.6" r="1.4"/>
			<circle class="st2" cx="1546.1" cy="452.3" r="1.4"/>
			<circle class="st2" cx="1619" cy="487.5" r="1.4"/>
			<circle class="st2" cx="1477.8" cy="421.3" r="1.4"/>
			<circle class="st2" cx="1540.8" cy="488.5" r="1.4"/>
		</g>
		<g>
			<g>
				<circle class="st3" cx="1694.6" cy="636.3" r="2.2"/>
				<circle class="st3" cx="1603.4" cy="664.9" r="2.2"/>
				<circle class="st3" cx="1715.1" cy="718.9" r="2.2"/>
				<circle class="st3" cx="1498.7" cy="617.5" r="2.2"/>
				<circle class="st3" cx="1595.3" cy="720.5" r="2.2"/>
			</g>
		</g>
		<g>
			<circle class="st2" cx="1062.6" cy="257" r="1.4"/>
			<ellipse class="st2" cx="1194.3" cy="424.1" rx="1.4" ry="1.4"/>
			<circle class="st2" cx="1496.5" cy="433.1" r="1.4"/>
			<circle class="st2" cx="1005.5" cy="455.7" r="1.4"/>
			<circle class="st2" cx="1068.5" cy="523" r="1.4"/>
		</g>
		<g>
			<g>
				<circle class="st4" cx="1268.4" cy="283.3" r="1.4"/>
				<circle class="st4" cx="1400" cy="450.4" r="1.4"/>
				<circle class="st4" cx="1702.2" cy="459.5" r="1.4"/>
				<circle class="st4" cx="1211.3" cy="482.1" r="1.4"/>
				<circle class="st4" cx="1274.3" cy="549.4" r="1.4"/>
			</g>
		</g>
	</g>
	<g>
		<g class="st1">
			<circle class="st2" cx="1672.5" cy="920.1" r="1.4"/>
			<circle class="st2" cx="1732" cy="901.4" r="1.4"/>
			<circle class="st2" cx="1659.1" cy="866.2" r="1.4"/>
			<circle class="st2" cx="1800.3" cy="932.4" r="1.4"/>
			<path class="st2" d="M1738.7,865.1c0-0.8-0.6-1.4-1.4-1.4c-0.8,0-1.4,0.6-1.4,1.4c0,0.8,0.6,1.4,1.4,1.4
				C1738,866.6,1738.7,865.9,1738.7,865.1z"/>
		</g>
		<g class="st1">
			<path class="st2" d="M1412.7,818.1c0-0.8-0.6-1.4-1.4-1.4c-0.8,0-1.4,0.6-1.4,1.4c0,0.8,0.6,1.4,1.4,1.4
				C1412.1,819.5,1412.7,818.9,1412.7,818.1z"/>
			<circle class="st2" cx="1470.8" cy="799.4" r="1.4"/>
			<circle class="st2" cx="1397.9" cy="764.2" r="1.4"/>
			<circle class="st2" cx="1539.1" cy="830.4" r="1.4"/>
			<ellipse class="st2" cx="1476.1" cy="763.2" rx="1.4" ry="1.4"/>
		</g>
		<g>
			<g>
				<circle class="st3" cx="1322.3" cy="615.3" r="2.2"/>
				<circle class="st3" cx="1413.5" cy="586.7" r="2.2"/>
				<circle class="st3" cx="1301.8" cy="532.8" r="2.2"/>
				<circle class="st3" cx="1518.2" cy="634.2" r="2.2"/>
				<circle class="st3" cx="1421.6" cy="531.2" r="2.2"/>
			</g>
		</g>
		<g>
			<circle class="st2" cx="1954.3" cy="994.7" r="1.4"/>
			<circle class="st2" cx="1822.6" cy="827.6" r="1.4"/>
			<circle class="st2" cx="1520.4" cy="818.6" r="1.4"/>
			<circle class="st2" cx="2011.4" cy="796" r="1.4"/>
			<ellipse class="st2" cx="1948.3" cy="728.7" rx="1.4" ry="1.4"/>
		</g>
		<g>
			<g>
				<circle class="st4" cx="1748.5" cy="968.3" r="1.4"/>
				<circle class="st4" cx="1616.9" cy="801.2" r="1.4"/>
				<circle class="st4" cx="1314.7" cy="792.2" r="1.4"/>
				<circle class="st4" cx="1805.6" cy="769.6" r="1.4"/>
				<circle class="st4" cx="1742.6" cy="702.3" r="1.4"/>
			</g>
		</g>
	</g>
	<g>
		<g class="st1">
			<ellipse class="st2" cx="947.3" cy="840.2" rx="1.4" ry="1.4"/>
			<circle class="st2" cx="1006.8" cy="821.6" r="1.4"/>
			<circle class="st2" cx="933.9" cy="786.3" r="1.4"/>
			<ellipse class="st2" cx="1075.1" cy="852.5" rx="1.4" ry="1.4"/>
			<circle class="st2" cx="1012" cy="785.3" r="1.4"/>
		</g>
		<g class="st1">
			<circle class="st2" cx="686.1" cy="738.2" r="1.4"/>
			<circle class="st2" cx="745.6" cy="719.6" r="1.4"/>
			<circle class="st2" cx="672.7" cy="684.4" r="1.4"/>
			<circle class="st2" cx="813.9" cy="750.6" r="1.4"/>
			<circle class="st2" cx="750.9" cy="683.3" r="1.4"/>
		</g>
		<g>
			<g>
				<circle class="st3" cx="597.1" cy="535.5" r="2.2"/>
				<circle class="st3" cx="688.3" cy="506.9" r="2.2"/>
				<circle class="st3" cx="576.6" cy="452.9" r="2.2"/>
				<circle class="st3" cx="793" cy="554.4" r="2.2"/>
				<circle class="st3" cx="696.4" cy="451.3" r="2.2"/>
			</g>
		</g>
		<g>
			<circle class="st2" cx="1229.1" cy="914.9" r="1.4"/>
			<circle class="st2" cx="1097.4" cy="747.8" r="1.4"/>
			<circle class="st2" cx="795.2" cy="738.7" r="1.4"/>
			<circle class="st2" cx="1286.2" cy="716.1" r="1.4"/>
			<circle class="st2" cx="1223.2" cy="648.9" r="1.4"/>
		</g>
		<g>
			<g>
				<circle class="st4" cx="1023.3" cy="888.5" r="1.4"/>
				<circle class="st4" cx="891.7" cy="721.4" r="1.4"/>
				<circle class="st4" cx="589.5" cy="712.3" r="1.4"/>
				<ellipse class="st4" cx="1080.4" cy="689.7" rx="1.4" ry="1.4"/>
				<circle class="st4" cx="1017.4" cy="622.5" r="1.4"/>
			</g>
		</g>
	</g>
	<g>
		<g class="st1">
			<circle class="st2" cx="1619.7" cy="393.1" r="1.4"/>
			<circle class="st2" cx="1560.2" cy="374.4" r="1.4"/>
			<circle class="st2" cx="1633.1" cy="339.2" r="1.4"/>
			<circle class="st2" cx="1491.9" cy="405.4" r="1.4"/>
			<circle class="st2" cx="1554.9" cy="338.1" r="1.4"/>
		</g>
		<g class="st1">
			<circle class="st2" cx="1880.8" cy="291.1" r="1.4"/>
			<circle class="st2" cx="1821.3" cy="272.4" r="1.4"/>
			<circle class="st2" cx="1894.2" cy="237.2" r="1.4"/>
			<ellipse class="st2" cx="1753" cy="303.4" rx="1.4" ry="1.4"/>
			<circle class="st2" cx="1816.1" cy="236.2" r="1.4"/>
		</g>
		<g>
			<g>
				<circle class="st3" cx="1969.8" cy="88.3" r="2.2"/>
				<circle class="st3" cx="1878.7" cy="59.7" r="2.2"/>
				<circle class="st3" cx="1990.4" cy="5.8" r="2.2"/>
				<circle class="st3" cx="1774" cy="107.2" r="2.2"/>
				<circle class="st3" cx="1870.6" cy="4.2" r="2.2"/>
			</g>
		</g>
		<g>
			<circle class="st2" cx="1337.9" cy="467.7" r="1.4"/>
			<circle class="st2" cx="1469.5" cy="300.6" r="1.4"/>
			<circle class="st2" cx="1771.7" cy="291.5" r="1.4"/>
			<ellipse class="st2" cx="1280.8" cy="268.9" rx="1.4" ry="1.4"/>
			<circle class="st2" cx="1343.8" cy="201.7" r="1.4"/>
		</g>
		<g>
			<g>
				<circle class="st4" cx="1543.6" cy="441.3" r="1.4"/>
				<circle class="st4" cx="1675.3" cy="274.2" r="1.4"/>
				<circle class="st4" cx="1977.5" cy="265.2" r="1.4"/>
				<circle class="st4" cx="1486.5" cy="242.6" r="1.4"/>
				<circle class="st4" cx="1549.6" cy="175.3" r="1.4"/>
			</g>
		</g>
	</g>
</g>
<g>
	
		<ellipse transform="matrix(0.9341 -0.3569 0.3569 0.9341 -32.081 392.5392)" class="st5" cx="1047.6" cy="283.2" rx="2.2" ry="2.2"/>
	
		<ellipse transform="matrix(0.9342 -0.3569 0.3569 0.9342 -31.9003 392.82)" class="st6" cx="1048.5" cy="282.9" rx="2.2" ry="2.2"/>
	
		<ellipse transform="matrix(0.9341 -0.3569 0.3569 0.9341 -31.7111 393.1848)" class="st7" cx="1049.4" cy="282.5" rx="2.2" ry="2.2"/>
	
		<ellipse transform="matrix(0.9341 -0.3569 0.3569 0.9341 -31.528 393.489)" class="st8" cx="1050.4" cy="282.2" rx="2.1" ry="2.1"/>
	
		<ellipse transform="matrix(0.9341 -0.3569 0.3569 0.9341 -31.3475 393.7692)" class="st9" cx="1051.3" cy="281.8" rx="2.1" ry="2.1"/>
	
		<ellipse transform="matrix(0.9342 -0.3568 0.3568 0.9342 -31.1704 394.0161)" class="st10" cx="1052.2" cy="281.5" rx="2.1" ry="2.1"/>
	
		<ellipse transform="matrix(0.9342 -0.3568 0.3568 0.9342 -30.9861 394.3327)" class="st11" cx="1053.2" cy="281.1" rx="2.1" ry="2.1"/>
	
		<ellipse transform="matrix(0.9342 -0.3568 0.3568 0.9342 -30.8058 394.6116)" class="st12" cx="1054.1" cy="280.8" rx="2.1" ry="2.1"/>
	
		<ellipse transform="matrix(0.9342 -0.3568 0.3568 0.9342 -30.6291 394.8561)" class="st13" cx="1055" cy="280.5" rx="2.1" ry="2.1"/>
	
		<ellipse transform="matrix(0.9342 -0.3567 0.3567 0.9342 -30.4489 395.1336)" class="st14" cx="1056" cy="280.1" rx="2.1" ry="2.1"/>
	<ellipse transform="matrix(0.9342 -0.3568 0.3568 0.9342 -30.254 395.5507)" class="st15" cx="1056.9" cy="279.8" rx="2" ry="2"/>
	<ellipse transform="matrix(0.9342 -0.3568 0.3568 0.9342 -30.0766 395.8032)" class="st16" cx="1057.8" cy="279.4" rx="2" ry="2"/>
	<ellipse transform="matrix(0.9342 -0.3568 0.3568 0.9342 -29.8966 396.08)" class="st17" cx="1058.7" cy="279.1" rx="2" ry="2"/>
	<ellipse transform="matrix(0.9341 -0.3569 0.3569 0.9341 -29.6928 396.577)" class="st18" cx="1059.7" cy="278.7" rx="2" ry="2"/>
	<ellipse transform="matrix(0.9341 -0.3569 0.3569 0.9341 -29.5116 396.8645)" class="st19" cx="1060.6" cy="278.4" rx="2" ry="2"/>
	<ellipse transform="matrix(0.9342 -0.3569 0.3569 0.9342 -29.3326 397.1317)" class="st20" cx="1061.5" cy="278.1" rx="2" ry="2"/>
	
		<ellipse transform="matrix(0.9342 -0.3567 0.3567 0.9342 -29.1665 397.2815)" class="st21" cx="1062.5" cy="277.7" rx="1.9" ry="1.9"/>
	
		<ellipse transform="matrix(0.9342 -0.3568 0.3568 0.9342 -28.9723 397.6889)" class="st22" cx="1063.4" cy="277.4" rx="1.9" ry="1.9"/>
	
		<ellipse transform="matrix(0.9342 -0.3568 0.3568 0.9342 -28.7907 397.9808)" class="st23" cx="1064.3" cy="277" rx="1.9" ry="1.9"/>
	
		<ellipse transform="matrix(0.9342 -0.3567 0.3567 0.9342 -28.614 398.2287)" class="st24" cx="1065.3" cy="276.7" rx="1.9" ry="1.9"/>
	
		<ellipse transform="matrix(0.9342 -0.3567 0.3567 0.9342 -28.4345 398.5027)" class="st25" cx="1066.2" cy="276.3" rx="1.9" ry="1.9"/>
	
		<ellipse transform="matrix(0.9342 -0.3568 0.3568 0.9342 -28.2397 398.9136)" class="st26" cx="1067.1" cy="276" rx="1.9" ry="1.9"/>
	
		<ellipse transform="matrix(0.9342 -0.3567 0.3567 0.9342 -28.0633 399.1599)" class="st27" cx="1068.1" cy="275.7" rx="1.8" ry="1.8"/>
	
		<ellipse transform="matrix(0.9342 -0.3567 0.3567 0.9342 -27.8852 399.4221)" class="st28" cx="1069" cy="275.3" rx="1.8" ry="1.8"/>
	
		<ellipse transform="matrix(0.9342 -0.3568 0.3568 0.9342 -27.6899 399.8359)" class="st29" cx="1069.9" cy="275" rx="1.8" ry="1.8"/>
	
		<ellipse transform="matrix(0.9342 -0.3568 0.3568 0.9342 -27.5117 400.0979)" class="st30" cx="1070.8" cy="274.6" rx="1.8" ry="1.8"/>
	
		<ellipse transform="matrix(0.9342 -0.3567 0.3567 0.9342 -27.3325 400.3698)" class="st31" cx="1071.8" cy="274.3" rx="1.8" ry="1.8"/>
	
		<ellipse transform="matrix(0.9342 -0.3567 0.3567 0.9342 -27.1534 400.6411)" class="st32" cx="1072.7" cy="273.9" rx="1.8" ry="1.8"/>
	
		<ellipse transform="matrix(0.9342 -0.3568 0.3568 0.9342 -26.9609 401.0294)" class="st33" cx="1073.6" cy="273.6" rx="1.7" ry="1.7"/>
	
		<ellipse transform="matrix(0.9342 -0.3567 0.3567 0.9342 -26.7819 401.3003)" class="st34" cx="1074.6" cy="273.3" rx="1.7" ry="1.7"/>
	
		<ellipse transform="matrix(0.9342 -0.3567 0.3567 0.9342 -26.6078 401.5291)" class="st35" cx="1075.5" cy="272.9" rx="1.7" ry="1.7"/>
	
		<ellipse transform="matrix(0.9342 -0.3568 0.3568 0.9342 -26.4114 401.9497)" class="st36" cx="1076.4" cy="272.6" rx="1.7" ry="1.7"/>
	
		<ellipse transform="matrix(0.9342 -0.3567 0.3567 0.9342 -26.2289 402.2501)" class="st37" cx="1077.4" cy="272.2" rx="1.7" ry="1.7"/>
	
		<ellipse transform="matrix(0.9342 -0.3567 0.3567 0.9342 -26.0553 402.4765)" class="st38" cx="1078.3" cy="271.9" rx="1.7" ry="1.7"/>
	
		<ellipse transform="matrix(0.9342 -0.3566 0.3566 0.9342 -25.8768 402.7444)" class="st39" cx="1079.2" cy="271.5" rx="1.6" ry="1.6"/>
	
		<ellipse transform="matrix(0.9342 -0.3567 0.3567 0.9342 -25.6796 403.1697)" class="st40" cx="1080.1" cy="271.2" rx="1.6" ry="1.6"/>
	
		<ellipse transform="matrix(0.9343 -0.3566 0.3566 0.9343 -25.5195 403.2833)" class="st41" cx="1081.1" cy="270.9" rx="1.6" ry="1.6"/>
	
		<ellipse transform="matrix(0.9343 -0.3565 0.3565 0.9343 -25.3414 403.5486)" class="st42" cx="1082" cy="270.5" rx="1.6" ry="1.6"/>
	
		<ellipse transform="matrix(0.9343 -0.3565 0.3565 0.9343 -25.165 403.8004)" class="st43" cx="1082.9" cy="270.2" rx="1.6" ry="1.6"/>
	
		<ellipse transform="matrix(0.9342 -0.3567 0.3567 0.9342 -24.9513 404.361)" class="st44" cx="1083.9" cy="269.8" rx="1.6" ry="1.6"/>
	
		<ellipse transform="matrix(0.9342 -0.3567 0.3567 0.9342 -24.7706 404.647)" class="st45" cx="1084.8" cy="269.5" rx="1.6" ry="1.6"/>
	
		<ellipse transform="matrix(0.9342 -0.3566 0.3566 0.9342 -24.5952 404.8908)" class="st46" cx="1085.7" cy="269.1" rx="1.5" ry="1.5"/>
	
		<ellipse transform="matrix(0.9342 -0.3567 0.3567 0.9342 -24.3965 405.3251)" class="st47" cx="1086.7" cy="268.8" rx="1.5" ry="1.5"/>
	
		<ellipse transform="matrix(0.9342 -0.3567 0.3567 0.9342 -24.2201 405.5763)" class="st48" cx="1087.6" cy="268.5" rx="1.5" ry="1.5"/>
	
		<ellipse transform="matrix(0.9343 -0.3566 0.3566 0.9343 -24.0468 405.8046)" class="st49" cx="1088.5" cy="268.1" rx="1.5" ry="1.5"/>
	
		<ellipse transform="matrix(0.9343 -0.3566 0.3566 0.9343 -23.871 406.0528)" class="st50" cx="1089.4" cy="267.8" rx="1.5" ry="1.5"/>
	
		<ellipse transform="matrix(0.9343 -0.3566 0.3566 0.9343 -23.6885 406.3554)" class="st51" cx="1090.4" cy="267.4" rx="1.5" ry="1.5"/>
	
		<ellipse transform="matrix(0.9343 -0.3565 0.3565 0.9343 -23.5095 406.6291)" class="st52" cx="1091.3" cy="267.1" rx="1.4" ry="1.4"/>
	
		<ellipse transform="matrix(0.9343 -0.3565 0.3565 0.9343 -23.3343 406.8737)" class="st53" cx="1092.2" cy="266.7" rx="1.4" ry="1.4"/>
	
		<ellipse transform="matrix(0.9343 -0.3564 0.3564 0.9343 -23.1576 407.1311)" class="st54" cx="1093.2" cy="266.4" rx="1.4" ry="1.4"/>
	
		<ellipse transform="matrix(0.9343 -0.3565 0.3565 0.9343 -22.9639 407.523)" class="st55" cx="1094.1" cy="266.1" rx="1.4" ry="1.4"/>
	
		<ellipse transform="matrix(0.9343 -0.3565 0.3565 0.9343 -22.7872 407.7795)" class="st56" cx="1095" cy="265.7" rx="1.4" ry="1.4"/>
</g>
<g>
	
		<ellipse transform="matrix(0.9965 -8.342831e-02 8.342831e-02 0.9965 -29.8095 111.3605)" class="st57" cx="1317.6" cy="412.4" rx="4" ry="4"/>
	
		<ellipse transform="matrix(0.9965 -8.344096e-02 8.344096e-02 0.9965 -29.667 111.6423)" class="st58" cx="1320.8" cy="410.7" rx="4" ry="4"/>
	
		<ellipse transform="matrix(0.9965 -8.340173e-02 8.340173e-02 0.9965 -29.5089 111.8537)" class="st59" cx="1324.1" cy="409.1" rx="4" ry="4"/>
	
		<ellipse transform="matrix(0.9965 -8.341543e-02 8.341543e-02 0.9965 -29.3667 112.1369)" class="st60" cx="1327.3" cy="407.5" rx="3.9" ry="3.9"/>
	
		<ellipse transform="matrix(0.9965 -8.342617e-02 8.342617e-02 0.9965 -29.2235 112.4162)" class="st61" cx="1330.5" cy="405.9" rx="3.9" ry="3.9"/>
	
		<ellipse transform="matrix(0.9965 -8.339885e-02 8.339885e-02 0.9965 -29.0692 112.6434)" class="st62" cx="1333.8" cy="404.3" rx="3.9" ry="3.9"/>
	
		<ellipse transform="matrix(0.9965 -8.339997e-02 8.339997e-02 0.9965 -28.9232 112.9095)" class="st63" cx="1337" cy="402.7" rx="3.9" ry="3.9"/>
	
		<ellipse transform="matrix(0.9965 -8.347739e-02 8.347739e-02 0.9965 -28.7993 113.2804)" class="st64" cx="1340.3" cy="401" rx="3.9" ry="3.8"/>
	
		<ellipse transform="matrix(0.9965 -8.343690e-02 8.343690e-02 0.9965 -28.6412 113.4894)" class="st65" cx="1343.5" cy="399.4" rx="3.8" ry="3.8"/>
	
		<ellipse transform="matrix(0.9965 -8.345135e-02 8.345135e-02 0.9965 -28.499 113.774)" class="st66" cx="1346.7" cy="397.8" rx="3.8" ry="3.8"/>
	
		<ellipse transform="matrix(0.9965 -8.348688e-02 8.348688e-02 0.9965 -28.3626 114.0879)" class="st67" cx="1350" cy="396.2" rx="3.8" ry="3.8"/>
	
		<ellipse transform="matrix(0.9965 -8.343570e-02 8.343570e-02 0.9965 -28.2018 114.2818)" class="st68" cx="1353.2" cy="394.6" rx="3.8" ry="3.8"/>
	
		<ellipse transform="matrix(0.9965 -8.344930e-02 8.344930e-02 0.9965 -28.0592 114.5653)" class="st69" cx="1356.4" cy="392.9" rx="3.7" ry="3.7"/>
	
		<ellipse transform="matrix(0.9965 -8.347430e-02 8.347430e-02 0.9965 -27.9198 114.8648)" class="st70" cx="1359.7" cy="391.3" rx="3.7" ry="3.7"/>
	
		<ellipse transform="matrix(0.9965 -8.342203e-02 8.342203e-02 0.9965 -27.7589 115.0566)" class="st71" cx="1362.9" cy="389.7" rx="3.7" ry="3.7"/>
	
		<ellipse transform="matrix(0.9965 -8.343581e-02 8.343581e-02 0.9965 -27.6164 115.3405)" class="st72" cx="1366.2" cy="388.1" rx="3.7" ry="3.7"/>
	
		<ellipse transform="matrix(0.9965 -8.347267e-02 8.347267e-02 0.9965 -27.4801 115.6568)" class="st73" cx="1369.4" cy="386.5" rx="3.6" ry="3.6"/>
	
		<ellipse transform="matrix(0.9965 -8.341933e-02 8.341933e-02 0.9965 -27.3192 115.8467)" class="st74" cx="1372.6" cy="384.8" rx="3.6" ry="3.6"/>
	
		<ellipse transform="matrix(0.9965 -8.343453e-02 8.343453e-02 0.9965 -27.177 116.1327)" class="st75" cx="1375.9" cy="383.2" rx="3.6" ry="3.6"/>
	
		<ellipse transform="matrix(0.9965 -8.346046e-02 8.346046e-02 0.9965 -27.0375 116.4339)" class="st76" cx="1379.1" cy="381.6" rx="3.6" ry="3.6"/>
	
		<ellipse transform="matrix(0.9965 -8.347497e-02 8.347497e-02 0.9965 -26.8949 116.7192)" class="st77" cx="1382.4" cy="380" rx="3.5" ry="3.5"/>
	
		<ellipse transform="matrix(0.9965 -8.349087e-02 8.349087e-02 0.9965 -26.7527 117.0065)" class="st78" cx="1385.6" cy="378.4" rx="3.5" ry="3.5"/>
	
		<ellipse transform="matrix(0.9965 -8.351773e-02 8.351773e-02 0.9965 -26.6132 117.3095)" class="st79" cx="1388.8" cy="376.8" rx="3.5" ry="3.5"/>
	
		<ellipse transform="matrix(0.9965 -8.347327e-02 8.347327e-02 0.9965 -26.4552 117.5111)" class="st80" cx="1392.1" cy="375.1" rx="3.5" ry="3.5"/>
	
		<ellipse transform="matrix(0.9965 -8.348950e-02 8.348950e-02 0.9965 -26.313 117.799)" class="st81" cx="1395.3" cy="373.5" rx="3.4" ry="3.4"/>
	
		<ellipse transform="matrix(0.9965 -8.351814e-02 8.351814e-02 0.9965 -26.1738 118.1048)" class="st82" cx="1398.6" cy="371.9" rx="3.4" ry="3.4"/>
	
		<ellipse transform="matrix(0.9965 -8.345923e-02 8.345923e-02 0.9965 -26.0124 118.2853)" class="st83" cx="1401.8" cy="370.3" rx="3.4" ry="3.4"/>
	
		<ellipse transform="matrix(0.9965 -8.348806e-02 8.348806e-02 0.9965 -25.8732 118.5914)" class="st84" cx="1405" cy="368.7" rx="3.4" ry="3.4"/>
	
		<ellipse transform="matrix(0.9965 -8.350486e-02 8.350486e-02 0.9965 -25.731 118.8804)" class="st85" cx="1408.3" cy="367" rx="3.3" ry="3.3"/>
	
		<ellipse transform="matrix(0.9965 -8.345711e-02 8.345711e-02 0.9965 -25.5727 119.0765)" class="st86" cx="1411.5" cy="365.4" rx="3.3" ry="3.3"/>
	
		<ellipse transform="matrix(0.9965 -8.348656e-02 8.348656e-02 0.9965 -25.4335 119.3837)" class="st87" cx="1414.8" cy="363.8" rx="3.3" ry="3.3"/>
	
		<ellipse transform="matrix(0.9965 -8.350373e-02 8.350373e-02 0.9965 -25.2912 119.6734)" class="st88" cx="1418" cy="362.2" rx="3.3" ry="3.3"/>
	
		<ellipse transform="matrix(0.9965 -8.351988e-02 8.351988e-02 0.9965 -25.1486 119.9617)" class="st89" cx="1421.2" cy="360.6" rx="3.2" ry="3.2"/>
	
		<ellipse transform="matrix(0.9965 -8.354918e-02 8.354918e-02 0.9965 -25.0091 120.2692)" class="st90" cx="1424.5" cy="358.9" rx="3.2" ry="3.2"/>
	
		<ellipse transform="matrix(0.9965 -8.356720e-02 8.356720e-02 0.9965 -24.8668 120.5605)" class="st91" cx="1427.7" cy="357.3" rx="3.2" ry="3.2"/>
	
		<ellipse transform="matrix(0.9965 -8.350725e-02 8.350725e-02 0.9965 -24.7061 120.738)" class="st92" cx="1431" cy="355.7" rx="3.2" ry="3.2"/>
	
		<ellipse transform="matrix(0.9965 -8.354903e-02 8.354903e-02 0.9965 -24.5694 121.0641)" class="st93" cx="1434.2" cy="354.1" rx="3.1" ry="3.1"/>
	
		<ellipse transform="matrix(0.9965 -8.356748e-02 8.356748e-02 0.9965 -24.4271 121.3561)" class="st94" cx="1437.4" cy="352.5" rx="3.1" ry="3.1"/>
	
		<ellipse transform="matrix(0.9965 -8.350477e-02 8.350477e-02 0.9965 -24.266 121.529)" class="st95" cx="1440.7" cy="350.9" rx="3.1" ry="3.1"/>
	
		<ellipse transform="matrix(0.9965 -8.353668e-02 8.353668e-02 0.9965 -24.1268 121.8409)" class="st96" cx="1443.9" cy="349.2" rx="3.1" ry="3.1"/>
	
		<ellipse transform="matrix(0.9965 -8.355411e-02 8.355411e-02 0.9965 -23.9843 122.1316)" class="st97" cx="1447.2" cy="347.6" rx="3.1" ry="3"/>
	
		<ellipse transform="matrix(0.9965 -8.349116e-02 8.349116e-02 0.9965 -23.8235 122.3035)" class="st98" cx="1450.4" cy="346" rx="3" ry="3"/>
	
		<ellipse transform="matrix(0.9965 -8.353623e-02 8.353623e-02 0.9965 -23.6871 122.6351)" class="st99" cx="1453.6" cy="344.4" rx="3" ry="3"/>
	
		<ellipse transform="matrix(0.9965 -8.355407e-02 8.355407e-02 0.9965 -23.5445 122.9266)" class="st100" cx="1456.9" cy="342.8" rx="3" ry="3"/>
	
		<ellipse transform="matrix(0.9965 -8.350366e-02 8.350366e-02 0.9965 -23.3869 123.1166)" class="st101" cx="1460.1" cy="341.1" rx="3" ry="3"/>
	
		<ellipse transform="matrix(0.9965 -8.360629e-02 8.360629e-02 0.9965 -23.2626 123.5346)" class="st102" cx="1463.4" cy="339.5" rx="2.9" ry="2.9"/>
	
		<ellipse transform="matrix(0.9965 -8.362659e-02 8.362659e-02 0.9965 -23.1203 123.8301)" class="st103" cx="1466.6" cy="337.9" rx="2.9" ry="2.9"/>
	
		<ellipse transform="matrix(0.9965 -8.357408e-02 8.357408e-02 0.9965 -22.9624 124.0167)" class="st104" cx="1469.8" cy="336.3" rx="2.9" ry="2.9"/>
	
		<ellipse transform="matrix(0.9965 -8.360758e-02 8.360758e-02 0.9965 -22.8229 124.3321)" class="st105" cx="1473.1" cy="334.7" rx="2.9" ry="2.9"/>
	
		<ellipse transform="matrix(0.9965 -8.362842e-02 8.362842e-02 0.9965 -22.6805 124.6286)" class="st106" cx="1476.3" cy="333" rx="2.8" ry="2.8"/>
	
		<ellipse transform="matrix(0.9965 -8.357456e-02 8.357456e-02 0.9965 -22.5227 124.8127)" class="st107" cx="1479.6" cy="331.4" rx="2.8" ry="2.8"/>
	
		<ellipse transform="matrix(0.9965 -8.359398e-02 8.359398e-02 0.9965 -22.38 125.1071)" class="st56" cx="1482.8" cy="329.8" rx="2.8" ry="2.8"/>
</g>
<g>
	
		<ellipse transform="matrix(0.9566 -0.2915 0.2915 0.9566 -26.6608 541.823)" class="st57" cx="1805.1" cy="360.4" rx="2.9" ry="2.9"/>
	
		<ellipse transform="matrix(0.9566 -0.2915 0.2915 0.9566 -26.1101 542.291)" class="st58" cx="1807.1" cy="358.8" rx="2.8" ry="2.8"/>
	
		<ellipse transform="matrix(0.9566 -0.2915 0.2915 0.9566 -25.5544 542.8096)" class="st59" cx="1809.1" cy="357.2" rx="2.8" ry="2.8"/>
	
		<ellipse transform="matrix(0.9566 -0.2915 0.2915 0.9566 -25.0016 543.2984)" class="st60" cx="1811.1" cy="355.6" rx="2.8" ry="2.8"/>
	
		<ellipse transform="matrix(0.9566 -0.2914 0.2914 0.9566 -24.449 543.7869)" class="st61" cx="1813.1" cy="354" rx="2.8" ry="2.8"/>
	
		<ellipse transform="matrix(0.9566 -0.2914 0.2914 0.9566 -23.8998 544.2432)" class="st62" cx="1815.1" cy="352.4" rx="2.8" ry="2.8"/>
	
		<ellipse transform="matrix(0.9566 -0.2914 0.2914 0.9566 -23.3442 544.761)" class="st63" cx="1817.1" cy="350.7" rx="2.8" ry="2.8"/>
	
		<ellipse transform="matrix(0.9566 -0.2914 0.2914 0.9566 -22.7953 545.2162)" class="st64" cx="1819.2" cy="349.1" rx="2.7" ry="2.7"/>
	
		<ellipse transform="matrix(0.9566 -0.2914 0.2914 0.9566 -22.242 545.7127)" class="st65" cx="1821.2" cy="347.5" rx="2.7" ry="2.7"/>
	
		<ellipse transform="matrix(0.9566 -0.2914 0.2914 0.9566 -21.691 546.1891)" class="st66" cx="1823.2" cy="345.9" rx="2.7" ry="2.7"/>
	
		<ellipse transform="matrix(0.9566 -0.2914 0.2914 0.9566 -21.1346 546.7163)" class="st67" cx="1825.2" cy="344.3" rx="2.7" ry="2.7"/>
	
		<ellipse transform="matrix(0.9566 -0.2913 0.2913 0.9566 -20.5863 547.1689)" class="st68" cx="1827.2" cy="342.7" rx="2.7" ry="2.7"/>
	
		<ellipse transform="matrix(0.9566 -0.2913 0.2913 0.9566 -20.0357 547.6437)" class="st69" cx="1829.2" cy="341.1" rx="2.6" ry="2.6"/>
	
		<ellipse transform="matrix(0.9566 -0.2913 0.2913 0.9566 -19.4793 548.1705)" class="st70" cx="1831.2" cy="339.5" rx="2.6" ry="2.6"/>
	
		<ellipse transform="matrix(0.9566 -0.2913 0.2913 0.9566 -18.9277 548.6549)" class="st71" cx="1833.2" cy="337.9" rx="2.6" ry="2.6"/>
	
		<ellipse transform="matrix(0.9566 -0.2913 0.2913 0.9566 -18.3801 549.1047)" class="st72" cx="1835.2" cy="336.3" rx="2.6" ry="2.6"/>
	
		<ellipse transform="matrix(0.9567 -0.2912 0.2912 0.9567 -17.8328 549.5535)" class="st73" cx="1837.2" cy="334.7" rx="2.6" ry="2.6"/>
	
		<ellipse transform="matrix(0.9566 -0.2913 0.2913 0.9566 -17.2726 550.1143)" class="st74" cx="1839.2" cy="333.1" rx="2.6" ry="2.6"/>
	
		<ellipse transform="matrix(0.9567 -0.2912 0.2912 0.9567 -16.7268 550.5513)" class="st75" cx="1841.2" cy="331.5" rx="2.5" ry="2.5"/>
	
		<ellipse transform="matrix(0.9567 -0.2912 0.2912 0.9567 -16.1746 551.0438)" class="st76" cx="1843.2" cy="329.9" rx="2.5" ry="2.5"/>
	
		<ellipse transform="matrix(0.9567 -0.2912 0.2912 0.9567 -15.6251 551.5143)" class="st77" cx="1845.2" cy="328.3" rx="2.5" ry="2.5"/>
	
		<ellipse transform="matrix(0.9567 -0.2912 0.2912 0.9567 -15.0733 552.0043)" class="st78" cx="1847.2" cy="326.6" rx="2.5" ry="2.5"/>
	
		<ellipse transform="matrix(0.9567 -0.2911 0.2911 0.9567 -14.5228 552.4846)" class="st79" cx="1849.3" cy="325" rx="2.5" ry="2.5"/>
	
		<ellipse transform="matrix(0.9567 -0.2911 0.2911 0.9567 -13.9782 552.917)" class="st80" cx="1851.3" cy="323.4" rx="2.5" ry="2.5"/>
	
		<ellipse transform="matrix(0.9567 -0.2911 0.2911 0.9567 -13.4178 553.4785)" class="st81" cx="1853.3" cy="321.8" rx="2.4" ry="2.4"/>
	
		<ellipse transform="matrix(0.9567 -0.2911 0.2911 0.9567 -12.8676 553.9574)" class="st82" cx="1855.3" cy="320.2" rx="2.4" ry="2.4"/>
	
		<ellipse transform="matrix(0.9567 -0.291 0.291 0.9567 -12.3504 554.1755)" class="st83" cx="1857.3" cy="318.6" rx="2.4" ry="2.4"/>
	
		<ellipse transform="matrix(0.9567 -0.2909 0.2909 0.9567 -11.801 554.6512)" class="st84" cx="1859.3" cy="317" rx="2.4" ry="2.4"/>
	
		<ellipse transform="matrix(0.9567 -0.291 0.291 0.9567 -11.2409 555.2116)" class="st85" cx="1861.3" cy="315.4" rx="2.4" ry="2.4"/>
	
		<ellipse transform="matrix(0.9567 -0.2909 0.2909 0.9567 -10.698 555.6371)" class="st86" cx="1863.3" cy="313.8" rx="2.4" ry="2.4"/>
	
		<ellipse transform="matrix(0.9568 -0.2909 0.2909 0.9568 -10.1491 556.1111)" class="st87" cx="1865.3" cy="312.2" rx="2.3" ry="2.3"/>
	
		<ellipse transform="matrix(0.9568 -0.2909 0.2909 0.9568 -9.5939 556.6332)" class="st88" cx="1867.3" cy="310.6" rx="2.3" ry="2.3"/>
	<ellipse transform="matrix(0.9568 -0.2909 0.2909 0.9568 -9.052 557.0555)" class="st89" cx="1869.3" cy="309" rx="2.3" ry="2.3"/>
	
		<ellipse transform="matrix(0.9568 -0.2908 0.2908 0.9568 -8.5019 557.5395)" class="st90" cx="1871.3" cy="307.4" rx="2.3" ry="2.3"/>
	
		<ellipse transform="matrix(0.9568 -0.2908 0.2908 0.9568 -7.9589 557.9711)" class="st91" cx="1873.3" cy="305.8" rx="2.3" ry="2.3"/>
	
		<ellipse transform="matrix(0.9568 -0.2908 0.2908 0.9568 -7.4004 558.5198)" class="st92" cx="1875.3" cy="304.2" rx="2.3" ry="2.3"/>
	
		<ellipse transform="matrix(0.9568 -0.2908 0.2908 0.9568 -6.8579 558.9498)" class="st93" cx="1877.3" cy="302.6" rx="2.2" ry="2.2"/>
	
		<ellipse transform="matrix(0.9568 -0.2907 0.2907 0.9568 -6.3158 559.3782)" class="st94" cx="1879.4" cy="300.9" rx="2.2" ry="2.2"/>
	
		<ellipse transform="matrix(0.9568 -0.2907 0.2907 0.9568 -5.7683 559.8462)" class="st95" cx="1881.4" cy="299.3" rx="2.2" ry="2.2"/>
	
		<ellipse transform="matrix(0.9568 -0.2907 0.2907 0.9568 -5.2098 560.3945)" class="st96" cx="1883.4" cy="297.7" rx="2.2" ry="2.2"/>
	
		<ellipse transform="matrix(0.9568 -0.2907 0.2907 0.9568 -4.6667 560.8325)" class="st97" cx="1885.4" cy="296.1" rx="2.2" ry="2.2"/>
	
		<ellipse transform="matrix(0.9568 -0.2907 0.2907 0.9568 -4.1216 561.2858)" class="st98" cx="1887.4" cy="294.5" rx="2.1" ry="2.1"/>
	
		<ellipse transform="matrix(0.9568 -0.2906 0.2906 0.9568 -3.5734 561.762)" class="st99" cx="1889.4" cy="292.9" rx="2.1" ry="2.1"/>
	
		<ellipse transform="matrix(0.9568 -0.2906 0.2906 0.9568 -3.0269 562.2263)" class="st100" cx="1891.4" cy="291.3" rx="2.1" ry="2.1"/>
	
		<ellipse transform="matrix(0.9568 -0.2906 0.2906 0.9568 -2.4806 562.6897)" class="st101" cx="1893.4" cy="289.7" rx="2.1" ry="2.1"/>
	
		<ellipse transform="matrix(0.9569 -0.2905 0.2905 0.9569 -1.941 563.1085)" class="st102" cx="1895.4" cy="288.1" rx="2.1" ry="2.1"/>
	
		<ellipse transform="matrix(0.9569 -0.2905 0.2905 0.9569 -1.3872 563.6253)" class="st103" cx="1897.4" cy="286.5" rx="2.1" ry="2.1"/>
	<ellipse transform="matrix(0.9569 -0.2905 0.2905 0.9569 -0.8436 564.0725)" class="st104" cx="1899.4" cy="284.9" rx="2" ry="2"/>
	<ellipse transform="matrix(0.9569 -0.2905 0.2905 0.9569 -0.305 564.4872)" class="st105" cx="1901.4" cy="283.3" rx="2" ry="2"/>
	<ellipse transform="matrix(0.9569 -0.2904 0.2904 0.9569 0.242 564.959)" class="st106" cx="1903.4" cy="281.7" rx="2" ry="2"/>
	<ellipse transform="matrix(0.9569 -0.2904 0.2904 0.9569 0.7912 565.4464)" class="st107" cx="1905.4" cy="280.1" rx="2" ry="2"/>
	<ellipse transform="matrix(0.9569 -0.2904 0.2904 0.9569 1.3378 565.9168)" class="st56" cx="1907.4" cy="278.5" rx="2" ry="2"/>
</g>
<g>
	
		<ellipse transform="matrix(0.9968 -8.025046e-02 8.025046e-02 0.9968 -72.4443 13.6731)" class="st57" cx="133.9" cy="908.1" rx="5.9" ry="5.9"/>
	
		<ellipse transform="matrix(0.9968 -8.024269e-02 8.024269e-02 0.9968 -72.2325 14.0464)" class="st58" cx="138.7" cy="905.7" rx="5.9" ry="5.9"/>
	
		<ellipse transform="matrix(0.9968 -8.023249e-02 8.023249e-02 0.9968 -72.0186 14.4192)" class="st59" cx="143.4" cy="903.4" rx="5.8" ry="5.8"/>
	
		<ellipse transform="matrix(0.9968 -8.021457e-02 8.021457e-02 0.9968 -71.798 14.7902)" class="st60" cx="148.2" cy="901" rx="5.8" ry="5.8"/>
	
		<ellipse transform="matrix(0.9968 -8.020574e-02 8.020574e-02 0.9968 -71.5855 15.163)" class="st61" cx="153" cy="898.7" rx="5.8" ry="5.8"/>
	
		<ellipse transform="matrix(0.9968 -8.019681e-02 8.019681e-02 0.9968 -71.3729 15.5358)" class="st62" cx="157.7" cy="896.3" rx="5.7" ry="5.7"/>
	
		<ellipse transform="matrix(0.9968 -8.018675e-02 8.018675e-02 0.9968 -71.1594 15.9082)" class="st63" cx="162.5" cy="893.9" rx="5.7" ry="5.7"/>
	
		<ellipse transform="matrix(0.9968 -8.016809e-02 8.016809e-02 0.9968 -70.9385 16.2784)" class="st64" cx="167.3" cy="891.6" rx="5.7" ry="5.7"/>
	
		<ellipse transform="matrix(0.9968 -8.015875e-02 8.015875e-02 0.9968 -70.7257 16.6508)" class="st65" cx="172" cy="889.2" rx="5.6" ry="5.6"/>
	
		<ellipse transform="matrix(0.9968 -8.014394e-02 8.014394e-02 0.9968 -70.5083 17.0217)" class="st66" cx="176.8" cy="886.9" rx="5.6" ry="5.6"/>
	
		<ellipse transform="matrix(0.9968 -8.012900e-02 8.012900e-02 0.9968 -70.2908 17.3925)" class="st67" cx="181.6" cy="884.5" rx="5.6" ry="5.5"/>
	
		<ellipse transform="matrix(0.9968 -8.003815e-02 8.003815e-02 0.9968 -70.0076 17.7435)" class="st68" cx="186.3" cy="882.1" rx="5.5" ry="5.5"/>
	
		<ellipse transform="matrix(0.9968 -8.010389e-02 8.010389e-02 0.9968 -69.8602 18.1348)" class="st69" cx="191.1" cy="879.8" rx="5.5" ry="5.5"/>
	
		<ellipse transform="matrix(0.9968 -8.009748e-02 8.009748e-02 0.9968 -69.6503 18.5074)" class="st70" cx="195.9" cy="877.4" rx="5.4" ry="5.4"/>
	
		<ellipse transform="matrix(0.9968 -8.007812e-02 8.007812e-02 0.9968 -69.4293 18.8765)" class="st71" cx="200.6" cy="875.1" rx="5.4" ry="5.4"/>
	
		<ellipse transform="matrix(0.9968 -7.997454e-02 7.997454e-02 0.9968 -69.1363 19.2222)" class="st72" cx="205.4" cy="872.7" rx="5.4" ry="5.4"/>
	
		<ellipse transform="matrix(0.9968 -7.995779e-02 7.995779e-02 0.9968 -68.918 19.5912)" class="st73" cx="210.2" cy="870.3" rx="5.3" ry="5.3"/>
	
		<ellipse transform="matrix(0.9968 -8.003536e-02 8.003536e-02 0.9968 -68.78 19.987)" class="st74" cx="214.9" cy="868" rx="5.3" ry="5.3"/>
	
		<ellipse transform="matrix(0.9968 -8.001506e-02 8.001506e-02 0.9968 -68.5586 20.3551)" class="st75" cx="219.7" cy="865.6" rx="5.3" ry="5.3"/>
	
		<ellipse transform="matrix(0.9968 -8.001656e-02 8.001656e-02 0.9968 -68.3557 20.7295)" class="st76" cx="224.5" cy="863.3" rx="5.2" ry="5.2"/>
	
		<ellipse transform="matrix(0.9968 -7.990016e-02 7.990016e-02 0.9968 -68.0535 21.0687)" class="st77" cx="229.2" cy="860.9" rx="5.2" ry="5.2"/>
	
		<ellipse transform="matrix(0.9968 -7.997866e-02 7.997866e-02 0.9968 -67.9156 21.4659)" class="st78" cx="234" cy="858.5" rx="5.2" ry="5.2"/>
	
		<ellipse transform="matrix(0.9968 -7.995818e-02 7.995818e-02 0.9968 -67.6944 21.8333)" class="st79" cx="238.8" cy="856.2" rx="5.1" ry="5.1"/>
	
		<ellipse transform="matrix(0.9968 -7.994947e-02 7.994947e-02 0.9968 -67.4832 22.2043)" class="st80" cx="243.5" cy="853.8" rx="5.1" ry="5.1"/>
	
		<ellipse transform="matrix(0.9968 -7.983334e-02 7.983334e-02 0.9968 -67.1827 22.5412)" class="st81" cx="248.3" cy="851.5" rx="5.1" ry="5.1"/>
	
		<ellipse transform="matrix(0.9968 -7.981059e-02 7.981059e-02 0.9968 -66.9602 22.9069)" class="st82" cx="253.1" cy="849.1" rx="5" ry="5"/>
	
		<ellipse transform="matrix(0.9968 -7.990123e-02 7.990123e-02 0.9968 -66.8315 23.3095)" class="st83" cx="257.8" cy="846.7" rx="5" ry="5"/>
	
		<ellipse transform="matrix(0.9968 -7.988869e-02 7.988869e-02 0.9968 -66.6173 23.6787)" class="st84" cx="262.6" cy="844.4" rx="4.9" ry="4.9"/>
	
		<ellipse transform="matrix(0.9968 -7.976875e-02 7.976875e-02 0.9968 -66.3151 24.0119)" class="st85" cx="267.4" cy="842" rx="4.9" ry="4.9"/>
	
		<ellipse transform="matrix(0.9968 -7.974889e-02 7.974889e-02 0.9968 -66.0954 24.378)" class="st86" cx="272.1" cy="839.7" rx="4.9" ry="4.9"/>
	
		<ellipse transform="matrix(0.9968 -7.973495e-02 7.973495e-02 0.9968 -65.8806 24.7459)" class="st87" cx="276.9" cy="837.3" rx="4.8" ry="4.8"/>
	
		<ellipse transform="matrix(0.9968 -7.981309e-02 7.981309e-02 0.9968 -65.7407 25.1458)" class="st88" cx="281.7" cy="834.9" rx="4.8" ry="4.8"/>
	
		<ellipse transform="matrix(0.9968 -7.968977e-02 7.968977e-02 0.9968 -65.4373 25.4752)" class="st89" cx="286.5" cy="832.6" rx="4.8" ry="4.8"/>
	
		<ellipse transform="matrix(0.9968 -7.967927e-02 7.967927e-02 0.9968 -65.2256 25.8439)" class="st90" cx="291.2" cy="830.2" rx="4.7" ry="4.7"/>
	
		<ellipse transform="matrix(0.9968 -7.966439e-02 7.966439e-02 0.9968 -65.0104 26.2109)" class="st91" cx="296" cy="827.9" rx="4.7" ry="4.7"/>
	
		<ellipse transform="matrix(0.9968 -7.974864e-02 7.974864e-02 0.9968 -64.8748 26.6142)" class="st92" cx="300.8" cy="825.5" rx="4.7" ry="4.7"/>
	
		<ellipse transform="matrix(0.9968 -7.972760e-02 7.972760e-02 0.9968 -64.6546 26.9791)" class="st93" cx="305.5" cy="823.1" rx="4.6" ry="4.6"/>
	
		<ellipse transform="matrix(0.9968 -7.960533e-02 7.960533e-02 0.9968 -64.3539 27.3057)" class="st94" cx="310.3" cy="820.8" rx="4.6" ry="4.6"/>
	<path class="st95" d="M319.6,818.1c0.2,2.5-1.7,4.7-4.2,4.9c-2.5,0.2-4.7-1.7-4.9-4.2c-0.2-2.5,1.7-4.7,4.2-4.9
		C317.2,813.7,319.4,815.5,319.6,818.1z"/>
	<path class="st96" d="M324.3,815.7c0.2,2.5-1.7,4.7-4.1,4.9c-2.5,0.2-4.7-1.7-4.9-4.1c-0.2-2.5,1.7-4.7,4.1-4.9
		C322,811.4,324.1,813.2,324.3,815.7z"/>
	
		<ellipse transform="matrix(0.9968 -7.964234e-02 7.964234e-02 0.9968 -63.774 28.4363)" class="st97" cx="324.6" cy="813.7" rx="4.5" ry="4.5"/>
	<path class="st98" d="M333.8,811c0.2,2.4-1.6,4.6-4.1,4.8c-2.4,0.2-4.6-1.6-4.8-4.1c-0.2-2.4,1.6-4.6,4.1-4.8
		C331.5,806.7,333.6,808.5,333.8,811z"/>
	<path class="st99" d="M338.5,808.6c0.2,2.4-1.6,4.5-4,4.7c-2.4,0.2-4.5-1.6-4.7-4c-0.2-2.4,1.6-4.6,4-4.7
		C336.2,804.4,338.3,806.2,338.5,808.6z"/>
	<path class="st100" d="M343.3,806.3c0.2,2.4-1.6,4.5-4,4.7c-2.4,0.2-4.5-1.6-4.7-4c-0.2-2.4,1.6-4.5,4-4.7
		C341,802.1,343.1,803.9,343.3,806.3z"/>
	<path class="st101" d="M348,803.9c0.2,2.4-1.6,4.5-4,4.7c-2.4,0.2-4.5-1.6-4.7-4c-0.2-2.4,1.6-4.5,4-4.7
		C345.7,799.7,347.8,801.5,348,803.9z"/>
	<path class="st102" d="M352.7,801.6c0.2,2.4-1.6,4.4-3.9,4.6c-2.4,0.2-4.4-1.6-4.6-3.9c-0.2-2.4,1.6-4.4,3.9-4.6
		C350.5,797.4,352.5,799.2,352.7,801.6z"/>
	<path class="st103" d="M357.5,799.2c0.2,2.3-1.6,4.4-3.9,4.6c-2.3,0.2-4.4-1.6-4.6-3.9c-0.2-2.4,1.6-4.4,3.9-4.6
		C355.2,795.1,357.3,796.8,357.5,799.2z"/>
	<path class="st104" d="M362.2,796.8c0.2,2.3-1.6,4.4-3.9,4.5c-2.3,0.2-4.4-1.5-4.6-3.9c-0.2-2.3,1.5-4.4,3.9-4.6
		C360,792.8,362,794.5,362.2,796.8z"/>
	<path class="st105" d="M366.9,794.5c0.2,2.3-1.5,4.3-3.8,4.5c-2.3,0.2-4.3-1.5-4.5-3.8c-0.2-2.3,1.5-4.3,3.8-4.5
		C364.7,790.4,366.7,792.2,366.9,794.5z"/>
	<path class="st106" d="M371.7,792.1c0.2,2.3-1.5,4.3-3.8,4.5c-2.3,0.2-4.3-1.5-4.5-3.8c-0.2-2.3,1.5-4.3,3.8-4.5
		C369.5,788.1,371.5,789.8,371.7,792.1z"/>
	<path class="st107" d="M376.4,789.8c0.2,2.3-1.5,4.3-3.8,4.4c-2.3,0.2-4.3-1.5-4.4-3.8c-0.2-2.3,1.5-4.3,3.8-4.4
		C374.2,785.8,376.2,787.5,376.4,789.8z"/>
	<path class="st56" d="M381.1,787.4c0.2,2.2-1.5,4.2-3.8,4.4c-2.3,0.2-4.2-1.5-4.4-3.7c-0.2-2.3,1.5-4.2,3.7-4.4
		C379,783.5,380.9,785.2,381.1,787.4z"/>
</g>
<g class="st1">
	<path class="st2" d="M1257.5,167.8c0,1.6,1.3,3,3,3c1.6,0,3-1.3,3-3c0-1.7-1.3-3-3-3C1258.8,164.8,1257.5,166.1,1257.5,167.8z"/>
	<circle class="st2" cx="1134.8" cy="207.2" r="3"/>
	<path class="st2" d="M1285.8,281.6c0,1.6,1.3,3,3,3c1.6,0,3-1.3,3-3c0-1.6-1.3-3-3-3C1287.1,278.6,1285.8,280,1285.8,281.6z"/>
	<path class="st2" d="M987.5,141.8c0,1.6,1.3,3,3,3c1.6,0,3-1.3,3-3c0-1.7-1.3-3-3-3C988.8,138.8,987.5,140.1,987.5,141.8z"/>
	<circle class="st2" cx="1123.6" cy="283.8" r="3"/>
</g>
<g class="st1">
	<ellipse class="st2" cx="1812.2" cy="383.2" rx="3" ry="3"/>
	<circle class="st2" cx="1686.5" cy="422.7" r="3"/>
	<ellipse class="st2" cx="1840.5" cy="497" rx="3" ry="3"/>
	<circle class="st2" cx="1542.2" cy="357.2" r="3"/>
	<path class="st2" d="M1672.4,499.3c0,1.6,1.3,3,3,3c1.6,0,3-1.3,3-3c0-1.6-1.3-3-3-3C1673.7,496.3,1672.4,497.6,1672.4,499.3z"/>
</g>
<g>
	<g>
		<path class="st3" d="M1995.7,811.6c0,2.5,2,4.6,4.6,4.6c2.5,0,4.6-2,4.6-4.6c0-2.5-2-4.6-4.6-4.6
			C1997.7,807,1995.7,809.1,1995.7,811.6z"/>
		<circle class="st3" cx="1807.6" cy="872" r="4.6"/>
		<path class="st3" d="M2039,986c0,2.5,2,4.6,4.6,4.6c2.5,0,4.6-2,4.6-4.6c0-2.5-2-4.6-4.6-4.6C2041,981.4,2039,983.5,2039,986z"/>
		<circle class="st3" cx="1586.5" cy="771.7" r="4.6"/>
		<path class="st3" d="M1786,989.4c0,2.5,2,4.6,4.6,4.6c2.5,0,4.6-2.1,4.6-4.6c0-2.5-2-4.6-4.6-4.6
			C1788,984.8,1786,986.9,1786,989.4z"/>
	</g>
</g>
<circle class="st2" cx="665.1" cy="10.1" r="3"/>
<circle class="st2" cx="943.3" cy="363.1" r="3"/>
<circle class="st2" cx="1841.1" cy="639.4" r="3"/>
<circle class="st2" cx="1532.1" cy="111.4" r="3"/>
<circle class="st2" cx="128" cy="549.4" r="3"/>
<circle class="st2" cx="1457" cy="930.4" r="3"/>
<circle class="st2" cx="770" cy="180.4" r="3"/>
<circle class="st2" cx="64.9" cy="81.4" r="3"/>
<circle class="st2" cx="1581.7" cy="382.3" r="3"/>
<circle class="st2" cx="1991.1" cy="585.4" r="3"/>
<path class="st2" d="M674.7,572.1c0,1.6,1.3,3,3,3c1.6,0,3-1.3,3-3c0-1.6-1.3-3-3-3C676,569.1,674.7,570.4,674.7,572.1z"/>
<g>
	<g>
		<ellipse class="st4" cx="1099.8" cy="65.8" rx="3" ry="3"/>
		<ellipse class="st4" cx="1377.9" cy="418.8" rx="3" ry="3"/>
		<path class="st4" d="M2013.4,438c0,1.6,1.3,3,3,3c1.7,0,3-1.3,3-3c0-1.6-1.3-3-3-3C2014.7,435,2013.4,436.3,2013.4,438z"/>
		<path class="st4" d="M976.2,485.7c0,1.6,1.3,3,3,3c1.6,0,3-1.3,3-3c0-1.6-1.3-3-3-3C977.5,482.7,976.2,484.1,976.2,485.7z"/>
		<circle class="st4" cx="1112.3" cy="627.8" r="3"/>
	</g>
</g>
</svg>
