<?xml version="1.0" encoding="utf-8"?>
<!-- Generator: Adobe Illustrator 19.2.1, SVG Export Plug-In . SVG Version: 6.00 Build 0)  -->
<svg version="1.1" id="Layer_1" xmlns="http://www.w3.org/2000/svg" xmlns:xlink="http://www.w3.org/1999/xlink" x="0px" y="0px"
	 viewBox="0 0 288 288" style="enable-background:new 0 0 288 288;" xml:space="preserve">
<metadata><?xpacket begin="﻿" id="W5M0MpCehiHzreSzNTczkc9d"?>
<x:xmpmeta xmlns:x="adobe:ns:meta/" x:xmptk="Adobe XMP Core 5.6-c111 79.158366, 2015/09/25-01:12:00        ">
   <rdf:RDF xmlns:rdf="http://www.w3.org/1999/02/22-rdf-syntax-ns#">
      <rdf:Description rdf:about=""/>
   </rdf:RDF>
</x:xmpmeta>
                                                                                                    
                                                                                                    
                                                                                                    
                                                                                                    
                                                                                                    
                                                                                                    
                                                                                                    
                                                                                                    
                                                                                                    
                                                                                                    
                                                                                                    
                                                                                                    
                                                                                                    
                                                                                                    
                                                                                                    
                                                                                                    
                                                                                                    
                                                                                                    
                                                                                                    
                                                                                                    
                           
<?xpacket end="w"?></metadata>
<style type="text/css">
	.st0{opacity:0.4;}
	.st1{opacity:0;fill:#001E2B;}
	.st2{opacity:1.960784e-02;fill:#001E2B;}
	.st3{opacity:3.921569e-02;fill:#001E2B;}
	.st4{opacity:5.882353e-02;fill:#001E2B;}
	.st5{opacity:7.843138e-02;fill:#001E2B;}
	.st6{opacity:9.803922e-02;fill:#001E2B;}
	.st7{opacity:0.1176;fill:#001E2B;}
	.st8{opacity:0.1373;fill:#001E2B;}
	.st9{opacity:0.1569;fill:#001E2B;}
	.st10{opacity:0.1765;fill:#001E2B;}
	.st11{opacity:0.1961;fill:#001E2B;}
	.st12{opacity:0.2157;fill:#001E2B;}
	.st13{opacity:0.2353;fill:#001E2B;}
	.st14{opacity:0.2549;fill:#001E2B;}
	.st15{opacity:0.2745;fill:#001E2B;}
	.st16{opacity:0.2941;fill:#001E2B;}
	.st17{opacity:0.3137;fill:#001E2B;}
	.st18{opacity:0.3333;fill:#001E2B;}
	.st19{opacity:0.3529;fill:#001E2B;}
	.st20{opacity:0.3725;fill:#001E2B;}
	.st21{opacity:0.3922;fill:#001E2B;}
	.st22{opacity:0.4118;fill:#001E2B;}
	.st23{opacity:0.4314;fill:#001E2B;}
	.st24{opacity:0.451;fill:#001E2B;}
	.st25{opacity:0.4706;fill:#001E2B;}
	.st26{opacity:0.4902;fill:#001E2B;}
	.st27{opacity:0.5098;fill:#001E2B;}
	.st28{opacity:0.5294;fill:#001E2B;}
	.st29{opacity:0.549;fill:#001E2B;}
	.st30{opacity:0.5686;fill:#001E2B;}
	.st31{opacity:0.5882;fill:#001E2B;}
	.st32{opacity:0.6078;fill:#001E2B;}
	.st33{opacity:0.6275;fill:#001E2B;}
	.st34{opacity:0.6471;fill:#001E2B;}
	.st35{opacity:0.6667;fill:#001E2B;}
	.st36{opacity:0.6863;fill:#001E2B;}
	.st37{opacity:0.7059;fill:#001E2B;}
	.st38{opacity:0.7255;fill:#001E2B;}
	.st39{opacity:0.7451;fill:#001E2B;}
	.st40{opacity:0.7647;fill:#001E2B;}
	.st41{opacity:0.7843;fill:#001E2B;}
	.st42{opacity:0.8039;fill:#001E2B;}
	.st43{opacity:0.8235;fill:#001E2B;}
	.st44{opacity:0.8431;fill:#001E2B;}
	.st45{opacity:0.8627;fill:#001E2B;}
	.st46{opacity:0.8824;fill:#001E2B;}
	.st47{opacity:0.902;fill:#001E2B;}
	.st48{opacity:0.9216;fill:#001E2B;}
	.st49{opacity:0.9412;fill:#001E2B;}
	.st50{opacity:0.9608;fill:#001E2B;}
	.st51{opacity:0.9804;fill:#001E2B;}
	.st52{fill:#001E2B;}
	.st53{opacity:0.1;fill:#FBAE3B;}
	.st54{fill:#00478C;}
	.st55{fill:#0054A6;}
	.st56{fill:#0076BE;}
	.st57{fill:#5EAEE0;}
	.st58{fill:#8CC6EC;}
	.st59{opacity:0.8;}
	.st60{fill:#A2DADE;}
</style>
<g>
	<g class="st0">
		<circle class="st1" cx="206.7" cy="210.2" r="64.2"/>
		<circle class="st2" cx="204.6" cy="208" r="64.2"/>
		<circle class="st3" cx="202.6" cy="205.8" r="64.2"/>
		<circle class="st4" cx="200.5" cy="203.7" r="64.2"/>
		<circle class="st5" cx="198.5" cy="201.5" r="64.2"/>
		<circle class="st6" cx="196.4" cy="199.3" r="64.2"/>
		<circle class="st7" cx="194.4" cy="197.1" r="64.2"/>
		<circle class="st8" cx="192.4" cy="194.9" r="64.2"/>
		<circle class="st9" cx="190.3" cy="192.7" r="64.2"/>
		<circle class="st10" cx="188.3" cy="190.5" r="64.2"/>
		<circle class="st11" cx="186.2" cy="188.3" r="64.2"/>
		<circle class="st12" cx="184.2" cy="186.2" r="64.2"/>
		<circle class="st13" cx="182.1" cy="184" r="64.2"/>
		<circle class="st14" cx="180.1" cy="181.8" r="64.2"/>
		<circle class="st15" cx="178" cy="179.6" r="64.2"/>
		<circle class="st16" cx="176" cy="177.4" r="64.2"/>
		<circle class="st17" cx="173.9" cy="175.2" r="64.2"/>
		<circle class="st18" cx="171.9" cy="173" r="64.2"/>
		<circle class="st19" cx="169.8" cy="170.9" r="64.2"/>
		<circle class="st20" cx="167.8" cy="168.7" r="64.2"/>
		<circle class="st21" cx="165.8" cy="166.5" r="64.2"/>
		<circle class="st22" cx="163.7" cy="164.3" r="64.2"/>
		<circle class="st23" cx="161.7" cy="162.1" r="64.2"/>
		<circle class="st24" cx="159.6" cy="159.9" r="64.2"/>
		<circle class="st25" cx="157.6" cy="157.7" r="64.2"/>
		<circle class="st26" cx="155.5" cy="155.6" r="64.2"/>
		<circle class="st27" cx="153.5" cy="153.4" r="64.2"/>
		<circle class="st28" cx="151.4" cy="151.2" r="64.2"/>
		<circle class="st29" cx="149.4" cy="149" r="64.2"/>
		<circle class="st30" cx="147.3" cy="146.8" r="64.2"/>
		<circle class="st31" cx="145.3" cy="144.6" r="64.2"/>
		<circle class="st32" cx="143.2" cy="142.4" r="64.2"/>
		<circle class="st33" cx="141.2" cy="140.2" r="64.2"/>
		<circle class="st34" cx="139.1" cy="138.1" r="64.2"/>
		<circle class="st35" cx="137.1" cy="135.9" r="64.2"/>
		<circle class="st36" cx="135.1" cy="133.7" r="64.2"/>
		<circle class="st37" cx="133" cy="131.5" r="64.2"/>
		<circle class="st38" cx="131" cy="129.3" r="64.2"/>
		<circle class="st39" cx="128.9" cy="127.1" r="64.2"/>
		<circle class="st40" cx="126.9" cy="124.9" r="64.2"/>
		<circle class="st41" cx="124.8" cy="122.8" r="64.2"/>
		<circle class="st42" cx="122.8" cy="120.6" r="64.2"/>
		<circle class="st43" cx="120.7" cy="118.4" r="64.2"/>
		<circle class="st44" cx="118.7" cy="116.2" r="64.2"/>
		<circle class="st45" cx="116.6" cy="114" r="64.2"/>
		<circle class="st46" cx="114.6" cy="111.8" r="64.2"/>
		<circle class="st47" cx="112.5" cy="109.6" r="64.2"/>
		<circle class="st48" cx="110.5" cy="107.5" r="64.2"/>
		<circle class="st49" cx="108.5" cy="105.3" r="64.2"/>
		<circle class="st50" cx="106.4" cy="103.1" r="64.2"/>
		<circle class="st51" cx="104.4" cy="100.9" r="64.2"/>
		<circle class="st52" cx="102.3" cy="98.7" r="64.2"/>
	</g>
	<circle class="st53" cx="102.1" cy="99.4" r="85.1"/>
	<circle class="st53" cx="102.1" cy="99.4" r="76.6"/>
	<g>
		<circle class="st54" cx="101.5" cy="100.4" r="64.5"/>
		<path class="st55" d="M166,100.4c0,5.6-2.1,9.9-7.7,12.2c-5.1,2-7.6,1.7-10.7,6.9c-2.2,3.8-2.7,6.7-7.2,8.2
			c-4.8,1.6-9.5-0.1-14.1-0.8c-5-0.8-9.8,0.3-14.4,3.1c-4.8,3-7,9.7-11.7,12.1c-9.5,4.9-18.4-9-26.6-10.7c-6.1-1.3-7.6,1.2-12.5,4
			c-18.1,10.3-23.3-23.3-23.3-35.1c0-35.4,28.7-64.2,64.2-64.2C137.3,36.2,166,65,166,100.4z"/>
		<path class="st56" d="M132.8,76.3c-4.6,3.2-4.8,9.1-5.1,14.3c-0.4,10,0.5,25.7-12.9,25.4c-4.7-0.1-8-3.3-12.5-2.4
			c-4.5,0.9-8.2,5.6-10.2,9.3c-1.6,2.9-3,9.8-6,11.4c-3.9,2-8.2-5.4-13.2-6.4c-5.8-1.2-7.3,1.2-11.9,3.8
			C43.8,141.4,39,109.4,39,98.2c0-33.7,27.3-61,61-61c12,0,23.8,3.6,33.7,10.2c4.6,3,10.2,7.1,13.2,11.9
			C149,62.7,136.2,73.9,132.8,76.3z"/>
		<path class="st57" d="M94.4,86.2c0.8,3.2,0.8,6.2-1,8.9c-2.3,3.5-7,2.2-9.9,4.6c-3.5,2.8-4.1,9-4.5,13.1c-0.4,3.1-0.8,9-4,10.8
			c-2.7,1.5-5.8-0.3-8.6,0.4c-2,0.5-3.7,2.2-5.5,3.2c-15.5,8.8-19.9-19.9-19.9-30c0-20.1,11.3-38.9,29-48.4
			c4.7-2.5,23.7-10.6,27.8-5.5c4.8,6-8.2,15.8-9.3,21.3C87.1,71.4,92.7,79.2,94.4,86.2z"/>
		<path class="st58" d="M70.9,88.7c0.4,2.4,0.4,4.6-0.5,6.6c-1.2,2.6-3.5,1.7-5,3.4c-1.7,2.1-2,6.7-2.3,9.7c-0.2,2.3-0.4,6.7-2,8
			c-1.3,1.1-2.9-0.2-4.3,0.3c-1,0.4-1.9,1.6-2.8,2.3c-7.7,6.5-9.9-14.7-9.9-22.2C44.1,82,49.8,68,58.7,61c2.3-1.9,11.8-7.9,13.9-4
			c2.4,4.5-4.1,11.7-4.6,15.8C67.3,77.7,70,83.5,70.9,88.7z"/>
	</g>
	<g class="st59">
		<circle class="st60" cx="101.5" cy="100.4" r="64.5"/>
		<path class="st60" d="M101.4,36c5.6,0,9.9,2.1,12.2,7.7c2,5.1,1.7,7.6,6.9,10.7c3.8,2.2,6.7,2.7,8.2,7.2c1.6,4.8-0.1,9.5-0.8,14.1
			c-0.8,5,0.3,9.8,3.1,14.4c3,4.8,9.7,7,12.1,11.7c4.9,9.5-9,18.4-10.7,26.6c-1.3,6.1,1.2,7.6,4,12.5c10.3,18.1-23.3,23.3-35.1,23.3
			c-35.4,0-64.2-28.7-64.2-64.2C37.3,64.7,66,36,101.4,36z"/>
		<path class="st60" d="M77.3,69.1c3.2,4.6,9.1,4.8,14.2,5.1c10,0.4,25.7-0.5,25.4,12.9c-0.1,4.7-3.3,8-2.4,12.5
			c0.9,4.5,5.6,8.2,9.3,10.2c2.9,1.6,9.8,3,11.4,6c2,3.9-5.4,8.2-6.4,13.2c-1.2,5.8,1.2,7.3,3.8,11.9c9.8,17.2-22.1,22.1-33.3,22.1
			c-33.7,0-61-27.3-61-61c0-12,3.6-23.8,10.2-33.7c3-4.6,7.1-10.2,11.9-13.2C63.8,52.9,75,65.7,77.3,69.1z"/>
		<path class="st60" d="M87.3,107.6c3.2-0.8,6.2-0.8,8.9,1c3.5,2.3,2.2,7,4.6,9.9c2.8,3.5,9,4.1,13.1,4.5c3.1,0.4,9,0.8,10.8,4
			c1.5,2.7-0.3,5.8,0.4,8.6c0.5,2,2.2,3.7,3.2,5.5c8.8,15.5-19.9,19.9-30,19.9c-20.1,0-38.9-11.3-48.4-29
			c-2.5-4.7-10.6-23.7-5.5-27.8c6-4.8,15.8,8.2,21.3,9.3C72.5,114.8,80.3,109.3,87.3,107.6z"/>
		<path class="st60" d="M89.7,131c2.4-0.4,4.6-0.4,6.6,0.5c2.6,1.2,1.7,3.5,3.4,5c2.1,1.7,6.7,2,9.7,2.3c2.3,0.2,6.7,0.4,8,2
			c1.1,1.3-0.2,2.9,0.3,4.3c0.4,1,1.6,1.9,2.3,2.8c6.5,7.7-14.7,9.9-22.2,9.9c-14.9,0-28.8-5.7-35.8-14.5c-1.9-2.3-7.9-11.8-4-13.9
			c4.5-2.4,11.7,4.1,15.8,4.6C78.8,134.7,84.5,131.9,89.7,131z"/>
	</g>
</g>
</svg>
