<?xml version="1.0" encoding="utf-8"?>
<!-- Generator: Adobe Illustrator 19.2.1, SVG Export Plug-In . SVG Version: 6.00 Build 0)  -->
<svg version="1.1" id="Layer_1" xmlns="http://www.w3.org/2000/svg" xmlns:xlink="http://www.w3.org/1999/xlink" x="0px" y="0px"
	 viewBox="0 0 288 288" style="enable-background:new 0 0 288 288;" xml:space="preserve">
<metadata><?xpacket begin="﻿" id="W5M0MpCehiHzreSzNTczkc9d"?>
<x:xmpmeta xmlns:x="adobe:ns:meta/" x:xmptk="Adobe XMP Core 5.6-c111 79.158366, 2015/09/25-01:12:00        ">
   <rdf:RDF xmlns:rdf="http://www.w3.org/1999/02/22-rdf-syntax-ns#">
      <rdf:Description rdf:about=""/>
   </rdf:RDF>
</x:xmpmeta>
                                                                                                    
                                                                                                    
                                                                                                    
                                                                                                    
                                                                                                    
                                                                                                    
                                                                                                    
                                                                                                    
                                                                                                    
                                                                                                    
                                                                                                    
                                                                                                    
                                                                                                    
                                                                                                    
                                                                                                    
                                                                                                    
                                                                                                    
                                                                                                    
                                                                                                    
                                                                                                    
                           
<?xpacket end="w"?></metadata>
<style type="text/css">
	.st0{opacity:0.4;}
	.st1{opacity:0;fill:#001E2B;}
	.st2{opacity:1.960784e-02;fill:#001E2B;}
	.st3{opacity:3.921569e-02;fill:#001E2B;}
	.st4{opacity:5.882353e-02;fill:#001E2B;}
	.st5{opacity:7.843138e-02;fill:#001E2B;}
	.st6{opacity:9.803922e-02;fill:#001E2B;}
	.st7{opacity:0.1176;fill:#001E2B;}
	.st8{opacity:0.1373;fill:#001E2B;}
	.st9{opacity:0.1569;fill:#001E2B;}
	.st10{opacity:0.1765;fill:#001E2B;}
	.st11{opacity:0.1961;fill:#001E2B;}
	.st12{opacity:0.2157;fill:#001E2B;}
	.st13{opacity:0.2353;fill:#001E2B;}
	.st14{opacity:0.2549;fill:#001E2B;}
	.st15{opacity:0.2745;fill:#001E2B;}
	.st16{opacity:0.2941;fill:#001E2B;}
	.st17{opacity:0.3137;fill:#001E2B;}
	.st18{opacity:0.3333;fill:#001E2B;}
	.st19{opacity:0.3529;fill:#001E2B;}
	.st20{opacity:0.3725;fill:#001E2B;}
	.st21{opacity:0.3922;fill:#001E2B;}
	.st22{opacity:0.4118;fill:#001E2B;}
	.st23{opacity:0.4314;fill:#001E2B;}
	.st24{opacity:0.451;fill:#001E2B;}
	.st25{opacity:0.4706;fill:#001E2B;}
	.st26{opacity:0.4902;fill:#001E2B;}
	.st27{opacity:0.5098;fill:#001E2B;}
	.st28{opacity:0.5294;fill:#001E2B;}
	.st29{opacity:0.549;fill:#001E2B;}
	.st30{opacity:0.5686;fill:#001E2B;}
	.st31{opacity:0.5882;fill:#001E2B;}
	.st32{opacity:0.6078;fill:#001E2B;}
	.st33{opacity:0.6275;fill:#001E2B;}
	.st34{opacity:0.6471;fill:#001E2B;}
	.st35{opacity:0.6667;fill:#001E2B;}
	.st36{opacity:0.6863;fill:#001E2B;}
	.st37{opacity:0.7059;fill:#001E2B;}
	.st38{opacity:0.7255;fill:#001E2B;}
	.st39{opacity:0.7451;fill:#001E2B;}
	.st40{opacity:0.7647;fill:#001E2B;}
	.st41{opacity:0.7843;fill:#001E2B;}
	.st42{opacity:0.8039;fill:#001E2B;}
	.st43{opacity:0.8235;fill:#001E2B;}
	.st44{opacity:0.8431;fill:#001E2B;}
	.st45{opacity:0.8627;fill:#001E2B;}
	.st46{opacity:0.8824;fill:#001E2B;}
	.st47{opacity:0.902;fill:#001E2B;}
	.st48{opacity:0.9216;fill:#001E2B;}
	.st49{opacity:0.9412;fill:#001E2B;}
	.st50{opacity:0.9608;fill:#001E2B;}
	.st51{opacity:0.9804;fill:#001E2B;}
	.st52{fill:#001E2B;}
	.st53{opacity:5.000000e-02;fill:#FBAE3B;}
	.st54{opacity:0.1;fill:#FBAE3B;}
	.st55{fill:#DB5E26;}
	.st56{fill:#EF8842;}
	.st57{fill:#F0C666;}
	.st58{fill:#C84D27;}
	.st59{fill:#F5EF78;}
	.st60{opacity:0.5;}
</style>
<g>
	<g class="st0">
		<circle class="st1" cx="199.1" cy="201.1" r="49.3"/>
		<circle class="st2" cx="197.6" cy="199.4" r="49.3"/>
		<circle class="st3" cx="196" cy="197.8" r="49.3"/>
		<circle class="st4" cx="194.4" cy="196.1" r="49.3"/>
		<circle class="st5" cx="192.8" cy="194.4" r="49.3"/>
		<circle class="st6" cx="191.3" cy="192.7" r="49.3"/>
		<circle class="st7" cx="189.7" cy="191.1" r="49.3"/>
		<circle class="st8" cx="188.1" cy="189.4" r="49.3"/>
		<circle class="st9" cx="186.6" cy="187.7" r="49.3"/>
		<circle class="st10" cx="185" cy="186" r="49.3"/>
		<circle class="st11" cx="183.4" cy="184.4" r="49.3"/>
		<circle class="st12" cx="181.9" cy="182.7" r="49.3"/>
		<circle class="st13" cx="180.3" cy="181" r="49.3"/>
		<circle class="st14" cx="178.7" cy="179.3" r="49.3"/>
		<circle class="st15" cx="177.1" cy="177.6" r="49.3"/>
		<circle class="st16" cx="175.6" cy="176" r="49.3"/>
		<circle class="st17" cx="174" cy="174.3" r="49.3"/>
		<circle class="st18" cx="172.4" cy="172.6" r="49.3"/>
		<circle class="st19" cx="170.9" cy="170.9" r="49.3"/>
		<circle class="st20" cx="169.3" cy="169.3" r="49.3"/>
		<circle class="st21" cx="167.7" cy="167.6" r="49.3"/>
		<circle class="st22" cx="166.2" cy="165.9" r="49.3"/>
		<circle class="st23" cx="164.6" cy="164.2" r="49.3"/>
		<circle class="st24" cx="163" cy="162.6" r="49.3"/>
		<circle class="st25" cx="161.5" cy="160.9" r="49.3"/>
		<circle class="st26" cx="159.9" cy="159.2" r="49.3"/>
		<circle class="st27" cx="158.3" cy="157.5" r="49.3"/>
		<circle class="st28" cx="156.7" cy="155.8" r="49.3"/>
		<circle class="st29" cx="155.2" cy="154.2" r="49.3"/>
		<circle class="st30" cx="153.6" cy="152.5" r="49.3"/>
		<circle class="st31" cx="152" cy="150.8" r="49.3"/>
		<circle class="st32" cx="150.5" cy="149.1" r="49.3"/>
		<circle class="st33" cx="148.9" cy="147.5" r="49.3"/>
		<circle class="st34" cx="147.3" cy="145.8" r="49.3"/>
		<circle class="st35" cx="145.8" cy="144.1" r="49.3"/>
		<circle class="st36" cx="144.2" cy="142.4" r="49.3"/>
		<circle class="st37" cx="142.6" cy="140.8" r="49.3"/>
		<ellipse class="st38" cx="141" cy="139.1" rx="49.3" ry="49.3"/>
		<ellipse class="st39" cx="139.5" cy="137.4" rx="49.3" ry="49.3"/>
		<ellipse class="st40" cx="137.9" cy="135.7" rx="49.3" ry="49.3"/>
		<ellipse class="st41" cx="136.3" cy="134" rx="49.3" ry="49.3"/>
		<ellipse class="st42" cx="134.8" cy="132.4" rx="49.3" ry="49.3"/>
		<ellipse class="st43" cx="133.2" cy="130.7" rx="49.3" ry="49.3"/>
		<ellipse class="st44" cx="131.6" cy="129" rx="49.3" ry="49.3"/>
		<ellipse class="st45" cx="130.1" cy="127.3" rx="49.3" ry="49.3"/>
		<ellipse class="st46" cx="128.5" cy="125.7" rx="49.3" ry="49.3"/>
		<ellipse class="st47" cx="126.9" cy="124" rx="49.3" ry="49.3"/>
		<ellipse class="st48" cx="125.4" cy="122.3" rx="49.3" ry="49.3"/>
		<ellipse class="st49" cx="123.8" cy="120.6" rx="49.3" ry="49.3"/>
		<ellipse class="st50" cx="122.2" cy="119" rx="49.3" ry="49.3"/>
		<ellipse class="st51" cx="120.6" cy="117.3" rx="49.3" ry="49.3"/>
		<ellipse class="st52" cx="119.1" cy="115.6" rx="49.3" ry="49.3"/>
	</g>
	<circle class="st53" cx="118.9" cy="116.2" r="78.3"/>
	<circle class="st54" cx="118.9" cy="116.2" r="58.7"/>
	<g>
		<g>
			<circle class="st55" cx="118" cy="116.1" r="49.5"/>
			<path class="st56" d="M167.4,116.1c0,4.3-1.6,7.6-5.9,9.3c-3.9,1.6-5.9,1.3-8.2,5.3c-1.7,2.9-2,5.1-5.6,6.3
				c-3.7,1.2-7.3-0.1-10.8-0.6c-3.8-0.6-7.5,0.2-11.1,2.4c-3.6,2.3-5.4,7.4-9,9.3c-7.3,3.7-14.1-6.9-20.4-8.2
				c-4.7-1-5.9,0.9-9.6,3.1C72.9,150.9,69,125.1,69,116.1c0-27.2,22-49.2,49.2-49.2C145.4,66.9,167.4,88.9,167.4,116.1z"/>
			<path class="st57" d="M142,97.6c-3.5,2.5-3.7,7-3.9,10.9c-0.3,7.7,0.4,19.7-9.9,19.4c-3.6-0.1-6.2-2.6-9.6-1.9
				c-3.4,0.7-6.3,4.3-7.8,7.2c-1.2,2.2-2.3,7.5-4.6,8.7c-3,1.6-6.3-4.1-10.1-4.9c-4.5-0.9-5.6,0.9-9.1,2.9c-13.2,7.5-17-17-17-25.6
				c0-25.8,20.9-46.8,46.8-46.8c9.2,0,18.2,2.7,25.9,7.8c3.5,2.3,7.8,5.5,10.1,9.1C154.4,87.2,144.6,95.8,142,97.6z"/>
			<path class="st58" d="M112.5,105.2c0.6,2.5,0.6,4.8-0.8,6.9c-1.8,2.7-5.4,1.7-7.6,3.6c-2.7,2.1-3.1,6.9-3.5,10
				c-0.3,2.3-0.6,6.9-3.1,8.3c-2.1,1.1-4.4-0.2-6.6,0.3c-1.5,0.4-2.9,1.7-4.2,2.4c-11.9,6.8-15.2-15.3-15.2-23
				c0-15.4,8.7-29.9,22.3-37.1c3.6-1.9,18.2-8.2,21.3-4.2c3.7,4.6-6.3,12.1-7.1,16.3C106.9,93.9,111.2,99.8,112.5,105.2z"/>
			<path class="st59" d="M91.9,108.4c0.3,1.8,0.3,3.5-0.4,5.1c-0.9,2-2.7,1.3-3.8,2.6c-1.3,1.6-1.6,5.1-1.7,7.4
				c-0.1,1.7-0.3,5.1-1.6,6.1c-1,0.8-2.2-0.1-3.3,0.2c-0.8,0.3-1.4,1.2-2.1,1.8c-5.9,5-7.6-11.3-7.6-17c0-11.4,4.3-22.1,11.1-27.5
				c1.8-1.4,9.1-6,10.7-3.1c1.8,3.4-3.2,9-3.6,12.1C89.1,100,91.2,104.4,91.9,108.4z"/>
		</g>
		<g class="st60">
			<circle class="st55" cx="118" cy="116.1" r="49.5"/>
			<path class="st56" d="M117.9,66.6c4.3,0,7.6,1.6,9.3,5.9c1.6,3.9,1.3,5.9,5.3,8.2c2.9,1.7,5.1,2,6.3,5.6
				c1.2,3.7-0.1,7.3-0.6,10.8c-0.6,3.8,0.2,7.5,2.4,11.1c2.3,3.6,7.4,5.4,9.3,9c3.7,7.3-6.9,14.1-8.2,20.4c-1,4.7,0.9,5.9,3.1,9.6
				c7.9,13.9-17.9,17.8-26.9,17.8c-27.2,0-49.2-22-49.2-49.2C68.7,88.7,90.7,66.6,117.9,66.6z"/>
			<path class="st57" d="M99.4,92.1c2.5,3.5,7,3.7,10.9,3.9c7.7,0.3,19.7-0.4,19.4,9.9c-0.1,3.6-2.6,6.2-1.9,9.6
				c0.7,3.4,4.3,6.3,7.1,7.8c2.2,1.2,7.5,2.3,8.7,4.6c1.6,3-4.1,6.3-4.9,10.1c-0.9,4.5,0.9,5.6,2.9,9.1c7.5,13.2-17,17-25.6,17
				c-25.8,0-46.8-20.9-46.8-46.8c0-9.2,2.7-18.2,7.8-25.9c2.3-3.5,5.5-7.8,9.1-10.1C89,79.7,97.6,89.5,99.4,92.1z"/>
			<path class="st58" d="M107,121.6c2.5-0.6,4.8-0.6,6.9,0.8c2.7,1.8,1.7,5.4,3.6,7.6c2.1,2.7,6.9,3.1,10,3.5
				c2.3,0.3,6.9,0.6,8.3,3.1c1.1,2.1-0.2,4.4,0.3,6.6c0.4,1.5,1.7,2.9,2.4,4.2c6.8,11.9-15.3,15.3-23,15.3
				c-15.4,0-29.9-8.7-37.1-22.3c-1.9-3.6-8.2-18.2-4.2-21.3c4.6-3.7,12.1,6.3,16.3,7.1C95.7,127.1,101.7,122.9,107,121.6z"/>
		</g>
	</g>
</g>
</svg>
